<svg xmlns="http://www.w3.org/2000/svg" xmlns:xlink="http://www.w3.org/1999/xlink" width="350" zoomAndPan="magnify" viewBox="0 0 262.5 112.499997" height="150" preserveAspectRatio="xMidYMid meet" version="1.0"><defs><g/><clipPath id="794d53fada"><path d="M 0.332031 0 L 261.671875 0 L 261.671875 112.003906 L 0.332031 112.003906 Z M 0.332031 0 " clip-rule="nonzero"/></clipPath></defs><g clip-path="url(#794d53fada)"><path fill="#ffffff" d="M 0.332031 0 L 261.671875 0 L 261.671875 112.003906 L 0.332031 112.003906 Z M 0.332031 0 " fill-opacity="1" fill-rule="nonzero"/><path fill="#ffffff" d="M 0.332031 0 L 261.671875 0 L 261.671875 112.003906 L 0.332031 112.003906 Z M 0.332031 0 " fill-opacity="1" fill-rule="nonzero"/></g><g fill="#16a34a" fill-opacity="1"><g transform="translate(8.27127, 69.621463)"><g><path d="M 36.46875 -6.90625 C 36.46875 -5.53125 36.378906 -4.394531 36.203125 -3.5 C 36.023438 -2.601562 35.679688 -1.898438 35.171875 -1.390625 C 34.660156 -0.878906 33.972656 -0.519531 33.109375 -0.3125 C 32.242188 -0.101562 31.125 0 29.75 0 L 10.484375 0 C 9.046875 0 7.863281 -0.0703125 6.9375 -0.21875 C 6.019531 -0.375 5.320312 -0.703125 4.84375 -1.203125 C 4.363281 -1.710938 4.03125 -2.414062 3.84375 -3.3125 C 3.664062 -4.207031 3.578125 -5.40625 3.578125 -6.90625 L 3.578125 -35.21875 C 3.578125 -36.707031 3.648438 -37.914062 3.796875 -38.84375 C 3.953125 -39.769531 4.285156 -40.488281 4.796875 -41 C 5.304688 -41.507812 6.007812 -41.835938 6.90625 -41.984375 C 7.800781 -42.128906 8.992188 -42.203125 10.484375 -42.203125 L 25.8125 -42.203125 C 27.476562 -42.203125 28.578125 -42.484375 29.109375 -43.046875 C 29.648438 -43.617188 29.921875 -44.710938 29.921875 -46.328125 L 29.921875 -54.484375 C 29.921875 -56.578125 30.160156 -58.007812 30.640625 -58.78125 C 31.117188 -59.5625 31.957031 -59.953125 33.15625 -59.953125 C 34.46875 -59.953125 35.347656 -59.5625 35.796875 -58.78125 C 36.242188 -58.007812 36.46875 -56.578125 36.46875 -54.484375 Z M 14.875 -35.75 C 12.84375 -35.75 11.539062 -35.460938 10.96875 -34.890625 C 10.40625 -34.328125 10.125 -33.03125 10.125 -31 L 10.125 -28.5 C 10.125 -27.0625 10.300781 -26.085938 10.65625 -25.578125 C 11.019531 -25.078125 11.828125 -24.675781 13.078125 -24.375 C 14.335938 -24.019531 15.144531 -23.539062 15.5 -22.9375 C 15.863281 -22.34375 16.046875 -21.148438 16.046875 -19.359375 L 16.046875 -11.296875 C 16.046875 -10.210938 16.085938 -9.359375 16.171875 -8.734375 C 16.265625 -8.109375 16.488281 -7.628906 16.84375 -7.296875 C 17.207031 -6.972656 17.703125 -6.765625 18.328125 -6.671875 C 18.953125 -6.585938 19.800781 -6.546875 20.875 -6.546875 L 25.1875 -6.546875 C 26.195312 -6.546875 27.015625 -6.601562 27.640625 -6.71875 C 28.265625 -6.84375 28.753906 -7.066406 29.109375 -7.390625 C 29.472656 -7.722656 29.710938 -8.203125 29.828125 -8.828125 C 29.953125 -9.453125 30.015625 -10.273438 30.015625 -11.296875 L 30.015625 -31 C 30.015625 -33.03125 29.726562 -34.328125 29.15625 -34.890625 C 28.59375 -35.460938 27.296875 -35.75 25.265625 -35.75 Z M 14.875 -35.75 "/></g></g></g><g fill="#16a34a" fill-opacity="1"><g transform="translate(48.323224, 69.621463)"><g><path d="M 36.46875 -6.90625 C 36.46875 -5.40625 36.378906 -4.207031 36.203125 -3.3125 C 36.023438 -2.414062 35.695312 -1.710938 35.21875 -1.203125 C 34.738281 -0.703125 34.050781 -0.375 33.15625 -0.21875 C 32.257812 -0.0703125 31.066406 0 29.578125 0 L 10.484375 0 C 9.046875 0 7.863281 -0.0859375 6.9375 -0.265625 C 6.019531 -0.441406 5.320312 -0.769531 4.84375 -1.25 C 4.363281 -1.726562 4.03125 -2.429688 3.84375 -3.359375 C 3.664062 -4.285156 3.578125 -5.46875 3.578125 -6.90625 L 3.578125 -18.375 C 3.578125 -19.925781 3.648438 -21.164062 3.796875 -22.09375 C 3.953125 -23.019531 4.285156 -23.734375 4.796875 -24.234375 C 5.304688 -24.742188 6.007812 -25.070312 6.90625 -25.21875 C 7.800781 -25.375 8.992188 -25.453125 10.484375 -25.453125 L 25.1875 -25.453125 C 26.195312 -25.453125 27.015625 -25.507812 27.640625 -25.625 C 28.265625 -25.75 28.742188 -25.972656 29.078125 -26.296875 C 29.410156 -26.628906 29.632812 -27.109375 29.75 -27.734375 C 29.863281 -28.359375 29.921875 -29.179688 29.921875 -30.203125 L 29.921875 -31 C 29.921875 -32.019531 29.875 -32.84375 29.78125 -33.46875 C 29.695312 -34.09375 29.488281 -34.566406 29.15625 -34.890625 C 28.832031 -35.222656 28.359375 -35.4375 27.734375 -35.53125 C 27.109375 -35.625 26.257812 -35.671875 25.1875 -35.671875 L 14.421875 -35.671875 C 12.929688 -35.671875 11.898438 -35.519531 11.328125 -35.21875 C 10.765625 -34.914062 10.425781 -34.257812 10.3125 -33.25 L 10.125 -31.984375 C 9.820312 -30.015625 8.75 -29.03125 6.90625 -29.03125 C 5.644531 -29.03125 4.773438 -29.390625 4.296875 -30.109375 C 3.816406 -30.828125 3.578125 -32.140625 3.578125 -34.046875 L 3.578125 -35.125 C 3.578125 -36.675781 3.648438 -37.914062 3.796875 -38.84375 C 3.953125 -39.769531 4.285156 -40.488281 4.796875 -41 C 5.304688 -41.507812 6.007812 -41.835938 6.90625 -41.984375 C 7.800781 -42.128906 8.992188 -42.203125 10.484375 -42.203125 L 29.65625 -42.203125 C 31.15625 -42.203125 32.351562 -42.128906 33.25 -41.984375 C 34.144531 -41.835938 34.828125 -41.507812 35.296875 -41 C 35.773438 -40.488281 36.085938 -39.769531 36.234375 -38.84375 C 36.390625 -37.914062 36.46875 -36.675781 36.46875 -35.125 Z M 20.703125 -18.90625 C 18.671875 -18.90625 17.367188 -18.617188 16.796875 -18.046875 C 16.234375 -17.484375 15.953125 -16.1875 15.953125 -14.15625 L 15.953125 -11.296875 C 15.953125 -10.210938 15.992188 -9.359375 16.078125 -8.734375 C 16.171875 -8.109375 16.394531 -7.628906 16.75 -7.296875 C 17.113281 -6.972656 17.609375 -6.765625 18.234375 -6.671875 C 18.859375 -6.585938 19.710938 -6.546875 20.796875 -6.546875 L 25.1875 -6.546875 C 26.195312 -6.546875 27.015625 -6.601562 27.640625 -6.71875 C 28.265625 -6.84375 28.742188 -7.066406 29.078125 -7.390625 C 29.410156 -7.722656 29.632812 -8.1875 29.75 -8.78125 C 29.863281 -9.375 29.921875 -10.179688 29.921875 -11.203125 L 29.921875 -13.890625 C 29.921875 -15.023438 29.875 -15.921875 29.78125 -16.578125 C 29.695312 -17.234375 29.488281 -17.738281 29.15625 -18.09375 C 28.832031 -18.457031 28.359375 -18.679688 27.734375 -18.765625 C 27.109375 -18.859375 26.257812 -18.90625 25.1875 -18.90625 Z M 20.703125 -18.90625 "/></g></g></g><g fill="#16a34a" fill-opacity="1"><g transform="translate(88.375178, 69.621463)"><g><path d="M 6.625 -51.890625 C 6.625 -53.972656 6.863281 -55.414062 7.34375 -56.21875 C 7.820312 -57.03125 8.691406 -57.4375 9.953125 -57.4375 C 11.203125 -57.4375 12.066406 -57.046875 12.546875 -56.265625 C 13.023438 -55.492188 13.265625 -54.0625 13.265625 -51.96875 L 13.265625 -45.609375 C 13.265625 -44.171875 13.394531 -43.273438 13.65625 -42.921875 C 13.925781 -42.566406 14.628906 -42.359375 15.765625 -42.296875 C 18.515625 -42.234375 19.890625 -41.128906 19.890625 -38.984375 C 19.890625 -36.828125 18.632812 -35.722656 16.125 -35.671875 C 14.8125 -35.609375 13.988281 -35.394531 13.65625 -35.03125 C 13.332031 -34.675781 13.171875 -33.78125 13.171875 -32.34375 L 13.171875 -30.46875 C 13.171875 -29.03125 13.347656 -28.054688 13.703125 -27.546875 C 14.066406 -27.046875 14.875 -26.644531 16.125 -26.34375 C 17.382812 -25.988281 18.191406 -25.507812 18.546875 -24.90625 C 18.910156 -24.3125 19.09375 -23.117188 19.09375 -21.328125 L 19.09375 -7.609375 C 19.09375 -6.054688 19.015625 -4.785156 18.859375 -3.796875 C 18.710938 -2.816406 18.414062 -2.039062 17.96875 -1.46875 C 17.519531 -0.90625 16.90625 -0.519531 16.125 -0.3125 C 15.351562 -0.101562 14.335938 0 13.078125 0 C 11.234375 0 9.890625 -0.160156 9.046875 -0.484375 C 8.210938 -0.816406 7.585938 -1.460938 7.171875 -2.421875 C 6.929688 -2.898438 6.78125 -3.484375 6.71875 -4.171875 C 6.65625 -4.859375 6.625 -6.003906 6.625 -7.609375 L 6.625 -31.8125 L 6.546875 -33.328125 C 6.546875 -34.171875 6.410156 -34.722656 6.140625 -34.984375 C 5.867188 -35.253906 5.34375 -35.453125 4.5625 -35.578125 L 3.40625 -35.671875 C 1.132812 -35.847656 0 -36.921875 0 -38.890625 C 0 -41.097656 1.253906 -42.203125 3.765625 -42.203125 C 4.421875 -42.203125 4.941406 -42.242188 5.328125 -42.328125 C 5.722656 -42.421875 6.007812 -42.628906 6.1875 -42.953125 C 6.363281 -43.285156 6.476562 -43.765625 6.53125 -44.390625 C 6.59375 -45.023438 6.625 -45.878906 6.625 -46.953125 Z M 6.625 -51.890625 "/></g></g></g><g fill="#16a34a" fill-opacity="1"><g transform="translate(111.22361, 69.621463)"><g><path d="M 36.46875 -6.90625 C 36.46875 -5.40625 36.378906 -4.207031 36.203125 -3.3125 C 36.023438 -2.414062 35.695312 -1.710938 35.21875 -1.203125 C 34.738281 -0.703125 34.050781 -0.375 33.15625 -0.21875 C 32.257812 -0.0703125 31.066406 0 29.578125 0 L 10.484375 0 C 9.046875 0 7.863281 -0.0859375 6.9375 -0.265625 C 6.019531 -0.441406 5.320312 -0.769531 4.84375 -1.25 C 4.363281 -1.726562 4.03125 -2.429688 3.84375 -3.359375 C 3.664062 -4.285156 3.578125 -5.46875 3.578125 -6.90625 L 3.578125 -18.375 C 3.578125 -19.925781 3.648438 -21.164062 3.796875 -22.09375 C 3.953125 -23.019531 4.285156 -23.734375 4.796875 -24.234375 C 5.304688 -24.742188 6.007812 -25.070312 6.90625 -25.21875 C 7.800781 -25.375 8.992188 -25.453125 10.484375 -25.453125 L 25.1875 -25.453125 C 26.195312 -25.453125 27.015625 -25.507812 27.640625 -25.625 C 28.265625 -25.75 28.742188 -25.972656 29.078125 -26.296875 C 29.410156 -26.628906 29.632812 -27.109375 29.75 -27.734375 C 29.863281 -28.359375 29.921875 -29.179688 29.921875 -30.203125 L 29.921875 -31 C 29.921875 -32.019531 29.875 -32.84375 29.78125 -33.46875 C 29.695312 -34.09375 29.488281 -34.566406 29.15625 -34.890625 C 28.832031 -35.222656 28.359375 -35.4375 27.734375 -35.53125 C 27.109375 -35.625 26.257812 -35.671875 25.1875 -35.671875 L 14.421875 -35.671875 C 12.929688 -35.671875 11.898438 -35.519531 11.328125 -35.21875 C 10.765625 -34.914062 10.425781 -34.257812 10.3125 -33.25 L 10.125 -31.984375 C 9.820312 -30.015625 8.75 -29.03125 6.90625 -29.03125 C 5.644531 -29.03125 4.773438 -29.390625 4.296875 -30.109375 C 3.816406 -30.828125 3.578125 -32.140625 3.578125 -34.046875 L 3.578125 -35.125 C 3.578125 -36.675781 3.648438 -37.914062 3.796875 -38.84375 C 3.953125 -39.769531 4.285156 -40.488281 4.796875 -41 C 5.304688 -41.507812 6.007812 -41.835938 6.90625 -41.984375 C 7.800781 -42.128906 8.992188 -42.203125 10.484375 -42.203125 L 29.65625 -42.203125 C 31.15625 -42.203125 32.351562 -42.128906 33.25 -41.984375 C 34.144531 -41.835938 34.828125 -41.507812 35.296875 -41 C 35.773438 -40.488281 36.085938 -39.769531 36.234375 -38.84375 C 36.390625 -37.914062 36.46875 -36.675781 36.46875 -35.125 Z M 20.703125 -18.90625 C 18.671875 -18.90625 17.367188 -18.617188 16.796875 -18.046875 C 16.234375 -17.484375 15.953125 -16.1875 15.953125 -14.15625 L 15.953125 -11.296875 C 15.953125 -10.210938 15.992188 -9.359375 16.078125 -8.734375 C 16.171875 -8.109375 16.394531 -7.628906 16.75 -7.296875 C 17.113281 -6.972656 17.609375 -6.765625 18.234375 -6.671875 C 18.859375 -6.585938 19.710938 -6.546875 20.796875 -6.546875 L 25.1875 -6.546875 C 26.195312 -6.546875 27.015625 -6.601562 27.640625 -6.71875 C 28.265625 -6.84375 28.742188 -7.066406 29.078125 -7.390625 C 29.410156 -7.722656 29.632812 -8.1875 29.75 -8.78125 C 29.863281 -9.375 29.921875 -10.179688 29.921875 -11.203125 L 29.921875 -13.890625 C 29.921875 -15.023438 29.875 -15.921875 29.78125 -16.578125 C 29.695312 -17.234375 29.488281 -17.738281 29.15625 -18.09375 C 28.832031 -18.457031 28.359375 -18.679688 27.734375 -18.765625 C 27.109375 -18.859375 26.257812 -18.90625 25.1875 -18.90625 Z M 20.703125 -18.90625 "/></g></g></g><g fill="#16a34a" fill-opacity="1"><g transform="translate(193.804762, 69.621463)"><g><path d="M 36.46875 -6.90625 C 36.46875 -5.40625 36.378906 -4.207031 36.203125 -3.3125 C 36.023438 -2.414062 35.695312 -1.710938 35.21875 -1.203125 C 34.738281 -0.703125 34.050781 -0.375 33.15625 -0.21875 C 32.257812 -0.0703125 31.066406 0 29.578125 0 L 10.484375 0 C 9.046875 0 7.863281 -0.0859375 6.9375 -0.265625 C 6.019531 -0.441406 5.320312 -0.769531 4.84375 -1.25 C 4.363281 -1.726562 4.03125 -2.429688 3.84375 -3.359375 C 3.664062 -4.285156 3.578125 -5.46875 3.578125 -6.90625 L 3.578125 -18.375 C 3.578125 -19.925781 3.648438 -21.164062 3.796875 -22.09375 C 3.953125 -23.019531 4.285156 -23.734375 4.796875 -24.234375 C 5.304688 -24.742188 6.007812 -25.070312 6.90625 -25.21875 C 7.800781 -25.375 8.992188 -25.453125 10.484375 -25.453125 L 25.1875 -25.453125 C 26.195312 -25.453125 27.015625 -25.507812 27.640625 -25.625 C 28.265625 -25.75 28.742188 -25.972656 29.078125 -26.296875 C 29.410156 -26.628906 29.632812 -27.109375 29.75 -27.734375 C 29.863281 -28.359375 29.921875 -29.179688 29.921875 -30.203125 L 29.921875 -31 C 29.921875 -32.019531 29.875 -32.84375 29.78125 -33.46875 C 29.695312 -34.09375 29.488281 -34.566406 29.15625 -34.890625 C 28.832031 -35.222656 28.359375 -35.4375 27.734375 -35.53125 C 27.109375 -35.625 26.257812 -35.671875 25.1875 -35.671875 L 14.421875 -35.671875 C 12.929688 -35.671875 11.898438 -35.519531 11.328125 -35.21875 C 10.765625 -34.914062 10.425781 -34.257812 10.3125 -33.25 L 10.125 -31.984375 C 9.820312 -30.015625 8.75 -29.03125 6.90625 -29.03125 C 5.644531 -29.03125 4.773438 -29.390625 4.296875 -30.109375 C 3.816406 -30.828125 3.578125 -32.140625 3.578125 -34.046875 L 3.578125 -35.125 C 3.578125 -36.675781 3.648438 -37.914062 3.796875 -38.84375 C 3.953125 -39.769531 4.285156 -40.488281 4.796875 -41 C 5.304688 -41.507812 6.007812 -41.835938 6.90625 -41.984375 C 7.800781 -42.128906 8.992188 -42.203125 10.484375 -42.203125 L 29.65625 -42.203125 C 31.15625 -42.203125 32.351562 -42.128906 33.25 -41.984375 C 34.144531 -41.835938 34.828125 -41.507812 35.296875 -41 C 35.773438 -40.488281 36.085938 -39.769531 36.234375 -38.84375 C 36.390625 -37.914062 36.46875 -36.675781 36.46875 -35.125 Z M 20.703125 -18.90625 C 18.671875 -18.90625 17.367188 -18.617188 16.796875 -18.046875 C 16.234375 -17.484375 15.953125 -16.1875 15.953125 -14.15625 L 15.953125 -11.296875 C 15.953125 -10.210938 15.992188 -9.359375 16.078125 -8.734375 C 16.171875 -8.109375 16.394531 -7.628906 16.75 -7.296875 C 17.113281 -6.972656 17.609375 -6.765625 18.234375 -6.671875 C 18.859375 -6.585938 19.710938 -6.546875 20.796875 -6.546875 L 25.1875 -6.546875 C 26.195312 -6.546875 27.015625 -6.601562 27.640625 -6.71875 C 28.265625 -6.84375 28.742188 -7.066406 29.078125 -7.390625 C 29.410156 -7.722656 29.632812 -8.1875 29.75 -8.78125 C 29.863281 -9.375 29.921875 -10.179688 29.921875 -11.203125 L 29.921875 -13.890625 C 29.921875 -15.023438 29.875 -15.921875 29.78125 -16.578125 C 29.695312 -17.234375 29.488281 -17.738281 29.15625 -18.09375 C 28.832031 -18.457031 28.359375 -18.679688 27.734375 -18.765625 C 27.109375 -18.859375 26.257812 -18.90625 25.1875 -18.90625 Z M 20.703125 -18.90625 "/></g></g></g><g fill="#16a34a" fill-opacity="1"><g transform="translate(233.856716, 69.621463)"><g><path d="M 16.046875 -54.484375 C 16.046875 -52.390625 15.609375 -50.9375 14.734375 -50.125 C 13.867188 -49.320312 12.242188 -48.921875 9.859375 -48.921875 C 7.347656 -48.921875 5.660156 -49.28125 4.796875 -50 C 3.929688 -50.71875 3.5 -52.09375 3.5 -54.125 C 3.5 -56.269531 3.957031 -57.757812 4.875 -58.59375 C 5.800781 -59.4375 7.519531 -59.859375 10.03125 -59.859375 C 12.300781 -59.859375 13.867188 -59.484375 14.734375 -58.734375 C 15.609375 -57.992188 16.046875 -56.578125 16.046875 -54.484375 Z M 16.046875 -7.609375 C 16.046875 -6.054688 15.96875 -4.785156 15.8125 -3.796875 C 15.664062 -2.816406 15.367188 -2.039062 14.921875 -1.46875 C 14.472656 -0.90625 13.859375 -0.519531 13.078125 -0.3125 C 12.304688 -0.101562 11.289062 0 10.03125 0 C 8.1875 0 6.859375 -0.160156 6.046875 -0.484375 C 5.242188 -0.816406 4.601562 -1.460938 4.125 -2.421875 C 3.882812 -2.898438 3.734375 -3.484375 3.671875 -4.171875 C 3.609375 -4.859375 3.578125 -6.003906 3.578125 -7.609375 L 3.578125 -36.921875 C 3.578125 -39.015625 3.816406 -40.445312 4.296875 -41.21875 C 4.773438 -42 5.644531 -42.390625 6.90625 -42.390625 C 8.09375 -42.390625 8.925781 -42 9.40625 -41.21875 C 9.882812 -40.445312 10.125 -39.015625 10.125 -36.921875 L 10.125 -30.46875 C 10.125 -29.03125 10.300781 -28.054688 10.65625 -27.546875 C 11.019531 -27.046875 11.828125 -26.644531 13.078125 -26.34375 C 14.335938 -25.988281 15.144531 -25.507812 15.5 -24.90625 C 15.863281 -24.3125 16.046875 -23.117188 16.046875 -21.328125 Z M 16.046875 -7.609375 "/></g></g></g><g fill="#ffffff" fill-opacity="1"><g transform="translate(148.447981, 69.621463)"><g><path d="M 28.578125 -16.75 L 28.578125 0 L 19.265625 0 L 19.265625 -16.75 L 2.78125 -16.75 L 2.78125 -25.359375 L 19.265625 -25.359375 L 19.265625 -42.203125 L 28.578125 -42.203125 L 28.578125 -25.359375 L 44.890625 -25.359375 L 44.890625 -16.75 Z M 28.578125 -16.75 "/></g></g></g><g fill="#ffffff" fill-opacity="1"><g transform="translate(11.532083, 93.990893)"><g><path d="M 12.03125 -6.0625 C 12.03125 -6.570312 12.007812 -6.976562 11.96875 -7.28125 C 11.925781 -7.582031 11.832031 -7.816406 11.6875 -7.984375 C 11.550781 -8.148438 11.347656 -8.253906 11.078125 -8.296875 C 10.816406 -8.335938 10.460938 -8.359375 10.015625 -8.359375 L 6.984375 -8.359375 C 6.515625 -8.359375 6.140625 -8.335938 5.859375 -8.296875 C 5.585938 -8.253906 5.378906 -8.15625 5.234375 -8 C 5.085938 -7.84375 5 -7.613281 4.96875 -7.3125 C 4.9375 -7.007812 4.921875 -6.59375 4.921875 -6.0625 L 4.921875 -2.75 C 4.921875 -2.382812 4.914062 -2.078125 4.90625 -1.828125 C 4.894531 -1.578125 4.867188 -1.363281 4.828125 -1.1875 C 4.796875 -1.019531 4.75 -0.882812 4.6875 -0.78125 C 4.632812 -0.675781 4.5625 -0.570312 4.46875 -0.46875 C 4.164062 -0.15625 3.632812 0 2.875 0 C 1.957031 0 1.367188 -0.25 1.109375 -0.75 C 1.054688 -0.851562 1.015625 -0.957031 0.984375 -1.0625 C 0.953125 -1.164062 0.925781 -1.289062 0.90625 -1.4375 C 0.882812 -1.582031 0.867188 -1.757812 0.859375 -1.96875 C 0.859375 -2.1875 0.859375 -2.460938 0.859375 -2.796875 L 0.859375 -8.609375 C 0.859375 -8.941406 0.867188 -9.210938 0.890625 -9.421875 C 0.921875 -9.640625 0.972656 -9.820312 1.046875 -9.96875 C 1.128906 -10.113281 1.234375 -10.234375 1.359375 -10.328125 C 1.484375 -10.429688 1.660156 -10.523438 1.890625 -10.609375 C 2.097656 -10.679688 2.253906 -10.753906 2.359375 -10.828125 C 2.472656 -10.898438 2.554688 -11 2.609375 -11.125 C 2.660156 -11.257812 2.695312 -11.4375 2.71875 -11.65625 C 2.738281 -11.882812 2.75 -12.191406 2.75 -12.578125 L 2.75 -14.703125 C 2.75 -15.234375 2.773438 -15.664062 2.828125 -16 C 2.890625 -16.34375 3.007812 -16.609375 3.1875 -16.796875 C 3.375 -16.984375 3.632812 -17.109375 3.96875 -17.171875 C 4.300781 -17.234375 4.738281 -17.265625 5.28125 -17.265625 L 9.828125 -17.265625 C 10.484375 -17.265625 10.945312 -17.226562 11.21875 -17.15625 C 11.5 -17.082031 11.734375 -16.941406 11.921875 -16.734375 C 12.097656 -16.535156 12.21875 -16.296875 12.28125 -16.015625 C 12.34375 -15.742188 12.375 -15.285156 12.375 -14.640625 L 12.375 -12.625 C 12.375 -12.226562 12.375 -11.914062 12.375 -11.6875 C 12.382812 -11.46875 12.414062 -11.285156 12.46875 -11.140625 C 12.519531 -11.003906 12.59375 -10.898438 12.6875 -10.828125 C 12.78125 -10.765625 12.90625 -10.703125 13.0625 -10.640625 L 13.421875 -10.484375 C 13.671875 -10.390625 13.847656 -10.265625 13.953125 -10.109375 C 14.066406 -9.960938 14.140625 -9.738281 14.171875 -9.4375 C 14.171875 -9.375 14.171875 -9.300781 14.171875 -9.21875 C 14.171875 -9.144531 14.179688 -8.960938 14.203125 -8.671875 L 14.203125 -1.734375 C 14.203125 -1.234375 14.1875 -0.882812 14.15625 -0.6875 C 14.125 -0.488281 14.0625 -0.328125 13.96875 -0.203125 C 13.757812 0.0546875 13.484375 0.1875 13.140625 0.1875 C 12.710938 0.1875 12.421875 0.0507812 12.265625 -0.21875 C 12.109375 -0.488281 12.03125 -0.992188 12.03125 -1.734375 Z M 8.328125 -10.5 C 8.742188 -10.5 9.070312 -10.519531 9.3125 -10.5625 C 9.550781 -10.613281 9.734375 -10.71875 9.859375 -10.875 C 9.992188 -11.039062 10.078125 -11.273438 10.109375 -11.578125 C 10.148438 -11.878906 10.171875 -12.289062 10.171875 -12.8125 C 10.171875 -13.289062 10.148438 -13.679688 10.109375 -13.984375 C 10.066406 -14.285156 9.984375 -14.519531 9.859375 -14.6875 C 9.734375 -14.851562 9.554688 -14.957031 9.328125 -15 C 9.097656 -15.050781 8.789062 -15.078125 8.40625 -15.078125 L 6.75 -15.078125 C 6.351562 -15.078125 6.035156 -15.050781 5.796875 -15 C 5.554688 -14.957031 5.367188 -14.84375 5.234375 -14.65625 C 5.109375 -14.476562 5.023438 -14.21875 4.984375 -13.875 C 4.953125 -13.539062 4.9375 -13.09375 4.9375 -12.53125 C 4.9375 -12.070312 4.957031 -11.710938 5 -11.453125 C 5.050781 -11.203125 5.140625 -11.003906 5.265625 -10.859375 C 5.390625 -10.710938 5.570312 -10.613281 5.8125 -10.5625 C 6.0625 -10.519531 6.382812 -10.5 6.78125 -10.5 Z M 8.328125 -10.5 "/></g></g></g><g fill="#ffffff" fill-opacity="1"><g transform="translate(30.117448, 93.990893)"><g/></g></g><g fill="#ffffff" fill-opacity="1"><g transform="translate(38.968507, 93.990893)"><g/></g></g><g fill="#ffffff" fill-opacity="1"><g transform="translate(47.827797, 93.990893)"><g><path d="M 14 -2.046875 C 14 -1.234375 13.789062 -0.671875 13.375 -0.359375 C 13.1875 -0.222656 12.960938 -0.128906 12.703125 -0.078125 C 12.441406 -0.0234375 12.003906 0 11.390625 0 L 3.796875 0 C 3.242188 0 2.800781 -0.03125 2.46875 -0.09375 C 2.132812 -0.15625 1.867188 -0.273438 1.671875 -0.453125 C 1.484375 -0.628906 1.359375 -0.878906 1.296875 -1.203125 C 1.242188 -1.523438 1.21875 -1.953125 1.21875 -2.484375 L 1.21875 -14.9375 C 1.21875 -15.394531 1.25 -15.773438 1.3125 -16.078125 C 1.382812 -16.378906 1.503906 -16.613281 1.671875 -16.78125 C 1.847656 -16.957031 2.09375 -17.082031 2.40625 -17.15625 C 2.71875 -17.226562 3.109375 -17.265625 3.578125 -17.265625 L 11.5625 -17.265625 C 12.082031 -17.265625 12.503906 -17.226562 12.828125 -17.15625 C 13.160156 -17.082031 13.414062 -16.953125 13.59375 -16.765625 C 13.78125 -16.578125 13.898438 -16.3125 13.953125 -15.96875 C 14.003906 -15.625 14.03125 -15.164062 14.03125 -14.59375 L 14 -13.40625 C 14 -12.882812 13.910156 -12.503906 13.734375 -12.265625 C 13.566406 -12.035156 13.300781 -11.921875 12.9375 -11.921875 C 12.539062 -11.921875 12.265625 -12.03125 12.109375 -12.25 C 11.953125 -12.46875 11.863281 -12.84375 11.84375 -13.375 C 11.832031 -13.757812 11.800781 -14.0625 11.75 -14.28125 C 11.695312 -14.507812 11.585938 -14.679688 11.421875 -14.796875 C 11.253906 -14.921875 11.015625 -15 10.703125 -15.03125 C 10.398438 -15.0625 9.988281 -15.078125 9.46875 -15.078125 L 5.484375 -15.078125 C 5.015625 -15.078125 4.640625 -15.050781 4.359375 -15 C 4.078125 -14.957031 3.863281 -14.847656 3.71875 -14.671875 C 3.570312 -14.492188 3.472656 -14.242188 3.421875 -13.921875 C 3.378906 -13.609375 3.359375 -13.1875 3.359375 -12.65625 C 3.359375 -12.289062 3.367188 -11.992188 3.390625 -11.765625 C 3.410156 -11.546875 3.445312 -11.363281 3.5 -11.21875 C 3.550781 -11.082031 3.625 -10.96875 3.71875 -10.875 C 3.820312 -10.78125 3.960938 -10.703125 4.140625 -10.640625 C 4.410156 -10.492188 4.625 -10.378906 4.78125 -10.296875 C 4.9375 -10.210938 5.050781 -10.097656 5.125 -9.953125 C 5.195312 -9.804688 5.234375 -9.609375 5.234375 -9.359375 C 5.242188 -9.109375 5.25 -8.75 5.25 -8.28125 L 5.25 -5.046875 C 5.25 -4.804688 5.253906 -4.523438 5.265625 -4.203125 C 5.273438 -3.878906 5.285156 -3.632812 5.296875 -3.46875 C 5.316406 -2.945312 5.488281 -2.59375 5.8125 -2.40625 C 6.144531 -2.226562 6.769531 -2.140625 7.6875 -2.140625 L 9.46875 -2.140625 C 10.019531 -2.140625 10.453125 -2.160156 10.765625 -2.203125 C 11.085938 -2.253906 11.328125 -2.367188 11.484375 -2.546875 C 11.640625 -2.734375 11.734375 -3 11.765625 -3.34375 C 11.804688 -3.695312 11.828125 -4.1875 11.828125 -4.8125 C 11.828125 -5.34375 11.90625 -5.722656 12.0625 -5.953125 C 12.226562 -6.191406 12.507812 -6.3125 12.90625 -6.3125 C 13.300781 -6.3125 13.582031 -6.191406 13.75 -5.953125 C 13.914062 -5.722656 14 -5.332031 14 -4.78125 Z M 14 -2.046875 "/></g></g></g><g fill="#ffffff" fill-opacity="1"><g transform="translate(66.203159, 93.990893)"><g/></g></g><g fill="#ffffff" fill-opacity="1"><g transform="translate(75.054217, 93.990893)"><g/></g></g><g fill="#ffffff" fill-opacity="1"><g transform="translate(83.913507, 93.990893)"><g><path d="M 12.03125 -6.0625 C 12.03125 -6.570312 12.007812 -6.976562 11.96875 -7.28125 C 11.925781 -7.582031 11.832031 -7.816406 11.6875 -7.984375 C 11.550781 -8.148438 11.347656 -8.253906 11.078125 -8.296875 C 10.816406 -8.335938 10.460938 -8.359375 10.015625 -8.359375 L 6.984375 -8.359375 C 6.515625 -8.359375 6.140625 -8.335938 5.859375 -8.296875 C 5.585938 -8.253906 5.378906 -8.15625 5.234375 -8 C 5.085938 -7.84375 5 -7.613281 4.96875 -7.3125 C 4.9375 -7.007812 4.921875 -6.59375 4.921875 -6.0625 L 4.921875 -2.75 C 4.921875 -2.382812 4.914062 -2.078125 4.90625 -1.828125 C 4.894531 -1.578125 4.867188 -1.363281 4.828125 -1.1875 C 4.796875 -1.019531 4.75 -0.882812 4.6875 -0.78125 C 4.632812 -0.675781 4.5625 -0.570312 4.46875 -0.46875 C 4.164062 -0.15625 3.632812 0 2.875 0 C 1.957031 0 1.367188 -0.25 1.109375 -0.75 C 1.054688 -0.851562 1.015625 -0.957031 0.984375 -1.0625 C 0.953125 -1.164062 0.925781 -1.289062 0.90625 -1.4375 C 0.882812 -1.582031 0.867188 -1.757812 0.859375 -1.96875 C 0.859375 -2.1875 0.859375 -2.460938 0.859375 -2.796875 L 0.859375 -8.609375 C 0.859375 -8.941406 0.867188 -9.210938 0.890625 -9.421875 C 0.921875 -9.640625 0.972656 -9.820312 1.046875 -9.96875 C 1.128906 -10.113281 1.234375 -10.234375 1.359375 -10.328125 C 1.484375 -10.429688 1.660156 -10.523438 1.890625 -10.609375 C 2.097656 -10.679688 2.253906 -10.753906 2.359375 -10.828125 C 2.472656 -10.898438 2.554688 -11 2.609375 -11.125 C 2.660156 -11.257812 2.695312 -11.4375 2.71875 -11.65625 C 2.738281 -11.882812 2.75 -12.191406 2.75 -12.578125 L 2.75 -14.703125 C 2.75 -15.234375 2.773438 -15.664062 2.828125 -16 C 2.890625 -16.34375 3.007812 -16.609375 3.1875 -16.796875 C 3.375 -16.984375 3.632812 -17.109375 3.96875 -17.171875 C 4.300781 -17.234375 4.738281 -17.265625 5.28125 -17.265625 L 9.828125 -17.265625 C 10.484375 -17.265625 10.945312 -17.226562 11.21875 -17.15625 C 11.5 -17.082031 11.734375 -16.941406 11.921875 -16.734375 C 12.097656 -16.535156 12.21875 -16.296875 12.28125 -16.015625 C 12.34375 -15.742188 12.375 -15.285156 12.375 -14.640625 L 12.375 -12.625 C 12.375 -12.226562 12.375 -11.914062 12.375 -11.6875 C 12.382812 -11.46875 12.414062 -11.285156 12.46875 -11.140625 C 12.519531 -11.003906 12.59375 -10.898438 12.6875 -10.828125 C 12.78125 -10.765625 12.90625 -10.703125 13.0625 -10.640625 L 13.421875 -10.484375 C 13.671875 -10.390625 13.847656 -10.265625 13.953125 -10.109375 C 14.066406 -9.960938 14.140625 -9.738281 14.171875 -9.4375 C 14.171875 -9.375 14.171875 -9.300781 14.171875 -9.21875 C 14.171875 -9.144531 14.179688 -8.960938 14.203125 -8.671875 L 14.203125 -1.734375 C 14.203125 -1.234375 14.1875 -0.882812 14.15625 -0.6875 C 14.125 -0.488281 14.0625 -0.328125 13.96875 -0.203125 C 13.757812 0.0546875 13.484375 0.1875 13.140625 0.1875 C 12.710938 0.1875 12.421875 0.0507812 12.265625 -0.21875 C 12.109375 -0.488281 12.03125 -0.992188 12.03125 -1.734375 Z M 8.328125 -10.5 C 8.742188 -10.5 9.070312 -10.519531 9.3125 -10.5625 C 9.550781 -10.613281 9.734375 -10.71875 9.859375 -10.875 C 9.992188 -11.039062 10.078125 -11.273438 10.109375 -11.578125 C 10.148438 -11.878906 10.171875 -12.289062 10.171875 -12.8125 C 10.171875 -13.289062 10.148438 -13.679688 10.109375 -13.984375 C 10.066406 -14.285156 9.984375 -14.519531 9.859375 -14.6875 C 9.734375 -14.851562 9.554688 -14.957031 9.328125 -15 C 9.097656 -15.050781 8.789062 -15.078125 8.40625 -15.078125 L 6.75 -15.078125 C 6.351562 -15.078125 6.035156 -15.050781 5.796875 -15 C 5.554688 -14.957031 5.367188 -14.84375 5.234375 -14.65625 C 5.109375 -14.476562 5.023438 -14.21875 4.984375 -13.875 C 4.953125 -13.539062 4.9375 -13.09375 4.9375 -12.53125 C 4.9375 -12.070312 4.957031 -11.710938 5 -11.453125 C 5.050781 -11.203125 5.140625 -11.003906 5.265625 -10.859375 C 5.390625 -10.710938 5.570312 -10.613281 5.8125 -10.5625 C 6.0625 -10.519531 6.382812 -10.5 6.78125 -10.5 Z M 8.328125 -10.5 "/></g></g></g><g fill="#ffffff" fill-opacity="1"><g transform="translate(102.498873, 93.990893)"><g/></g></g><g fill="#ffffff" fill-opacity="1"><g transform="translate(111.349932, 93.990893)"><g/></g></g><g fill="#ffffff" fill-opacity="1"><g transform="translate(120.209222, 93.990893)"><g><path d="M 14.5625 -2.28125 C 14.5625 -1.738281 14.519531 -1.332031 14.4375 -1.0625 C 14.351562 -0.800781 14.207031 -0.578125 14 -0.390625 C 13.8125 -0.234375 13.585938 -0.128906 13.328125 -0.078125 C 13.066406 -0.0234375 12.625 0 12 0 L 3.359375 0 C 2.535156 0 1.972656 -0.160156 1.671875 -0.484375 C 1.367188 -0.816406 1.21875 -1.421875 1.21875 -2.296875 L 1.21875 -15.0625 C 1.21875 -15.90625 1.378906 -16.484375 1.703125 -16.796875 C 2.035156 -17.109375 2.660156 -17.265625 3.578125 -17.265625 L 12.296875 -17.265625 C 12.753906 -17.265625 13.132812 -17.226562 13.4375 -17.15625 C 13.738281 -17.082031 13.972656 -16.953125 14.140625 -16.765625 C 14.304688 -16.578125 14.414062 -16.316406 14.46875 -15.984375 C 14.53125 -15.660156 14.5625 -15.234375 14.5625 -14.703125 Z M 5.375 -15.109375 C 4.925781 -15.109375 4.570312 -15.082031 4.3125 -15.03125 C 4.0625 -14.976562 3.863281 -14.875 3.71875 -14.71875 C 3.582031 -14.5625 3.492188 -14.332031 3.453125 -14.03125 C 3.410156 -13.726562 3.390625 -13.328125 3.390625 -12.828125 C 3.390625 -12.398438 3.394531 -12.0625 3.40625 -11.8125 C 3.414062 -11.5625 3.445312 -11.363281 3.5 -11.21875 C 3.550781 -11.070312 3.625 -10.957031 3.71875 -10.875 C 3.8125 -10.800781 3.9375 -10.726562 4.09375 -10.65625 L 4.53125 -10.453125 C 4.738281 -10.367188 4.894531 -10.257812 5 -10.125 C 5.101562 -10 5.171875 -9.816406 5.203125 -9.578125 C 5.222656 -9.472656 5.234375 -9.351562 5.234375 -9.21875 C 5.242188 -9.09375 5.25 -8.789062 5.25 -8.3125 L 5.25 -4.421875 C 5.25 -3.921875 5.269531 -3.523438 5.3125 -3.234375 C 5.351562 -2.941406 5.457031 -2.71875 5.625 -2.5625 C 5.789062 -2.40625 6.023438 -2.304688 6.328125 -2.265625 C 6.628906 -2.222656 7.039062 -2.203125 7.5625 -2.203125 L 10.5625 -2.203125 C 10.957031 -2.203125 11.273438 -2.226562 11.515625 -2.28125 C 11.753906 -2.332031 11.9375 -2.429688 12.0625 -2.578125 C 12.195312 -2.722656 12.285156 -2.9375 12.328125 -3.21875 C 12.367188 -3.5 12.390625 -3.875 12.390625 -4.34375 L 12.390625 -12.421875 C 12.390625 -13.054688 12.375 -13.554688 12.34375 -13.921875 C 12.3125 -14.285156 12.222656 -14.550781 12.078125 -14.71875 C 11.941406 -14.894531 11.722656 -15.003906 11.421875 -15.046875 C 11.117188 -15.085938 10.707031 -15.109375 10.1875 -15.109375 Z M 5.375 -15.109375 "/></g></g></g><g fill="#ffffff" fill-opacity="1"><g transform="translate(139.471267, 93.990893)"><g/></g></g><g fill="#ffffff" fill-opacity="1"><g transform="translate(148.322326, 93.990893)"><g/></g></g><g fill="#ffffff" fill-opacity="1"><g transform="translate(157.181616, 93.990893)"><g><path d="M 5.25 -4.375 C 5.25 -3.875 5.269531 -3.476562 5.3125 -3.1875 C 5.351562 -2.90625 5.445312 -2.691406 5.59375 -2.546875 C 5.75 -2.398438 5.96875 -2.304688 6.25 -2.265625 C 6.53125 -2.222656 6.921875 -2.203125 7.421875 -2.203125 L 10.109375 -2.203125 C 10.734375 -2.203125 11.175781 -2.117188 11.4375 -1.953125 C 11.695312 -1.785156 11.828125 -1.503906 11.828125 -1.109375 C 11.828125 -0.710938 11.695312 -0.425781 11.4375 -0.25 C 11.175781 -0.0820312 10.742188 0 10.140625 0 L 3.546875 0 C 3.097656 0 2.722656 -0.03125 2.421875 -0.09375 C 2.117188 -0.164062 1.875 -0.285156 1.6875 -0.453125 C 1.507812 -0.617188 1.382812 -0.835938 1.3125 -1.109375 C 1.25 -1.390625 1.21875 -1.734375 1.21875 -2.140625 L 1.21875 -14.78125 C 1.21875 -15.28125 1.242188 -15.691406 1.296875 -16.015625 C 1.359375 -16.347656 1.476562 -16.601562 1.65625 -16.78125 C 1.832031 -16.957031 2.070312 -17.082031 2.375 -17.15625 C 2.675781 -17.226562 3.066406 -17.265625 3.546875 -17.265625 L 10.421875 -17.265625 C 11.335938 -17.265625 11.796875 -16.890625 11.796875 -16.140625 C 11.796875 -15.429688 11.335938 -15.078125 10.421875 -15.078125 L 5.28125 -15.078125 C 4.863281 -15.078125 4.53125 -15.050781 4.28125 -15 C 4.03125 -14.957031 3.835938 -14.847656 3.703125 -14.671875 C 3.578125 -14.492188 3.492188 -14.238281 3.453125 -13.90625 C 3.410156 -13.582031 3.390625 -13.15625 3.390625 -12.625 C 3.390625 -12.195312 3.410156 -11.84375 3.453125 -11.5625 C 3.492188 -11.289062 3.570312 -11.078125 3.6875 -10.921875 C 3.800781 -10.765625 3.957031 -10.660156 4.15625 -10.609375 C 4.351562 -10.554688 4.609375 -10.53125 4.921875 -10.53125 L 9.78125 -10.53125 C 10.226562 -10.53125 10.535156 -10.519531 10.703125 -10.5 C 10.878906 -10.488281 11.035156 -10.460938 11.171875 -10.421875 C 11.367188 -10.359375 11.523438 -10.234375 11.640625 -10.046875 C 11.765625 -9.867188 11.828125 -9.664062 11.828125 -9.4375 C 11.828125 -9.113281 11.71875 -8.851562 11.5 -8.65625 C 11.28125 -8.457031 11 -8.359375 10.65625 -8.359375 L 7.265625 -8.359375 C 6.804688 -8.359375 6.441406 -8.335938 6.171875 -8.296875 C 5.898438 -8.253906 5.695312 -8.140625 5.5625 -7.953125 C 5.425781 -7.773438 5.335938 -7.507812 5.296875 -7.15625 C 5.265625 -6.800781 5.25 -6.320312 5.25 -5.71875 Z M 5.25 -4.375 "/></g></g></g><g fill="#ffffff" fill-opacity="1"><g transform="translate(173.363605, 93.990893)"><g/></g></g><g fill="#ffffff" fill-opacity="1"><g transform="translate(182.214663, 93.990893)"><g/></g></g><g fill="#ffffff" fill-opacity="1"><g transform="translate(191.073954, 93.990893)"><g><path d="M 19.53125 -1.296875 C 19.53125 -0.304688 19.160156 0.1875 18.421875 0.1875 C 17.710938 0.1875 17.359375 -0.320312 17.359375 -1.34375 L 17.359375 -12.859375 C 17.359375 -13.378906 17.335938 -13.785156 17.296875 -14.078125 C 17.253906 -14.367188 17.160156 -14.59375 17.015625 -14.75 C 16.878906 -14.90625 16.664062 -15 16.375 -15.03125 C 16.082031 -15.0625 15.695312 -15.078125 15.21875 -15.078125 L 13.953125 -15.078125 C 13.515625 -15.078125 13.171875 -15.050781 12.921875 -15 C 12.671875 -14.957031 12.476562 -14.859375 12.34375 -14.703125 C 12.207031 -14.546875 12.113281 -14.316406 12.0625 -14.015625 C 12.019531 -13.722656 12 -13.335938 12 -12.859375 L 12 -1.3125 C 12 -0.3125 11.640625 0.1875 10.921875 0.1875 C 10.523438 0.1875 10.238281 0.0703125 10.0625 -0.15625 C 9.894531 -0.394531 9.8125 -0.765625 9.8125 -1.265625 L 9.8125 -12.828125 C 9.8125 -13.316406 9.785156 -13.707031 9.734375 -14 C 9.691406 -14.289062 9.609375 -14.519531 9.484375 -14.6875 C 9.359375 -14.851562 9.171875 -14.957031 8.921875 -15 C 8.679688 -15.050781 8.363281 -15.078125 7.96875 -15.078125 L 5.296875 -15.078125 C 4.921875 -15.078125 4.613281 -15.050781 4.375 -15 C 4.132812 -14.957031 3.941406 -14.859375 3.796875 -14.703125 C 3.660156 -14.546875 3.566406 -14.335938 3.515625 -14.078125 C 3.460938 -13.816406 3.4375 -13.476562 3.4375 -13.0625 L 3.4375 -12.234375 C 3.4375 -11.941406 3.445312 -11.707031 3.46875 -11.53125 C 3.5 -11.363281 3.546875 -11.21875 3.609375 -11.09375 C 3.671875 -10.976562 3.765625 -10.878906 3.890625 -10.796875 C 4.023438 -10.722656 4.195312 -10.644531 4.40625 -10.5625 C 4.757812 -10.414062 4.992188 -10.226562 5.109375 -10 C 5.222656 -9.78125 5.285156 -9.40625 5.296875 -8.875 L 5.296875 -2.328125 C 5.296875 -1.453125 5.148438 -0.84375 4.859375 -0.5 C 4.566406 -0.164062 4.035156 0 3.265625 0 C 2.484375 0 1.945312 -0.164062 1.65625 -0.5 C 1.363281 -0.84375 1.21875 -1.46875 1.21875 -2.375 L 1.21875 -14.71875 C 1.21875 -15.257812 1.25 -15.691406 1.3125 -16.015625 C 1.382812 -16.347656 1.515625 -16.601562 1.703125 -16.78125 C 1.898438 -16.957031 2.171875 -17.082031 2.515625 -17.15625 C 2.859375 -17.226562 3.304688 -17.265625 3.859375 -17.265625 L 16.96875 -17.265625 C 17.507812 -17.265625 17.945312 -17.234375 18.28125 -17.171875 C 18.613281 -17.109375 18.875 -16.984375 19.0625 -16.796875 C 19.257812 -16.609375 19.382812 -16.335938 19.4375 -15.984375 C 19.5 -15.640625 19.53125 -15.1875 19.53125 -14.625 Z M 19.53125 -1.296875 "/></g></g></g><g fill="#ffffff" fill-opacity="1"><g transform="translate(215.271096, 93.990893)"><g/></g></g><g fill="#ffffff" fill-opacity="1"><g transform="translate(224.122155, 93.990893)"><g/></g></g><g fill="#ffffff" fill-opacity="1"><g transform="translate(232.981445, 93.990893)"><g><path d="M 8.828125 -2.59375 C 8.828125 -2.125 8.804688 -1.753906 8.765625 -1.484375 C 8.734375 -1.222656 8.679688 -1.015625 8.609375 -0.859375 C 8.472656 -0.554688 8.265625 -0.335938 7.984375 -0.203125 C 7.710938 -0.0664062 7.335938 0 6.859375 0 C 6.441406 0 6.09375 -0.0351562 5.8125 -0.109375 C 5.539062 -0.191406 5.328125 -0.328125 5.171875 -0.515625 C 5.015625 -0.703125 4.90625 -0.957031 4.84375 -1.28125 C 4.789062 -1.613281 4.765625 -2.039062 4.765625 -2.5625 L 4.765625 -6.3125 C 4.765625 -6.738281 4.738281 -7.085938 4.6875 -7.359375 C 4.644531 -7.628906 4.566406 -7.835938 4.453125 -7.984375 C 4.347656 -8.128906 4.1875 -8.234375 3.96875 -8.296875 C 3.75 -8.359375 3.476562 -8.390625 3.15625 -8.390625 L 2.6875 -8.40625 C 2.289062 -8.40625 1.960938 -8.441406 1.703125 -8.515625 C 1.441406 -8.597656 1.238281 -8.734375 1.09375 -8.921875 C 0.945312 -9.117188 0.84375 -9.367188 0.78125 -9.671875 C 0.726562 -9.984375 0.703125 -10.390625 0.703125 -10.890625 L 0.703125 -15.828125 C 0.703125 -16.367188 0.785156 -16.753906 0.953125 -16.984375 C 1.128906 -17.222656 1.414062 -17.34375 1.8125 -17.34375 C 2.207031 -17.34375 2.484375 -17.226562 2.640625 -17 C 2.804688 -16.769531 2.890625 -16.378906 2.890625 -15.828125 L 2.890625 -12.5 C 2.890625 -12.0625 2.910156 -11.710938 2.953125 -11.453125 C 3.003906 -11.203125 3.109375 -11.003906 3.265625 -10.859375 C 3.421875 -10.722656 3.644531 -10.632812 3.9375 -10.59375 C 4.226562 -10.550781 4.625 -10.53125 5.125 -10.53125 L 8.515625 -10.53125 C 8.992188 -10.53125 9.378906 -10.550781 9.671875 -10.59375 C 9.960938 -10.632812 10.1875 -10.722656 10.34375 -10.859375 C 10.5 -11.003906 10.597656 -11.203125 10.640625 -11.453125 C 10.691406 -11.710938 10.71875 -12.0625 10.71875 -12.5 L 10.71875 -15.859375 C 10.71875 -16.390625 10.800781 -16.769531 10.96875 -17 C 11.144531 -17.226562 11.429688 -17.34375 11.828125 -17.34375 C 12.222656 -17.34375 12.5 -17.222656 12.65625 -16.984375 C 12.820312 -16.753906 12.90625 -16.363281 12.90625 -15.8125 L 12.90625 -10.875 C 12.90625 -10.382812 12.875 -9.976562 12.8125 -9.65625 C 12.757812 -9.34375 12.660156 -9.09375 12.515625 -8.90625 C 12.367188 -8.726562 12.171875 -8.597656 11.921875 -8.515625 C 11.671875 -8.429688 11.34375 -8.378906 10.9375 -8.359375 L 10.484375 -8.359375 C 10.140625 -8.335938 9.859375 -8.296875 9.640625 -8.234375 C 9.421875 -8.179688 9.25 -8.078125 9.125 -7.921875 C 9.007812 -7.773438 8.929688 -7.570312 8.890625 -7.3125 C 8.847656 -7.0625 8.828125 -6.726562 8.828125 -6.3125 Z M 8.828125 -2.59375 "/></g></g></g></svg>