<svg xmlns="http://www.w3.org/2000/svg" xmlns:xlink="http://www.w3.org/1999/xlink" width="350" zoomAndPan="magnify" viewBox="0 0 262.5 112.499997" height="150" preserveAspectRatio="xMidYMid meet" version="1.0"><defs><g/><clipPath id="5c2e8d51d8"><path d="M 0.332031 0 L 261.671875 0 L 261.671875 112.003906 L 0.332031 112.003906 Z M 0.332031 0 " clip-rule="nonzero"/></clipPath></defs><g clip-path="url(#5c2e8d51d8)"><path fill="#ffffff" d="M 0.332031 0 L 261.671875 0 L 261.671875 112.003906 L 0.332031 112.003906 Z M 0.332031 0 " fill-opacity="1" fill-rule="nonzero"/><path fill="#ffffff" d="M 0.332031 0 L 261.671875 0 L 261.671875 112.003906 L 0.332031 112.003906 Z M 0.332031 0 " fill-opacity="1" fill-rule="nonzero"/></g><g fill="#0350b6" fill-opacity="1"><g transform="translate(8.27127, 69.621463)"><g><path d="M 36.46875 -6.90625 C 36.46875 -5.53125 36.378906 -4.394531 36.203125 -3.5 C 36.023438 -2.601562 35.679688 -1.898438 35.171875 -1.390625 C 34.660156 -0.878906 33.972656 -0.519531 33.109375 -0.3125 C 32.242188 -0.101562 31.125 0 29.75 0 L 10.484375 0 C 9.046875 0 7.863281 -0.0703125 6.9375 -0.21875 C 6.019531 -0.375 5.320312 -0.703125 4.84375 -1.203125 C 4.363281 -1.710938 4.03125 -2.414062 3.84375 -3.3125 C 3.664062 -4.207031 3.578125 -5.40625 3.578125 -6.90625 L 3.578125 -35.21875 C 3.578125 -36.707031 3.648438 -37.914062 3.796875 -38.84375 C 3.953125 -39.769531 4.285156 -40.488281 4.796875 -41 C 5.304688 -41.507812 6.007812 -41.835938 6.90625 -41.984375 C 7.800781 -42.128906 8.992188 -42.203125 10.484375 -42.203125 L 25.8125 -42.203125 C 27.476562 -42.203125 28.578125 -42.484375 29.109375 -43.046875 C 29.648438 -43.617188 29.921875 -44.710938 29.921875 -46.328125 L 29.921875 -54.484375 C 29.921875 -56.578125 30.160156 -58.007812 30.640625 -58.78125 C 31.117188 -59.5625 31.957031 -59.953125 33.15625 -59.953125 C 34.46875 -59.953125 35.347656 -59.5625 35.796875 -58.78125 C 36.242188 -58.007812 36.46875 -56.578125 36.46875 -54.484375 Z M 14.875 -35.75 C 12.84375 -35.75 11.539062 -35.460938 10.96875 -34.890625 C 10.40625 -34.328125 10.125 -33.03125 10.125 -31 L 10.125 -28.5 C 10.125 -27.0625 10.300781 -26.085938 10.65625 -25.578125 C 11.019531 -25.078125 11.828125 -24.675781 13.078125 -24.375 C 14.335938 -24.019531 15.144531 -23.539062 15.5 -22.9375 C 15.863281 -22.34375 16.046875 -21.148438 16.046875 -19.359375 L 16.046875 -11.296875 C 16.046875 -10.210938 16.085938 -9.359375 16.171875 -8.734375 C 16.265625 -8.109375 16.488281 -7.628906 16.84375 -7.296875 C 17.207031 -6.972656 17.703125 -6.765625 18.328125 -6.671875 C 18.953125 -6.585938 19.800781 -6.546875 20.875 -6.546875 L 25.1875 -6.546875 C 26.195312 -6.546875 27.015625 -6.601562 27.640625 -6.71875 C 28.265625 -6.84375 28.753906 -7.066406 29.109375 -7.390625 C 29.472656 -7.722656 29.710938 -8.203125 29.828125 -8.828125 C 29.953125 -9.453125 30.015625 -10.273438 30.015625 -11.296875 L 30.015625 -31 C 30.015625 -33.03125 29.726562 -34.328125 29.15625 -34.890625 C 28.59375 -35.460938 27.296875 -35.75 25.265625 -35.75 Z M 14.875 -35.75 "/></g></g></g><g fill="#0350b6" fill-opacity="1"><g transform="translate(48.323224, 69.621463)"><g><path d="M 36.46875 -6.90625 C 36.46875 -5.40625 36.378906 -4.207031 36.203125 -3.3125 C 36.023438 -2.414062 35.695312 -1.710938 35.21875 -1.203125 C 34.738281 -0.703125 34.050781 -0.375 33.15625 -0.21875 C 32.257812 -0.0703125 31.066406 0 29.578125 0 L 10.484375 0 C 9.046875 0 7.863281 -0.0859375 6.9375 -0.265625 C 6.019531 -0.441406 5.320312 -0.769531 4.84375 -1.25 C 4.363281 -1.726562 4.03125 -2.429688 3.84375 -3.359375 C 3.664062 -4.285156 3.578125 -5.46875 3.578125 -6.90625 L 3.578125 -18.375 C 3.578125 -19.925781 3.648438 -21.164062 3.796875 -22.09375 C 3.953125 -23.019531 4.285156 -23.734375 4.796875 -24.234375 C 5.304688 -24.742188 6.007812 -25.070312 6.90625 -25.21875 C 7.800781 -25.375 8.992188 -25.453125 10.484375 -25.453125 L 25.1875 -25.453125 C 26.195312 -25.453125 27.015625 -25.507812 27.640625 -25.625 C 28.265625 -25.75 28.742188 -25.972656 29.078125 -26.296875 C 29.410156 -26.628906 29.632812 -27.109375 29.75 -27.734375 C 29.863281 -28.359375 29.921875 -29.179688 29.921875 -30.203125 L 29.921875 -31 C 29.921875 -32.019531 29.875 -32.84375 29.78125 -33.46875 C 29.695312 -34.09375 29.488281 -34.566406 29.15625 -34.890625 C 28.832031 -35.222656 28.359375 -35.4375 27.734375 -35.53125 C 27.109375 -35.625 26.257812 -35.671875 25.1875 -35.671875 L 14.421875 -35.671875 C 12.929688 -35.671875 11.898438 -35.519531 11.328125 -35.21875 C 10.765625 -34.914062 10.425781 -34.257812 10.3125 -33.25 L 10.125 -31.984375 C 9.820312 -30.015625 8.75 -29.03125 6.90625 -29.03125 C 5.644531 -29.03125 4.773438 -29.390625 4.296875 -30.109375 C 3.816406 -30.828125 3.578125 -32.140625 3.578125 -34.046875 L 3.578125 -35.125 C 3.578125 -36.675781 3.648438 -37.914062 3.796875 -38.84375 C 3.953125 -39.769531 4.285156 -40.488281 4.796875 -41 C 5.304688 -41.507812 6.007812 -41.835938 6.90625 -41.984375 C 7.800781 -42.128906 8.992188 -42.203125 10.484375 -42.203125 L 29.65625 -42.203125 C 31.15625 -42.203125 32.351562 -42.128906 33.25 -41.984375 C 34.144531 -41.835938 34.828125 -41.507812 35.296875 -41 C 35.773438 -40.488281 36.085938 -39.769531 36.234375 -38.84375 C 36.390625 -37.914062 36.46875 -36.675781 36.46875 -35.125 Z M 20.703125 -18.90625 C 18.671875 -18.90625 17.367188 -18.617188 16.796875 -18.046875 C 16.234375 -17.484375 15.953125 -16.1875 15.953125 -14.15625 L 15.953125 -11.296875 C 15.953125 -10.210938 15.992188 -9.359375 16.078125 -8.734375 C 16.171875 -8.109375 16.394531 -7.628906 16.75 -7.296875 C 17.113281 -6.972656 17.609375 -6.765625 18.234375 -6.671875 C 18.859375 -6.585938 19.710938 -6.546875 20.796875 -6.546875 L 25.1875 -6.546875 C 26.195312 -6.546875 27.015625 -6.601562 27.640625 -6.71875 C 28.265625 -6.84375 28.742188 -7.066406 29.078125 -7.390625 C 29.410156 -7.722656 29.632812 -8.1875 29.75 -8.78125 C 29.863281 -9.375 29.921875 -10.179688 29.921875 -11.203125 L 29.921875 -13.890625 C 29.921875 -15.023438 29.875 -15.921875 29.78125 -16.578125 C 29.695312 -17.234375 29.488281 -17.738281 29.15625 -18.09375 C 28.832031 -18.457031 28.359375 -18.679688 27.734375 -18.765625 C 27.109375 -18.859375 26.257812 -18.90625 25.1875 -18.90625 Z M 20.703125 -18.90625 "/></g></g></g><g fill="#0350b6" fill-opacity="1"><g transform="translate(88.375178, 69.621463)"><g><path d="M 6.625 -51.890625 C 6.625 -53.972656 6.863281 -55.414062 7.34375 -56.21875 C 7.820312 -57.03125 8.691406 -57.4375 9.953125 -57.4375 C 11.203125 -57.4375 12.066406 -57.046875 12.546875 -56.265625 C 13.023438 -55.492188 13.265625 -54.0625 13.265625 -51.96875 L 13.265625 -45.609375 C 13.265625 -44.171875 13.394531 -43.273438 13.65625 -42.921875 C 13.925781 -42.566406 14.628906 -42.359375 15.765625 -42.296875 C 18.515625 -42.234375 19.890625 -41.128906 19.890625 -38.984375 C 19.890625 -36.828125 18.632812 -35.722656 16.125 -35.671875 C 14.8125 -35.609375 13.988281 -35.394531 13.65625 -35.03125 C 13.332031 -34.675781 13.171875 -33.78125 13.171875 -32.34375 L 13.171875 -30.46875 C 13.171875 -29.03125 13.347656 -28.054688 13.703125 -27.546875 C 14.066406 -27.046875 14.875 -26.644531 16.125 -26.34375 C 17.382812 -25.988281 18.191406 -25.507812 18.546875 -24.90625 C 18.910156 -24.3125 19.09375 -23.117188 19.09375 -21.328125 L 19.09375 -7.609375 C 19.09375 -6.054688 19.015625 -4.785156 18.859375 -3.796875 C 18.710938 -2.816406 18.414062 -2.039062 17.96875 -1.46875 C 17.519531 -0.90625 16.90625 -0.519531 16.125 -0.3125 C 15.351562 -0.101562 14.335938 0 13.078125 0 C 11.234375 0 9.890625 -0.160156 9.046875 -0.484375 C 8.210938 -0.816406 7.585938 -1.460938 7.171875 -2.421875 C 6.929688 -2.898438 6.78125 -3.484375 6.71875 -4.171875 C 6.65625 -4.859375 6.625 -6.003906 6.625 -7.609375 L 6.625 -31.8125 L 6.546875 -33.328125 C 6.546875 -34.171875 6.410156 -34.722656 6.140625 -34.984375 C 5.867188 -35.253906 5.34375 -35.453125 4.5625 -35.578125 L 3.40625 -35.671875 C 1.132812 -35.847656 0 -36.921875 0 -38.890625 C 0 -41.097656 1.253906 -42.203125 3.765625 -42.203125 C 4.421875 -42.203125 4.941406 -42.242188 5.328125 -42.328125 C 5.722656 -42.421875 6.007812 -42.628906 6.1875 -42.953125 C 6.363281 -43.285156 6.476562 -43.765625 6.53125 -44.390625 C 6.59375 -45.023438 6.625 -45.878906 6.625 -46.953125 Z M 6.625 -51.890625 "/></g></g></g><g fill="#0350b6" fill-opacity="1"><g transform="translate(111.22361, 69.621463)"><g><path d="M 36.46875 -6.90625 C 36.46875 -5.40625 36.378906 -4.207031 36.203125 -3.3125 C 36.023438 -2.414062 35.695312 -1.710938 35.21875 -1.203125 C 34.738281 -0.703125 34.050781 -0.375 33.15625 -0.21875 C 32.257812 -0.0703125 31.066406 0 29.578125 0 L 10.484375 0 C 9.046875 0 7.863281 -0.0859375 6.9375 -0.265625 C 6.019531 -0.441406 5.320312 -0.769531 4.84375 -1.25 C 4.363281 -1.726562 4.03125 -2.429688 3.84375 -3.359375 C 3.664062 -4.285156 3.578125 -5.46875 3.578125 -6.90625 L 3.578125 -18.375 C 3.578125 -19.925781 3.648438 -21.164062 3.796875 -22.09375 C 3.953125 -23.019531 4.285156 -23.734375 4.796875 -24.234375 C 5.304688 -24.742188 6.007812 -25.070312 6.90625 -25.21875 C 7.800781 -25.375 8.992188 -25.453125 10.484375 -25.453125 L 25.1875 -25.453125 C 26.195312 -25.453125 27.015625 -25.507812 27.640625 -25.625 C 28.265625 -25.75 28.742188 -25.972656 29.078125 -26.296875 C 29.410156 -26.628906 29.632812 -27.109375 29.75 -27.734375 C 29.863281 -28.359375 29.921875 -29.179688 29.921875 -30.203125 L 29.921875 -31 C 29.921875 -32.019531 29.875 -32.84375 29.78125 -33.46875 C 29.695312 -34.09375 29.488281 -34.566406 29.15625 -34.890625 C 28.832031 -35.222656 28.359375 -35.4375 27.734375 -35.53125 C 27.109375 -35.625 26.257812 -35.671875 25.1875 -35.671875 L 14.421875 -35.671875 C 12.929688 -35.671875 11.898438 -35.519531 11.328125 -35.21875 C 10.765625 -34.914062 10.425781 -34.257812 10.3125 -33.25 L 10.125 -31.984375 C 9.820312 -30.015625 8.75 -29.03125 6.90625 -29.03125 C 5.644531 -29.03125 4.773438 -29.390625 4.296875 -30.109375 C 3.816406 -30.828125 3.578125 -32.140625 3.578125 -34.046875 L 3.578125 -35.125 C 3.578125 -36.675781 3.648438 -37.914062 3.796875 -38.84375 C 3.953125 -39.769531 4.285156 -40.488281 4.796875 -41 C 5.304688 -41.507812 6.007812 -41.835938 6.90625 -41.984375 C 7.800781 -42.128906 8.992188 -42.203125 10.484375 -42.203125 L 29.65625 -42.203125 C 31.15625 -42.203125 32.351562 -42.128906 33.25 -41.984375 C 34.144531 -41.835938 34.828125 -41.507812 35.296875 -41 C 35.773438 -40.488281 36.085938 -39.769531 36.234375 -38.84375 C 36.390625 -37.914062 36.46875 -36.675781 36.46875 -35.125 Z M 20.703125 -18.90625 C 18.671875 -18.90625 17.367188 -18.617188 16.796875 -18.046875 C 16.234375 -17.484375 15.953125 -16.1875 15.953125 -14.15625 L 15.953125 -11.296875 C 15.953125 -10.210938 15.992188 -9.359375 16.078125 -8.734375 C 16.171875 -8.109375 16.394531 -7.628906 16.75 -7.296875 C 17.113281 -6.972656 17.609375 -6.765625 18.234375 -6.671875 C 18.859375 -6.585938 19.710938 -6.546875 20.796875 -6.546875 L 25.1875 -6.546875 C 26.195312 -6.546875 27.015625 -6.601562 27.640625 -6.71875 C 28.265625 -6.84375 28.742188 -7.066406 29.078125 -7.390625 C 29.410156 -7.722656 29.632812 -8.1875 29.75 -8.78125 C 29.863281 -9.375 29.921875 -10.179688 29.921875 -11.203125 L 29.921875 -13.890625 C 29.921875 -15.023438 29.875 -15.921875 29.78125 -16.578125 C 29.695312 -17.234375 29.488281 -17.738281 29.15625 -18.09375 C 28.832031 -18.457031 28.359375 -18.679688 27.734375 -18.765625 C 27.109375 -18.859375 26.257812 -18.90625 25.1875 -18.90625 Z M 20.703125 -18.90625 "/></g></g></g><g fill="#0350b6" fill-opacity="1"><g transform="translate(193.804762, 69.621463)"><g><path d="M 36.46875 -6.90625 C 36.46875 -5.40625 36.378906 -4.207031 36.203125 -3.3125 C 36.023438 -2.414062 35.695312 -1.710938 35.21875 -1.203125 C 34.738281 -0.703125 34.050781 -0.375 33.15625 -0.21875 C 32.257812 -0.0703125 31.066406 0 29.578125 0 L 10.484375 0 C 9.046875 0 7.863281 -0.0859375 6.9375 -0.265625 C 6.019531 -0.441406 5.320312 -0.769531 4.84375 -1.25 C 4.363281 -1.726562 4.03125 -2.429688 3.84375 -3.359375 C 3.664062 -4.285156 3.578125 -5.46875 3.578125 -6.90625 L 3.578125 -18.375 C 3.578125 -19.925781 3.648438 -21.164062 3.796875 -22.09375 C 3.953125 -23.019531 4.285156 -23.734375 4.796875 -24.234375 C 5.304688 -24.742188 6.007812 -25.070312 6.90625 -25.21875 C 7.800781 -25.375 8.992188 -25.453125 10.484375 -25.453125 L 25.1875 -25.453125 C 26.195312 -25.453125 27.015625 -25.507812 27.640625 -25.625 C 28.265625 -25.75 28.742188 -25.972656 29.078125 -26.296875 C 29.410156 -26.628906 29.632812 -27.109375 29.75 -27.734375 C 29.863281 -28.359375 29.921875 -29.179688 29.921875 -30.203125 L 29.921875 -31 C 29.921875 -32.019531 29.875 -32.84375 29.78125 -33.46875 C 29.695312 -34.09375 29.488281 -34.566406 29.15625 -34.890625 C 28.832031 -35.222656 28.359375 -35.4375 27.734375 -35.53125 C 27.109375 -35.625 26.257812 -35.671875 25.1875 -35.671875 L 14.421875 -35.671875 C 12.929688 -35.671875 11.898438 -35.519531 11.328125 -35.21875 C 10.765625 -34.914062 10.425781 -34.257812 10.3125 -33.25 L 10.125 -31.984375 C 9.820312 -30.015625 8.75 -29.03125 6.90625 -29.03125 C 5.644531 -29.03125 4.773438 -29.390625 4.296875 -30.109375 C 3.816406 -30.828125 3.578125 -32.140625 3.578125 -34.046875 L 3.578125 -35.125 C 3.578125 -36.675781 3.648438 -37.914062 3.796875 -38.84375 C 3.953125 -39.769531 4.285156 -40.488281 4.796875 -41 C 5.304688 -41.507812 6.007812 -41.835938 6.90625 -41.984375 C 7.800781 -42.128906 8.992188 -42.203125 10.484375 -42.203125 L 29.65625 -42.203125 C 31.15625 -42.203125 32.351562 -42.128906 33.25 -41.984375 C 34.144531 -41.835938 34.828125 -41.507812 35.296875 -41 C 35.773438 -40.488281 36.085938 -39.769531 36.234375 -38.84375 C 36.390625 -37.914062 36.46875 -36.675781 36.46875 -35.125 Z M 20.703125 -18.90625 C 18.671875 -18.90625 17.367188 -18.617188 16.796875 -18.046875 C 16.234375 -17.484375 15.953125 -16.1875 15.953125 -14.15625 L 15.953125 -11.296875 C 15.953125 -10.210938 15.992188 -9.359375 16.078125 -8.734375 C 16.171875 -8.109375 16.394531 -7.628906 16.75 -7.296875 C 17.113281 -6.972656 17.609375 -6.765625 18.234375 -6.671875 C 18.859375 -6.585938 19.710938 -6.546875 20.796875 -6.546875 L 25.1875 -6.546875 C 26.195312 -6.546875 27.015625 -6.601562 27.640625 -6.71875 C 28.265625 -6.84375 28.742188 -7.066406 29.078125 -7.390625 C 29.410156 -7.722656 29.632812 -8.1875 29.75 -8.78125 C 29.863281 -9.375 29.921875 -10.179688 29.921875 -11.203125 L 29.921875 -13.890625 C 29.921875 -15.023438 29.875 -15.921875 29.78125 -16.578125 C 29.695312 -17.234375 29.488281 -17.738281 29.15625 -18.09375 C 28.832031 -18.457031 28.359375 -18.679688 27.734375 -18.765625 C 27.109375 -18.859375 26.257812 -18.90625 25.1875 -18.90625 Z M 20.703125 -18.90625 "/></g></g></g><g fill="#0350b6" fill-opacity="1"><g transform="translate(233.856716, 69.621463)"><g><path d="M 16.046875 -54.484375 C 16.046875 -52.390625 15.609375 -50.9375 14.734375 -50.125 C 13.867188 -49.320312 12.242188 -48.921875 9.859375 -48.921875 C 7.347656 -48.921875 5.660156 -49.28125 4.796875 -50 C 3.929688 -50.71875 3.5 -52.09375 3.5 -54.125 C 3.5 -56.269531 3.957031 -57.757812 4.875 -58.59375 C 5.800781 -59.4375 7.519531 -59.859375 10.03125 -59.859375 C 12.300781 -59.859375 13.867188 -59.484375 14.734375 -58.734375 C 15.609375 -57.992188 16.046875 -56.578125 16.046875 -54.484375 Z M 16.046875 -7.609375 C 16.046875 -6.054688 15.96875 -4.785156 15.8125 -3.796875 C 15.664062 -2.816406 15.367188 -2.039062 14.921875 -1.46875 C 14.472656 -0.90625 13.859375 -0.519531 13.078125 -0.3125 C 12.304688 -0.101562 11.289062 0 10.03125 0 C 8.1875 0 6.859375 -0.160156 6.046875 -0.484375 C 5.242188 -0.816406 4.601562 -1.460938 4.125 -2.421875 C 3.882812 -2.898438 3.734375 -3.484375 3.671875 -4.171875 C 3.609375 -4.859375 3.578125 -6.003906 3.578125 -7.609375 L 3.578125 -36.921875 C 3.578125 -39.015625 3.816406 -40.445312 4.296875 -41.21875 C 4.773438 -42 5.644531 -42.390625 6.90625 -42.390625 C 8.09375 -42.390625 8.925781 -42 9.40625 -41.21875 C 9.882812 -40.445312 10.125 -39.015625 10.125 -36.921875 L 10.125 -30.46875 C 10.125 -29.03125 10.300781 -28.054688 10.65625 -27.546875 C 11.019531 -27.046875 11.828125 -26.644531 13.078125 -26.34375 C 14.335938 -25.988281 15.144531 -25.507812 15.5 -24.90625 C 15.863281 -24.3125 16.046875 -23.117188 16.046875 -21.328125 Z M 16.046875 -7.609375 "/></g></g></g><g fill="#000000" fill-opacity="1"><g transform="translate(148.447981, 69.621463)"><g><path d="M 28.578125 -16.75 L 28.578125 0 L 19.265625 0 L 19.265625 -16.75 L 2.78125 -16.75 L 2.78125 -25.359375 L 19.265625 -25.359375 L 19.265625 -42.203125 L 28.578125 -42.203125 L 28.578125 -25.359375 L 44.890625 -25.359375 L 44.890625 -16.75 Z M 28.578125 -16.75 "/></g></g></g><g fill="#000000" fill-opacity="1"><g transform="translate(11.532083, 98.810787)"><g><path d="M 0.890625 0 L 0.890625 -8.359375 L 3.828125 -8.359375 C 4.410156 -8.359375 4.894531 -8.265625 5.28125 -8.078125 C 5.675781 -7.898438 5.96875 -7.648438 6.15625 -7.328125 C 6.34375 -7.003906 6.4375 -6.640625 6.4375 -6.234375 C 6.4375 -5.691406 6.289062 -5.265625 6 -4.953125 C 5.707031 -4.648438 5.359375 -4.4375 4.953125 -4.3125 C 5.265625 -4.257812 5.546875 -4.132812 5.796875 -3.9375 C 6.054688 -3.75 6.257812 -3.507812 6.40625 -3.21875 C 6.5625 -2.9375 6.640625 -2.625 6.640625 -2.28125 C 6.640625 -1.863281 6.535156 -1.476562 6.328125 -1.125 C 6.117188 -0.78125 5.8125 -0.503906 5.40625 -0.296875 C 5 -0.0976562 4.503906 0 3.921875 0 Z M 1.890625 -4.703125 L 3.75 -4.703125 C 4.28125 -4.703125 4.691406 -4.828125 4.984375 -5.078125 C 5.273438 -5.335938 5.421875 -5.6875 5.421875 -6.125 C 5.421875 -6.550781 5.273438 -6.890625 4.984375 -7.140625 C 4.703125 -7.398438 4.28125 -7.53125 3.71875 -7.53125 L 1.890625 -7.53125 Z M 1.890625 -0.84375 L 3.8125 -0.84375 C 4.382812 -0.84375 4.828125 -0.972656 5.140625 -1.234375 C 5.453125 -1.503906 5.609375 -1.878906 5.609375 -2.359375 C 5.609375 -2.828125 5.441406 -3.203125 5.109375 -3.484375 C 4.785156 -3.765625 4.347656 -3.90625 3.796875 -3.90625 L 1.890625 -3.90625 Z M 1.890625 -0.84375 "/></g></g></g><g fill="#000000" fill-opacity="1"><g transform="translate(21.531671, 98.810787)"><g><path d="M 2.984375 0.140625 C 2.285156 0.140625 1.726562 -0.0703125 1.3125 -0.5 C 0.894531 -0.925781 0.6875 -1.582031 0.6875 -2.46875 L 0.6875 -5.921875 L 1.703125 -5.921875 L 1.703125 -2.5625 C 1.703125 -1.332031 2.207031 -0.71875 3.21875 -0.71875 C 3.738281 -0.71875 4.164062 -0.898438 4.5 -1.265625 C 4.84375 -1.640625 5.015625 -2.171875 5.015625 -2.859375 L 5.015625 -5.921875 L 6.015625 -5.921875 L 6.015625 0 L 5.109375 0 L 5.03125 -1.0625 C 4.84375 -0.6875 4.566406 -0.390625 4.203125 -0.171875 C 3.847656 0.0351562 3.441406 0.140625 2.984375 0.140625 Z M 2.984375 0.140625 "/></g></g></g><g fill="#000000" fill-opacity="1"><g transform="translate(31.172855, 98.810787)"><g><path d="M 1.4375 -7.25 C 1.238281 -7.25 1.070312 -7.3125 0.9375 -7.4375 C 0.800781 -7.570312 0.734375 -7.738281 0.734375 -7.9375 C 0.734375 -8.125 0.800781 -8.28125 0.9375 -8.40625 C 1.070312 -8.539062 1.238281 -8.609375 1.4375 -8.609375 C 1.625 -8.609375 1.785156 -8.539062 1.921875 -8.40625 C 2.054688 -8.28125 2.125 -8.125 2.125 -7.9375 C 2.125 -7.738281 2.054688 -7.570312 1.921875 -7.4375 C 1.785156 -7.3125 1.625 -7.25 1.4375 -7.25 Z M 0.9375 0 L 0.9375 -5.921875 L 1.9375 -5.921875 L 1.9375 0 Z M 0.9375 0 "/></g></g></g><g fill="#000000" fill-opacity="1"><g transform="translate(36.835707, 98.810787)"><g><path d="M 0.828125 0 L 0.828125 -8.609375 L 1.828125 -8.609375 L 1.828125 0 Z M 0.828125 0 "/></g></g></g><g fill="#000000" fill-opacity="1"><g transform="translate(42.295461, 98.810787)"><g><path d="M 3.515625 0.140625 C 2.921875 0.140625 2.398438 0.00390625 1.953125 -0.265625 C 1.515625 -0.535156 1.175781 -0.90625 0.9375 -1.375 C 0.695312 -1.84375 0.578125 -2.375 0.578125 -2.96875 C 0.578125 -3.570312 0.695312 -4.101562 0.9375 -4.5625 C 1.1875 -5.03125 1.53125 -5.398438 1.96875 -5.671875 C 2.40625 -5.941406 2.925781 -6.078125 3.53125 -6.078125 C 4.007812 -6.078125 4.4375 -5.972656 4.8125 -5.765625 C 5.1875 -5.566406 5.476562 -5.289062 5.6875 -4.9375 L 5.6875 -8.609375 L 6.6875 -8.609375 L 6.6875 0 L 5.78125 0 L 5.6875 -0.984375 C 5.5 -0.691406 5.222656 -0.429688 4.859375 -0.203125 C 4.503906 0.0234375 4.054688 0.140625 3.515625 0.140625 Z M 3.625 -0.734375 C 4.019531 -0.734375 4.367188 -0.828125 4.671875 -1.015625 C 4.984375 -1.203125 5.222656 -1.460938 5.390625 -1.796875 C 5.566406 -2.128906 5.65625 -2.519531 5.65625 -2.96875 C 5.65625 -3.414062 5.566406 -3.804688 5.390625 -4.140625 C 5.222656 -4.472656 4.984375 -4.734375 4.671875 -4.921875 C 4.367188 -5.109375 4.019531 -5.203125 3.625 -5.203125 C 3.226562 -5.203125 2.875 -5.109375 2.5625 -4.921875 C 2.257812 -4.734375 2.023438 -4.472656 1.859375 -4.140625 C 1.691406 -3.804688 1.609375 -3.414062 1.609375 -2.96875 C 1.609375 -2.519531 1.691406 -2.128906 1.859375 -1.796875 C 2.023438 -1.460938 2.257812 -1.203125 2.5625 -1.015625 C 2.875 -0.828125 3.226562 -0.734375 3.625 -0.734375 Z M 3.625 -0.734375 "/></g></g></g><g fill="#000000" fill-opacity="1"><g transform="translate(52.60567, 98.810787)"><g/></g></g><g fill="#000000" fill-opacity="1"><g transform="translate(58.579144, 98.810787)"><g><path d="M 3.171875 0 C 2.628906 0 2.203125 -0.128906 1.890625 -0.390625 C 1.578125 -0.648438 1.421875 -1.125 1.421875 -1.8125 L 1.421875 -5.078125 L 0.390625 -5.078125 L 0.390625 -5.921875 L 1.421875 -5.921875 L 1.546875 -7.34375 L 2.421875 -7.34375 L 2.421875 -5.921875 L 4.171875 -5.921875 L 4.171875 -5.078125 L 2.421875 -5.078125 L 2.421875 -1.8125 C 2.421875 -1.4375 2.492188 -1.179688 2.640625 -1.046875 C 2.796875 -0.921875 3.066406 -0.859375 3.453125 -0.859375 L 4.078125 -0.859375 L 4.078125 0 Z M 3.171875 0 "/></g></g></g><g fill="#000000" fill-opacity="1"><g transform="translate(66.010148, 98.810787)"><g><path d="M 3.53125 0.140625 C 2.96875 0.140625 2.460938 0.015625 2.015625 -0.234375 C 1.566406 -0.492188 1.210938 -0.851562 0.953125 -1.3125 C 0.703125 -1.78125 0.578125 -2.332031 0.578125 -2.96875 C 0.578125 -3.59375 0.707031 -4.140625 0.96875 -4.609375 C 1.226562 -5.078125 1.582031 -5.4375 2.03125 -5.6875 C 2.488281 -5.945312 2.992188 -6.078125 3.546875 -6.078125 C 4.109375 -6.078125 4.609375 -5.945312 5.046875 -5.6875 C 5.492188 -5.4375 5.847656 -5.078125 6.109375 -4.609375 C 6.367188 -4.140625 6.5 -3.59375 6.5 -2.96875 C 6.5 -2.332031 6.367188 -1.78125 6.109375 -1.3125 C 5.847656 -0.851562 5.488281 -0.492188 5.03125 -0.234375 C 4.582031 0.015625 4.082031 0.140625 3.53125 0.140625 Z M 3.53125 -0.71875 C 3.875 -0.71875 4.191406 -0.800781 4.484375 -0.96875 C 4.773438 -1.132812 5.007812 -1.382812 5.1875 -1.71875 C 5.375 -2.050781 5.46875 -2.46875 5.46875 -2.96875 C 5.46875 -3.457031 5.378906 -3.867188 5.203125 -4.203125 C 5.023438 -4.535156 4.785156 -4.785156 4.484375 -4.953125 C 4.191406 -5.128906 3.878906 -5.21875 3.546875 -5.21875 C 3.203125 -5.21875 2.882812 -5.128906 2.59375 -4.953125 C 2.300781 -4.785156 2.0625 -4.535156 1.875 -4.203125 C 1.695312 -3.867188 1.609375 -3.457031 1.609375 -2.96875 C 1.609375 -2.46875 1.695312 -2.050781 1.875 -1.71875 C 2.0625 -1.382812 2.300781 -1.132812 2.59375 -0.96875 C 2.882812 -0.800781 3.195312 -0.71875 3.53125 -0.71875 Z M 3.53125 -0.71875 "/></g></g></g><g fill="#000000" fill-opacity="1"><g transform="translate(75.890266, 98.810787)"><g/></g></g><g fill="#000000" fill-opacity="1"><g transform="translate(81.86374, 98.810787)"><g><path d="M 0.890625 0 L 0.890625 -8.359375 L 1.890625 -8.359375 L 1.890625 -0.796875 L 5.78125 -0.796875 L 5.78125 0 Z M 0.890625 0 "/></g></g></g><g fill="#000000" fill-opacity="1"><g transform="translate(90.943422, 98.810787)"><g><path d="M 3.484375 0.140625 C 2.921875 0.140625 2.421875 0.0078125 1.984375 -0.25 C 1.546875 -0.507812 1.203125 -0.867188 0.953125 -1.328125 C 0.703125 -1.785156 0.578125 -2.332031 0.578125 -2.96875 C 0.578125 -3.582031 0.695312 -4.125 0.9375 -4.59375 C 1.1875 -5.0625 1.53125 -5.425781 1.96875 -5.6875 C 2.414062 -5.945312 2.929688 -6.078125 3.515625 -6.078125 C 4.085938 -6.078125 4.582031 -5.945312 5 -5.6875 C 5.414062 -5.425781 5.734375 -5.082031 5.953125 -4.65625 C 6.179688 -4.238281 6.296875 -3.785156 6.296875 -3.296875 C 6.296875 -3.210938 6.289062 -3.125 6.28125 -3.03125 C 6.28125 -2.945312 6.28125 -2.847656 6.28125 -2.734375 L 1.5625 -2.734375 C 1.59375 -2.285156 1.695312 -1.910156 1.875 -1.609375 C 2.0625 -1.304688 2.296875 -1.078125 2.578125 -0.921875 C 2.867188 -0.773438 3.171875 -0.703125 3.484375 -0.703125 C 3.898438 -0.703125 4.25 -0.796875 4.53125 -0.984375 C 4.8125 -1.179688 5.015625 -1.441406 5.140625 -1.765625 L 6.125 -1.765625 C 5.96875 -1.210938 5.664062 -0.753906 5.21875 -0.390625 C 4.769531 -0.0351562 4.191406 0.140625 3.484375 0.140625 Z M 3.484375 -5.21875 C 3.003906 -5.21875 2.578125 -5.070312 2.203125 -4.78125 C 1.835938 -4.488281 1.628906 -4.066406 1.578125 -3.515625 L 5.3125 -3.515625 C 5.28125 -4.046875 5.09375 -4.460938 4.75 -4.765625 C 4.414062 -5.066406 3.992188 -5.21875 3.484375 -5.21875 Z M 3.484375 -5.21875 "/></g></g></g><g fill="#000000" fill-opacity="1"><g transform="translate(100.548764, 98.810787)"><g><path d="M 2.796875 0.140625 C 2.304688 0.140625 1.894531 0.0546875 1.5625 -0.109375 C 1.238281 -0.273438 0.992188 -0.492188 0.828125 -0.765625 C 0.671875 -1.046875 0.59375 -1.351562 0.59375 -1.6875 C 0.59375 -2.289062 0.820312 -2.753906 1.28125 -3.078125 C 1.75 -3.410156 2.378906 -3.578125 3.171875 -3.578125 L 4.78125 -3.578125 L 4.78125 -3.640625 C 4.78125 -4.160156 4.644531 -4.550781 4.375 -4.8125 C 4.101562 -5.082031 3.738281 -5.21875 3.28125 -5.21875 C 2.894531 -5.21875 2.5625 -5.117188 2.28125 -4.921875 C 2 -4.734375 1.820312 -4.453125 1.75 -4.078125 L 0.71875 -4.078125 C 0.757812 -4.503906 0.90625 -4.863281 1.15625 -5.15625 C 1.40625 -5.457031 1.71875 -5.6875 2.09375 -5.84375 C 2.46875 -6 2.863281 -6.078125 3.28125 -6.078125 C 4.113281 -6.078125 4.738281 -5.851562 5.15625 -5.40625 C 5.570312 -4.96875 5.78125 -4.378906 5.78125 -3.640625 L 5.78125 0 L 4.890625 0 L 4.828125 -1.0625 C 4.660156 -0.726562 4.414062 -0.441406 4.09375 -0.203125 C 3.769531 0.0234375 3.335938 0.140625 2.796875 0.140625 Z M 2.953125 -0.703125 C 3.335938 -0.703125 3.664062 -0.800781 3.9375 -1 C 4.207031 -1.195312 4.414062 -1.457031 4.5625 -1.78125 C 4.707031 -2.101562 4.78125 -2.4375 4.78125 -2.78125 L 4.78125 -2.796875 L 3.265625 -2.796875 C 2.671875 -2.796875 2.253906 -2.691406 2.015625 -2.484375 C 1.773438 -2.285156 1.65625 -2.035156 1.65625 -1.734375 C 1.65625 -1.421875 1.765625 -1.171875 1.984375 -0.984375 C 2.210938 -0.796875 2.535156 -0.703125 2.953125 -0.703125 Z M 2.953125 -0.703125 "/></g></g></g><g fill="#000000" fill-opacity="1"><g transform="translate(109.819588, 98.810787)"><g><path d="M 0.828125 0 L 0.828125 -5.921875 L 1.734375 -5.921875 L 1.8125 -4.796875 C 2 -5.179688 2.28125 -5.488281 2.65625 -5.71875 C 3.03125 -5.957031 3.492188 -6.078125 4.046875 -6.078125 L 4.046875 -5.015625 L 3.765625 -5.015625 C 3.410156 -5.015625 3.085938 -4.953125 2.796875 -4.828125 C 2.503906 -4.710938 2.269531 -4.503906 2.09375 -4.203125 C 1.914062 -3.910156 1.828125 -3.503906 1.828125 -2.984375 L 1.828125 0 Z M 0.828125 0 "/></g></g></g><g fill="#000000" fill-opacity="1"><g transform="translate(116.963865, 98.810787)"><g><path d="M 0.828125 0 L 0.828125 -5.921875 L 1.734375 -5.921875 L 1.796875 -4.859375 C 1.984375 -5.234375 2.253906 -5.53125 2.609375 -5.75 C 2.972656 -5.96875 3.382812 -6.078125 3.84375 -6.078125 C 4.539062 -6.078125 5.097656 -5.863281 5.515625 -5.4375 C 5.929688 -5.007812 6.140625 -4.351562 6.140625 -3.46875 L 6.140625 0 L 5.140625 0 L 5.140625 -3.359375 C 5.140625 -4.597656 4.628906 -5.21875 3.609375 -5.21875 C 3.097656 -5.21875 2.671875 -5.03125 2.328125 -4.65625 C 1.992188 -4.28125 1.828125 -3.753906 1.828125 -3.078125 L 1.828125 0 Z M 0.828125 0 "/></g></g></g><g fill="#000000" fill-opacity="1"><g transform="translate(126.605051, 98.810787)"><g><path d="M 1.171875 0.0625 C 0.972656 0.0625 0.804688 0 0.671875 -0.125 C 0.546875 -0.257812 0.484375 -0.425781 0.484375 -0.625 C 0.484375 -0.8125 0.546875 -0.96875 0.671875 -1.09375 C 0.804688 -1.226562 0.972656 -1.296875 1.171875 -1.296875 C 1.359375 -1.296875 1.519531 -1.226562 1.65625 -1.09375 C 1.789062 -0.96875 1.859375 -0.8125 1.859375 -0.625 C 1.859375 -0.425781 1.789062 -0.257812 1.65625 -0.125 C 1.519531 0 1.359375 0.0625 1.171875 0.0625 Z M 1.171875 0.0625 "/></g></g></g><g fill="#000000" fill-opacity="1"><g transform="translate(131.742245, 98.810787)"><g><path d="M 0.890625 0 L 0.890625 -8.359375 L 1.890625 -8.359375 L 1.890625 -0.796875 L 5.78125 -0.796875 L 5.78125 0 Z M 0.890625 0 "/></g></g></g><g fill="#000000" fill-opacity="1"><g transform="translate(140.821927, 98.810787)"><g><path d="M 3.484375 0.140625 C 2.921875 0.140625 2.421875 0.0078125 1.984375 -0.25 C 1.546875 -0.507812 1.203125 -0.867188 0.953125 -1.328125 C 0.703125 -1.785156 0.578125 -2.332031 0.578125 -2.96875 C 0.578125 -3.582031 0.695312 -4.125 0.9375 -4.59375 C 1.1875 -5.0625 1.53125 -5.425781 1.96875 -5.6875 C 2.414062 -5.945312 2.929688 -6.078125 3.515625 -6.078125 C 4.085938 -6.078125 4.582031 -5.945312 5 -5.6875 C 5.414062 -5.425781 5.734375 -5.082031 5.953125 -4.65625 C 6.179688 -4.238281 6.296875 -3.785156 6.296875 -3.296875 C 6.296875 -3.210938 6.289062 -3.125 6.28125 -3.03125 C 6.28125 -2.945312 6.28125 -2.847656 6.28125 -2.734375 L 1.5625 -2.734375 C 1.59375 -2.285156 1.695312 -1.910156 1.875 -1.609375 C 2.0625 -1.304688 2.296875 -1.078125 2.578125 -0.921875 C 2.867188 -0.773438 3.171875 -0.703125 3.484375 -0.703125 C 3.898438 -0.703125 4.25 -0.796875 4.53125 -0.984375 C 4.8125 -1.179688 5.015625 -1.441406 5.140625 -1.765625 L 6.125 -1.765625 C 5.96875 -1.210938 5.664062 -0.753906 5.21875 -0.390625 C 4.769531 -0.0351562 4.191406 0.140625 3.484375 0.140625 Z M 3.484375 -5.21875 C 3.003906 -5.21875 2.578125 -5.070312 2.203125 -4.78125 C 1.835938 -4.488281 1.628906 -4.066406 1.578125 -3.515625 L 5.3125 -3.515625 C 5.28125 -4.046875 5.09375 -4.460938 4.75 -4.765625 C 4.414062 -5.066406 3.992188 -5.21875 3.484375 -5.21875 Z M 3.484375 -5.21875 "/></g></g></g><g fill="#000000" fill-opacity="1"><g transform="translate(150.427269, 98.810787)"><g><path d="M 2.796875 0.140625 C 2.304688 0.140625 1.894531 0.0546875 1.5625 -0.109375 C 1.238281 -0.273438 0.992188 -0.492188 0.828125 -0.765625 C 0.671875 -1.046875 0.59375 -1.351562 0.59375 -1.6875 C 0.59375 -2.289062 0.820312 -2.753906 1.28125 -3.078125 C 1.75 -3.410156 2.378906 -3.578125 3.171875 -3.578125 L 4.78125 -3.578125 L 4.78125 -3.640625 C 4.78125 -4.160156 4.644531 -4.550781 4.375 -4.8125 C 4.101562 -5.082031 3.738281 -5.21875 3.28125 -5.21875 C 2.894531 -5.21875 2.5625 -5.117188 2.28125 -4.921875 C 2 -4.734375 1.820312 -4.453125 1.75 -4.078125 L 0.71875 -4.078125 C 0.757812 -4.503906 0.90625 -4.863281 1.15625 -5.15625 C 1.40625 -5.457031 1.71875 -5.6875 2.09375 -5.84375 C 2.46875 -6 2.863281 -6.078125 3.28125 -6.078125 C 4.113281 -6.078125 4.738281 -5.851562 5.15625 -5.40625 C 5.570312 -4.96875 5.78125 -4.378906 5.78125 -3.640625 L 5.78125 0 L 4.890625 0 L 4.828125 -1.0625 C 4.660156 -0.726562 4.414062 -0.441406 4.09375 -0.203125 C 3.769531 0.0234375 3.335938 0.140625 2.796875 0.140625 Z M 2.953125 -0.703125 C 3.335938 -0.703125 3.664062 -0.800781 3.9375 -1 C 4.207031 -1.195312 4.414062 -1.457031 4.5625 -1.78125 C 4.707031 -2.101562 4.78125 -2.4375 4.78125 -2.78125 L 4.78125 -2.796875 L 3.265625 -2.796875 C 2.671875 -2.796875 2.253906 -2.691406 2.015625 -2.484375 C 1.773438 -2.285156 1.65625 -2.035156 1.65625 -1.734375 C 1.65625 -1.421875 1.765625 -1.171875 1.984375 -0.984375 C 2.210938 -0.796875 2.535156 -0.703125 2.953125 -0.703125 Z M 2.953125 -0.703125 "/></g></g></g><g fill="#000000" fill-opacity="1"><g transform="translate(159.698099, 98.810787)"><g><path d="M 0.828125 0 L 0.828125 -5.921875 L 1.734375 -5.921875 L 1.8125 -4.796875 C 2 -5.179688 2.28125 -5.488281 2.65625 -5.71875 C 3.03125 -5.957031 3.492188 -6.078125 4.046875 -6.078125 L 4.046875 -5.015625 L 3.765625 -5.015625 C 3.410156 -5.015625 3.085938 -4.953125 2.796875 -4.828125 C 2.503906 -4.710938 2.269531 -4.503906 2.09375 -4.203125 C 1.914062 -3.910156 1.828125 -3.503906 1.828125 -2.984375 L 1.828125 0 Z M 0.828125 0 "/></g></g></g><g fill="#000000" fill-opacity="1"><g transform="translate(166.842376, 98.810787)"><g><path d="M 0.828125 0 L 0.828125 -5.921875 L 1.734375 -5.921875 L 1.796875 -4.859375 C 1.984375 -5.234375 2.253906 -5.53125 2.609375 -5.75 C 2.972656 -5.96875 3.382812 -6.078125 3.84375 -6.078125 C 4.539062 -6.078125 5.097656 -5.863281 5.515625 -5.4375 C 5.929688 -5.007812 6.140625 -4.351562 6.140625 -3.46875 L 6.140625 0 L 5.140625 0 L 5.140625 -3.359375 C 5.140625 -4.597656 4.628906 -5.21875 3.609375 -5.21875 C 3.097656 -5.21875 2.671875 -5.03125 2.328125 -4.65625 C 1.992188 -4.28125 1.828125 -3.753906 1.828125 -3.078125 L 1.828125 0 Z M 0.828125 0 "/></g></g></g><g fill="#000000" fill-opacity="1"><g transform="translate(176.483561, 98.810787)"><g/></g></g><g fill="#000000" fill-opacity="1"><g transform="translate(182.457035, 98.810787)"><g><path d="M 3.171875 0 C 2.628906 0 2.203125 -0.128906 1.890625 -0.390625 C 1.578125 -0.648438 1.421875 -1.125 1.421875 -1.8125 L 1.421875 -5.078125 L 0.390625 -5.078125 L 0.390625 -5.921875 L 1.421875 -5.921875 L 1.546875 -7.34375 L 2.421875 -7.34375 L 2.421875 -5.921875 L 4.171875 -5.921875 L 4.171875 -5.078125 L 2.421875 -5.078125 L 2.421875 -1.8125 C 2.421875 -1.4375 2.492188 -1.179688 2.640625 -1.046875 C 2.796875 -0.921875 3.066406 -0.859375 3.453125 -0.859375 L 4.078125 -0.859375 L 4.078125 0 Z M 3.171875 0 "/></g></g></g><g fill="#000000" fill-opacity="1"><g transform="translate(189.888039, 98.810787)"><g><path d="M 3.53125 0.140625 C 2.96875 0.140625 2.460938 0.015625 2.015625 -0.234375 C 1.566406 -0.492188 1.210938 -0.851562 0.953125 -1.3125 C 0.703125 -1.78125 0.578125 -2.332031 0.578125 -2.96875 C 0.578125 -3.59375 0.707031 -4.140625 0.96875 -4.609375 C 1.226562 -5.078125 1.582031 -5.4375 2.03125 -5.6875 C 2.488281 -5.945312 2.992188 -6.078125 3.546875 -6.078125 C 4.109375 -6.078125 4.609375 -5.945312 5.046875 -5.6875 C 5.492188 -5.4375 5.847656 -5.078125 6.109375 -4.609375 C 6.367188 -4.140625 6.5 -3.59375 6.5 -2.96875 C 6.5 -2.332031 6.367188 -1.78125 6.109375 -1.3125 C 5.847656 -0.851562 5.488281 -0.492188 5.03125 -0.234375 C 4.582031 0.015625 4.082031 0.140625 3.53125 0.140625 Z M 3.53125 -0.71875 C 3.875 -0.71875 4.191406 -0.800781 4.484375 -0.96875 C 4.773438 -1.132812 5.007812 -1.382812 5.1875 -1.71875 C 5.375 -2.050781 5.46875 -2.46875 5.46875 -2.96875 C 5.46875 -3.457031 5.378906 -3.867188 5.203125 -4.203125 C 5.023438 -4.535156 4.785156 -4.785156 4.484375 -4.953125 C 4.191406 -5.128906 3.878906 -5.21875 3.546875 -5.21875 C 3.203125 -5.21875 2.882812 -5.128906 2.59375 -4.953125 C 2.300781 -4.785156 2.0625 -4.535156 1.875 -4.203125 C 1.695312 -3.867188 1.609375 -3.457031 1.609375 -2.96875 C 1.609375 -2.46875 1.695312 -2.050781 1.875 -1.71875 C 2.0625 -1.382812 2.300781 -1.132812 2.59375 -0.96875 C 2.882812 -0.800781 3.195312 -0.71875 3.53125 -0.71875 Z M 3.53125 -0.71875 "/></g></g></g><g fill="#000000" fill-opacity="1"><g transform="translate(199.768157, 98.810787)"><g/></g></g><g fill="#000000" fill-opacity="1"><g transform="translate(205.741631, 98.810787)"><g><path d="M 0.890625 0 L 0.890625 -8.359375 L 3.828125 -8.359375 C 4.410156 -8.359375 4.894531 -8.265625 5.28125 -8.078125 C 5.675781 -7.898438 5.96875 -7.648438 6.15625 -7.328125 C 6.34375 -7.003906 6.4375 -6.640625 6.4375 -6.234375 C 6.4375 -5.691406 6.289062 -5.265625 6 -4.953125 C 5.707031 -4.648438 5.359375 -4.4375 4.953125 -4.3125 C 5.265625 -4.257812 5.546875 -4.132812 5.796875 -3.9375 C 6.054688 -3.75 6.257812 -3.507812 6.40625 -3.21875 C 6.5625 -2.9375 6.640625 -2.625 6.640625 -2.28125 C 6.640625 -1.863281 6.535156 -1.476562 6.328125 -1.125 C 6.117188 -0.78125 5.8125 -0.503906 5.40625 -0.296875 C 5 -0.0976562 4.503906 0 3.921875 0 Z M 1.890625 -4.703125 L 3.75 -4.703125 C 4.28125 -4.703125 4.691406 -4.828125 4.984375 -5.078125 C 5.273438 -5.335938 5.421875 -5.6875 5.421875 -6.125 C 5.421875 -6.550781 5.273438 -6.890625 4.984375 -7.140625 C 4.703125 -7.398438 4.28125 -7.53125 3.71875 -7.53125 L 1.890625 -7.53125 Z M 1.890625 -0.84375 L 3.8125 -0.84375 C 4.382812 -0.84375 4.828125 -0.972656 5.140625 -1.234375 C 5.453125 -1.503906 5.609375 -1.878906 5.609375 -2.359375 C 5.609375 -2.828125 5.441406 -3.203125 5.109375 -3.484375 C 4.785156 -3.765625 4.347656 -3.90625 3.796875 -3.90625 L 1.890625 -3.90625 Z M 1.890625 -0.84375 "/></g></g></g><g fill="#000000" fill-opacity="1"><g transform="translate(215.741209, 98.810787)"><g><path d="M 2.984375 0.140625 C 2.285156 0.140625 1.726562 -0.0703125 1.3125 -0.5 C 0.894531 -0.925781 0.6875 -1.582031 0.6875 -2.46875 L 0.6875 -5.921875 L 1.703125 -5.921875 L 1.703125 -2.5625 C 1.703125 -1.332031 2.207031 -0.71875 3.21875 -0.71875 C 3.738281 -0.71875 4.164062 -0.898438 4.5 -1.265625 C 4.84375 -1.640625 5.015625 -2.171875 5.015625 -2.859375 L 5.015625 -5.921875 L 6.015625 -5.921875 L 6.015625 0 L 5.109375 0 L 5.03125 -1.0625 C 4.84375 -0.6875 4.566406 -0.390625 4.203125 -0.171875 C 3.847656 0.0351562 3.441406 0.140625 2.984375 0.140625 Z M 2.984375 0.140625 "/></g></g></g><g fill="#000000" fill-opacity="1"><g transform="translate(225.382395, 98.810787)"><g><path d="M 1.4375 -7.25 C 1.238281 -7.25 1.070312 -7.3125 0.9375 -7.4375 C 0.800781 -7.570312 0.734375 -7.738281 0.734375 -7.9375 C 0.734375 -8.125 0.800781 -8.28125 0.9375 -8.40625 C 1.070312 -8.539062 1.238281 -8.609375 1.4375 -8.609375 C 1.625 -8.609375 1.785156 -8.539062 1.921875 -8.40625 C 2.054688 -8.28125 2.125 -8.125 2.125 -7.9375 C 2.125 -7.738281 2.054688 -7.570312 1.921875 -7.4375 C 1.785156 -7.3125 1.625 -7.25 1.4375 -7.25 Z M 0.9375 0 L 0.9375 -5.921875 L 1.9375 -5.921875 L 1.9375 0 Z M 0.9375 0 "/></g></g></g><g fill="#000000" fill-opacity="1"><g transform="translate(231.045237, 98.810787)"><g><path d="M 0.828125 0 L 0.828125 -8.609375 L 1.828125 -8.609375 L 1.828125 0 Z M 0.828125 0 "/></g></g></g><g fill="#000000" fill-opacity="1"><g transform="translate(236.50498, 98.810787)"><g><path d="M 3.515625 0.140625 C 2.921875 0.140625 2.398438 0.00390625 1.953125 -0.265625 C 1.515625 -0.535156 1.175781 -0.90625 0.9375 -1.375 C 0.695312 -1.84375 0.578125 -2.375 0.578125 -2.96875 C 0.578125 -3.570312 0.695312 -4.101562 0.9375 -4.5625 C 1.1875 -5.03125 1.53125 -5.398438 1.96875 -5.671875 C 2.40625 -5.941406 2.925781 -6.078125 3.53125 -6.078125 C 4.007812 -6.078125 4.4375 -5.972656 4.8125 -5.765625 C 5.1875 -5.566406 5.476562 -5.289062 5.6875 -4.9375 L 5.6875 -8.609375 L 6.6875 -8.609375 L 6.6875 0 L 5.78125 0 L 5.6875 -0.984375 C 5.5 -0.691406 5.222656 -0.429688 4.859375 -0.203125 C 4.503906 0.0234375 4.054688 0.140625 3.515625 0.140625 Z M 3.625 -0.734375 C 4.019531 -0.734375 4.367188 -0.828125 4.671875 -1.015625 C 4.984375 -1.203125 5.222656 -1.460938 5.390625 -1.796875 C 5.566406 -2.128906 5.65625 -2.519531 5.65625 -2.96875 C 5.65625 -3.414062 5.566406 -3.804688 5.390625 -4.140625 C 5.222656 -4.472656 4.984375 -4.734375 4.671875 -4.921875 C 4.367188 -5.109375 4.019531 -5.203125 3.625 -5.203125 C 3.226562 -5.203125 2.875 -5.109375 2.5625 -4.921875 C 2.257812 -4.734375 2.023438 -4.472656 1.859375 -4.140625 C 1.691406 -3.804688 1.609375 -3.414062 1.609375 -2.96875 C 1.609375 -2.519531 1.691406 -2.128906 1.859375 -1.796875 C 2.023438 -1.460938 2.257812 -1.203125 2.5625 -1.015625 C 2.875 -0.828125 3.226562 -0.734375 3.625 -0.734375 Z M 3.625 -0.734375 "/></g></g></g><g fill="#000000" fill-opacity="1"><g transform="translate(246.81519, 98.810787)"><g><path d="M 1.171875 0.0625 C 0.972656 0.0625 0.804688 0 0.671875 -0.125 C 0.546875 -0.257812 0.484375 -0.425781 0.484375 -0.625 C 0.484375 -0.8125 0.546875 -0.96875 0.671875 -1.09375 C 0.804688 -1.226562 0.972656 -1.296875 1.171875 -1.296875 C 1.359375 -1.296875 1.519531 -1.226562 1.65625 -1.09375 C 1.789062 -0.96875 1.859375 -0.8125 1.859375 -0.625 C 1.859375 -0.425781 1.789062 -0.257812 1.65625 -0.125 C 1.519531 0 1.359375 0.0625 1.171875 0.0625 Z M 1.171875 0.0625 "/></g></g></g><g fill="#000000" fill-opacity="1"><g transform="translate(11.532083, 84.53157)"><g><path d="M 7.40625 -3.734375 C 7.40625 -4.046875 7.390625 -4.296875 7.359375 -4.484375 C 7.335938 -4.671875 7.285156 -4.8125 7.203125 -4.90625 C 7.117188 -5.007812 6.992188 -5.070312 6.828125 -5.09375 C 6.660156 -5.125 6.441406 -5.140625 6.171875 -5.140625 L 4.296875 -5.140625 C 4.015625 -5.140625 3.785156 -5.125 3.609375 -5.09375 C 3.441406 -5.070312 3.3125 -5.015625 3.21875 -4.921875 C 3.132812 -4.828125 3.082031 -4.6875 3.0625 -4.5 C 3.039062 -4.3125 3.03125 -4.054688 3.03125 -3.734375 L 3.03125 -1.6875 C 3.03125 -1.46875 3.023438 -1.28125 3.015625 -1.125 C 3.015625 -0.96875 3.003906 -0.835938 2.984375 -0.734375 C 2.960938 -0.628906 2.929688 -0.539062 2.890625 -0.46875 C 2.859375 -0.40625 2.8125 -0.34375 2.75 -0.28125 C 2.5625 -0.09375 2.234375 0 1.765625 0 C 1.203125 0 0.84375 -0.15625 0.6875 -0.46875 C 0.65625 -0.53125 0.628906 -0.59375 0.609375 -0.65625 C 0.585938 -0.71875 0.570312 -0.789062 0.5625 -0.875 C 0.550781 -0.96875 0.539062 -1.082031 0.53125 -1.21875 C 0.53125 -1.351562 0.53125 -1.519531 0.53125 -1.71875 L 0.53125 -5.3125 C 0.53125 -5.507812 0.535156 -5.675781 0.546875 -5.8125 C 0.566406 -5.945312 0.597656 -6.054688 0.640625 -6.140625 C 0.691406 -6.234375 0.753906 -6.304688 0.828125 -6.359375 C 0.910156 -6.421875 1.019531 -6.476562 1.15625 -6.53125 C 1.289062 -6.570312 1.390625 -6.613281 1.453125 -6.65625 C 1.523438 -6.707031 1.578125 -6.773438 1.609375 -6.859375 C 1.640625 -6.941406 1.660156 -7.050781 1.671875 -7.1875 C 1.679688 -7.320312 1.6875 -7.507812 1.6875 -7.75 L 1.6875 -9.046875 C 1.6875 -9.378906 1.703125 -9.648438 1.734375 -9.859375 C 1.773438 -10.066406 1.851562 -10.226562 1.96875 -10.34375 C 2.082031 -10.457031 2.238281 -10.53125 2.4375 -10.5625 C 2.644531 -10.601562 2.914062 -10.625 3.25 -10.625 L 6.0625 -10.625 C 6.457031 -10.625 6.738281 -10.601562 6.90625 -10.5625 C 7.082031 -10.519531 7.226562 -10.4375 7.34375 -10.3125 C 7.445312 -10.1875 7.519531 -10.035156 7.5625 -9.859375 C 7.601562 -9.691406 7.625 -9.410156 7.625 -9.015625 L 7.625 -7.78125 C 7.625 -7.53125 7.625 -7.335938 7.625 -7.203125 C 7.632812 -7.066406 7.65625 -6.953125 7.6875 -6.859375 C 7.71875 -6.773438 7.757812 -6.710938 7.8125 -6.671875 C 7.875 -6.628906 7.953125 -6.585938 8.046875 -6.546875 L 8.265625 -6.453125 C 8.421875 -6.398438 8.53125 -6.328125 8.59375 -6.234375 C 8.664062 -6.140625 8.710938 -6 8.734375 -5.8125 C 8.734375 -5.769531 8.734375 -5.722656 8.734375 -5.671875 C 8.734375 -5.628906 8.738281 -5.519531 8.75 -5.34375 L 8.75 -1.0625 C 8.75 -0.757812 8.738281 -0.546875 8.71875 -0.421875 C 8.695312 -0.296875 8.660156 -0.195312 8.609375 -0.125 C 8.484375 0.03125 8.3125 0.109375 8.09375 0.109375 C 7.832031 0.109375 7.648438 0.03125 7.546875 -0.125 C 7.453125 -0.289062 7.40625 -0.601562 7.40625 -1.0625 Z M 5.125 -6.46875 C 5.382812 -6.46875 5.585938 -6.476562 5.734375 -6.5 C 5.878906 -6.53125 5.992188 -6.597656 6.078125 -6.703125 C 6.160156 -6.804688 6.210938 -6.945312 6.234375 -7.125 C 6.253906 -7.3125 6.265625 -7.566406 6.265625 -7.890625 C 6.265625 -8.179688 6.25 -8.421875 6.21875 -8.609375 C 6.195312 -8.796875 6.144531 -8.941406 6.0625 -9.046875 C 5.988281 -9.148438 5.878906 -9.21875 5.734375 -9.25 C 5.597656 -9.28125 5.414062 -9.296875 5.1875 -9.296875 L 4.15625 -9.296875 C 3.914062 -9.296875 3.71875 -9.28125 3.5625 -9.25 C 3.414062 -9.21875 3.300781 -9.144531 3.21875 -9.03125 C 3.144531 -8.914062 3.097656 -8.753906 3.078125 -8.546875 C 3.054688 -8.335938 3.046875 -8.0625 3.046875 -7.71875 C 3.046875 -7.4375 3.054688 -7.21875 3.078125 -7.0625 C 3.109375 -6.90625 3.160156 -6.78125 3.234375 -6.6875 C 3.316406 -6.59375 3.429688 -6.53125 3.578125 -6.5 C 3.734375 -6.476562 3.929688 -6.46875 4.171875 -6.46875 Z M 5.125 -6.46875 "/></g></g></g><g fill="#000000" fill-opacity="1"><g transform="translate(28.15741, 84.53157)"><g/></g></g><g fill="#000000" fill-opacity="1"><g transform="translate(38.783886, 84.53157)"><g/></g></g><g fill="#000000" fill-opacity="1"><g transform="translate(49.414495, 84.53157)"><g><path d="M 8.625 -1.265625 C 8.625 -0.765625 8.492188 -0.414062 8.234375 -0.21875 C 8.117188 -0.132812 7.984375 -0.078125 7.828125 -0.046875 C 7.671875 -0.015625 7.398438 0 7.015625 0 L 2.34375 0 C 2 0 1.722656 -0.015625 1.515625 -0.046875 C 1.316406 -0.0859375 1.15625 -0.164062 1.03125 -0.28125 C 0.914062 -0.394531 0.835938 -0.546875 0.796875 -0.734375 C 0.765625 -0.929688 0.75 -1.195312 0.75 -1.53125 L 0.75 -9.203125 C 0.75 -9.484375 0.769531 -9.71875 0.8125 -9.90625 C 0.851562 -10.09375 0.925781 -10.238281 1.03125 -10.34375 C 1.144531 -10.445312 1.296875 -10.519531 1.484375 -10.5625 C 1.671875 -10.601562 1.910156 -10.625 2.203125 -10.625 L 7.125 -10.625 C 7.445312 -10.625 7.707031 -10.601562 7.90625 -10.5625 C 8.101562 -10.519531 8.257812 -10.441406 8.375 -10.328125 C 8.488281 -10.210938 8.5625 -10.046875 8.59375 -9.828125 C 8.625 -9.617188 8.640625 -9.335938 8.640625 -8.984375 L 8.625 -8.25 C 8.625 -7.9375 8.566406 -7.707031 8.453125 -7.5625 C 8.347656 -7.414062 8.1875 -7.34375 7.96875 -7.34375 C 7.726562 -7.34375 7.554688 -7.410156 7.453125 -7.546875 C 7.359375 -7.679688 7.304688 -7.910156 7.296875 -8.234375 C 7.285156 -8.472656 7.265625 -8.660156 7.234375 -8.796875 C 7.203125 -8.929688 7.132812 -9.035156 7.03125 -9.109375 C 6.9375 -9.191406 6.789062 -9.242188 6.59375 -9.265625 C 6.40625 -9.285156 6.148438 -9.296875 5.828125 -9.296875 L 3.375 -9.296875 C 3.09375 -9.296875 2.863281 -9.28125 2.6875 -9.25 C 2.507812 -9.21875 2.375 -9.144531 2.28125 -9.03125 C 2.195312 -8.925781 2.140625 -8.773438 2.109375 -8.578125 C 2.085938 -8.378906 2.078125 -8.117188 2.078125 -7.796875 C 2.078125 -7.566406 2.082031 -7.382812 2.09375 -7.25 C 2.101562 -7.113281 2.125 -7.003906 2.15625 -6.921875 C 2.1875 -6.835938 2.234375 -6.765625 2.296875 -6.703125 C 2.359375 -6.640625 2.441406 -6.585938 2.546875 -6.546875 C 2.722656 -6.460938 2.859375 -6.394531 2.953125 -6.34375 C 3.046875 -6.289062 3.113281 -6.21875 3.15625 -6.125 C 3.195312 -6.039062 3.21875 -5.921875 3.21875 -5.765625 C 3.226562 -5.609375 3.234375 -5.382812 3.234375 -5.09375 L 3.234375 -3.109375 C 3.234375 -2.960938 3.234375 -2.789062 3.234375 -2.59375 C 3.242188 -2.394531 3.253906 -2.242188 3.265625 -2.140625 C 3.273438 -1.816406 3.378906 -1.597656 3.578125 -1.484375 C 3.785156 -1.378906 4.171875 -1.328125 4.734375 -1.328125 L 5.828125 -1.328125 C 6.171875 -1.328125 6.441406 -1.335938 6.640625 -1.359375 C 6.835938 -1.390625 6.984375 -1.457031 7.078125 -1.5625 C 7.171875 -1.675781 7.226562 -1.84375 7.25 -2.0625 C 7.269531 -2.28125 7.28125 -2.582031 7.28125 -2.96875 C 7.28125 -3.289062 7.332031 -3.523438 7.4375 -3.671875 C 7.539062 -3.816406 7.710938 -3.890625 7.953125 -3.890625 C 8.191406 -3.890625 8.363281 -3.816406 8.46875 -3.671875 C 8.570312 -3.523438 8.625 -3.285156 8.625 -2.953125 Z M 8.625 -1.265625 "/></g></g></g><g fill="#000000" fill-opacity="1"><g transform="translate(65.911486, 84.53157)"><g/></g></g><g fill="#000000" fill-opacity="1"><g transform="translate(76.537962, 84.53157)"><g/></g></g><g fill="#000000" fill-opacity="1"><g transform="translate(87.168571, 84.53157)"><g><path d="M 7.40625 -3.734375 C 7.40625 -4.046875 7.390625 -4.296875 7.359375 -4.484375 C 7.335938 -4.671875 7.285156 -4.8125 7.203125 -4.90625 C 7.117188 -5.007812 6.992188 -5.070312 6.828125 -5.09375 C 6.660156 -5.125 6.441406 -5.140625 6.171875 -5.140625 L 4.296875 -5.140625 C 4.015625 -5.140625 3.785156 -5.125 3.609375 -5.09375 C 3.441406 -5.070312 3.3125 -5.015625 3.21875 -4.921875 C 3.132812 -4.828125 3.082031 -4.6875 3.0625 -4.5 C 3.039062 -4.3125 3.03125 -4.054688 3.03125 -3.734375 L 3.03125 -1.6875 C 3.03125 -1.46875 3.023438 -1.28125 3.015625 -1.125 C 3.015625 -0.96875 3.003906 -0.835938 2.984375 -0.734375 C 2.960938 -0.628906 2.929688 -0.539062 2.890625 -0.46875 C 2.859375 -0.40625 2.8125 -0.34375 2.75 -0.28125 C 2.5625 -0.09375 2.234375 0 1.765625 0 C 1.203125 0 0.84375 -0.15625 0.6875 -0.46875 C 0.65625 -0.53125 0.628906 -0.59375 0.609375 -0.65625 C 0.585938 -0.71875 0.570312 -0.789062 0.5625 -0.875 C 0.550781 -0.96875 0.539062 -1.082031 0.53125 -1.21875 C 0.53125 -1.351562 0.53125 -1.519531 0.53125 -1.71875 L 0.53125 -5.3125 C 0.53125 -5.507812 0.535156 -5.675781 0.546875 -5.8125 C 0.566406 -5.945312 0.597656 -6.054688 0.640625 -6.140625 C 0.691406 -6.234375 0.753906 -6.304688 0.828125 -6.359375 C 0.910156 -6.421875 1.019531 -6.476562 1.15625 -6.53125 C 1.289062 -6.570312 1.390625 -6.613281 1.453125 -6.65625 C 1.523438 -6.707031 1.578125 -6.773438 1.609375 -6.859375 C 1.640625 -6.941406 1.660156 -7.050781 1.671875 -7.1875 C 1.679688 -7.320312 1.6875 -7.507812 1.6875 -7.75 L 1.6875 -9.046875 C 1.6875 -9.378906 1.703125 -9.648438 1.734375 -9.859375 C 1.773438 -10.066406 1.851562 -10.226562 1.96875 -10.34375 C 2.082031 -10.457031 2.238281 -10.53125 2.4375 -10.5625 C 2.644531 -10.601562 2.914062 -10.625 3.25 -10.625 L 6.0625 -10.625 C 6.457031 -10.625 6.738281 -10.601562 6.90625 -10.5625 C 7.082031 -10.519531 7.226562 -10.4375 7.34375 -10.3125 C 7.445312 -10.1875 7.519531 -10.035156 7.5625 -9.859375 C 7.601562 -9.691406 7.625 -9.410156 7.625 -9.015625 L 7.625 -7.78125 C 7.625 -7.53125 7.625 -7.335938 7.625 -7.203125 C 7.632812 -7.066406 7.65625 -6.953125 7.6875 -6.859375 C 7.71875 -6.773438 7.757812 -6.710938 7.8125 -6.671875 C 7.875 -6.628906 7.953125 -6.585938 8.046875 -6.546875 L 8.265625 -6.453125 C 8.421875 -6.398438 8.53125 -6.328125 8.59375 -6.234375 C 8.664062 -6.140625 8.710938 -6 8.734375 -5.8125 C 8.734375 -5.769531 8.734375 -5.722656 8.734375 -5.671875 C 8.734375 -5.628906 8.738281 -5.519531 8.75 -5.34375 L 8.75 -1.0625 C 8.75 -0.757812 8.738281 -0.546875 8.71875 -0.421875 C 8.695312 -0.296875 8.660156 -0.195312 8.609375 -0.125 C 8.484375 0.03125 8.3125 0.109375 8.09375 0.109375 C 7.832031 0.109375 7.648438 0.03125 7.546875 -0.125 C 7.453125 -0.289062 7.40625 -0.601562 7.40625 -1.0625 Z M 5.125 -6.46875 C 5.382812 -6.46875 5.585938 -6.476562 5.734375 -6.5 C 5.878906 -6.53125 5.992188 -6.597656 6.078125 -6.703125 C 6.160156 -6.804688 6.210938 -6.945312 6.234375 -7.125 C 6.253906 -7.3125 6.265625 -7.566406 6.265625 -7.890625 C 6.265625 -8.179688 6.25 -8.421875 6.21875 -8.609375 C 6.195312 -8.796875 6.144531 -8.941406 6.0625 -9.046875 C 5.988281 -9.148438 5.878906 -9.21875 5.734375 -9.25 C 5.597656 -9.28125 5.414062 -9.296875 5.1875 -9.296875 L 4.15625 -9.296875 C 3.914062 -9.296875 3.71875 -9.28125 3.5625 -9.25 C 3.414062 -9.21875 3.300781 -9.144531 3.21875 -9.03125 C 3.144531 -8.914062 3.097656 -8.753906 3.078125 -8.546875 C 3.054688 -8.335938 3.046875 -8.0625 3.046875 -7.71875 C 3.046875 -7.4375 3.054688 -7.21875 3.078125 -7.0625 C 3.109375 -6.90625 3.160156 -6.78125 3.234375 -6.6875 C 3.316406 -6.59375 3.429688 -6.53125 3.578125 -6.5 C 3.734375 -6.476562 3.929688 -6.46875 4.171875 -6.46875 Z M 5.125 -6.46875 "/></g></g></g><g fill="#000000" fill-opacity="1"><g transform="translate(103.793899, 84.53157)"><g/></g></g><g fill="#000000" fill-opacity="1"><g transform="translate(114.420375, 84.53157)"><g/></g></g><g fill="#000000" fill-opacity="1"><g transform="translate(125.050984, 84.53157)"><g><path d="M 8.96875 -1.40625 C 8.96875 -1.070312 8.941406 -0.820312 8.890625 -0.65625 C 8.835938 -0.5 8.75 -0.359375 8.625 -0.234375 C 8.507812 -0.140625 8.367188 -0.078125 8.203125 -0.046875 C 8.046875 -0.015625 7.773438 0 7.390625 0 L 2.078125 0 C 1.566406 0 1.21875 -0.0976562 1.03125 -0.296875 C 0.84375 -0.503906 0.75 -0.878906 0.75 -1.421875 L 0.75 -9.28125 C 0.75 -9.800781 0.847656 -10.15625 1.046875 -10.34375 C 1.253906 -10.53125 1.640625 -10.625 2.203125 -10.625 L 7.578125 -10.625 C 7.859375 -10.625 8.09375 -10.601562 8.28125 -10.5625 C 8.46875 -10.519531 8.609375 -10.441406 8.703125 -10.328125 C 8.804688 -10.210938 8.875 -10.050781 8.90625 -9.84375 C 8.945312 -9.644531 8.96875 -9.378906 8.96875 -9.046875 Z M 3.3125 -9.3125 C 3.039062 -9.3125 2.820312 -9.296875 2.65625 -9.265625 C 2.5 -9.234375 2.378906 -9.164062 2.296875 -9.0625 C 2.210938 -8.96875 2.15625 -8.828125 2.125 -8.640625 C 2.101562 -8.460938 2.09375 -8.21875 2.09375 -7.90625 C 2.09375 -7.632812 2.09375 -7.421875 2.09375 -7.265625 C 2.101562 -7.117188 2.125 -7 2.15625 -6.90625 C 2.1875 -6.820312 2.226562 -6.753906 2.28125 -6.703125 C 2.34375 -6.648438 2.421875 -6.601562 2.515625 -6.5625 L 2.796875 -6.4375 C 2.921875 -6.382812 3.015625 -6.316406 3.078125 -6.234375 C 3.140625 -6.160156 3.179688 -6.046875 3.203125 -5.890625 C 3.210938 -5.828125 3.21875 -5.753906 3.21875 -5.671875 C 3.226562 -5.597656 3.234375 -5.410156 3.234375 -5.109375 L 3.234375 -2.71875 C 3.234375 -2.414062 3.242188 -2.171875 3.265625 -1.984375 C 3.296875 -1.804688 3.363281 -1.671875 3.46875 -1.578125 C 3.570312 -1.484375 3.710938 -1.421875 3.890625 -1.390625 C 4.078125 -1.367188 4.332031 -1.359375 4.65625 -1.359375 L 6.5 -1.359375 C 6.75 -1.359375 6.945312 -1.375 7.09375 -1.40625 C 7.238281 -1.4375 7.347656 -1.492188 7.421875 -1.578125 C 7.503906 -1.671875 7.5625 -1.804688 7.59375 -1.984375 C 7.625 -2.160156 7.640625 -2.390625 7.640625 -2.671875 L 7.640625 -7.65625 C 7.640625 -8.039062 7.628906 -8.34375 7.609375 -8.5625 C 7.585938 -8.789062 7.53125 -8.957031 7.4375 -9.0625 C 7.351562 -9.175781 7.21875 -9.242188 7.03125 -9.265625 C 6.84375 -9.296875 6.59375 -9.3125 6.28125 -9.3125 Z M 3.3125 -9.3125 "/></g></g></g><g fill="#000000" fill-opacity="1"><g transform="translate(142.084652, 84.53157)"><g/></g></g><g fill="#000000" fill-opacity="1"><g transform="translate(152.711128, 84.53157)"><g/></g></g><g fill="#000000" fill-opacity="1"><g transform="translate(163.341737, 84.53157)"><g><path d="M 3.234375 -2.6875 C 3.234375 -2.382812 3.242188 -2.144531 3.265625 -1.96875 C 3.296875 -1.789062 3.359375 -1.65625 3.453125 -1.5625 C 3.546875 -1.476562 3.675781 -1.421875 3.84375 -1.390625 C 4.019531 -1.367188 4.265625 -1.359375 4.578125 -1.359375 L 6.234375 -1.359375 C 6.617188 -1.359375 6.890625 -1.304688 7.046875 -1.203125 C 7.203125 -1.097656 7.28125 -0.925781 7.28125 -0.6875 C 7.28125 -0.4375 7.203125 -0.257812 7.046875 -0.15625 C 6.890625 -0.0507812 6.625 0 6.25 0 L 2.1875 0 C 1.90625 0 1.671875 -0.0195312 1.484375 -0.0625 C 1.304688 -0.101562 1.160156 -0.175781 1.046875 -0.28125 C 0.929688 -0.382812 0.851562 -0.519531 0.8125 -0.6875 C 0.769531 -0.851562 0.75 -1.066406 0.75 -1.328125 L 0.75 -9.09375 C 0.75 -9.40625 0.765625 -9.660156 0.796875 -9.859375 C 0.835938 -10.066406 0.910156 -10.222656 1.015625 -10.328125 C 1.117188 -10.441406 1.265625 -10.519531 1.453125 -10.5625 C 1.640625 -10.601562 1.882812 -10.625 2.1875 -10.625 L 6.421875 -10.625 C 6.984375 -10.625 7.265625 -10.394531 7.265625 -9.9375 C 7.265625 -9.507812 6.984375 -9.296875 6.421875 -9.296875 L 3.25 -9.296875 C 3 -9.296875 2.796875 -9.28125 2.640625 -9.25 C 2.484375 -9.21875 2.363281 -9.144531 2.28125 -9.03125 C 2.207031 -8.925781 2.15625 -8.769531 2.125 -8.5625 C 2.101562 -8.363281 2.09375 -8.101562 2.09375 -7.78125 C 2.09375 -7.507812 2.101562 -7.289062 2.125 -7.125 C 2.15625 -6.957031 2.203125 -6.820312 2.265625 -6.71875 C 2.335938 -6.625 2.429688 -6.5625 2.546875 -6.53125 C 2.671875 -6.5 2.832031 -6.484375 3.03125 -6.484375 L 6.03125 -6.484375 C 6.300781 -6.484375 6.488281 -6.476562 6.59375 -6.46875 C 6.695312 -6.457031 6.796875 -6.441406 6.890625 -6.421875 C 7.003906 -6.378906 7.097656 -6.300781 7.171875 -6.1875 C 7.242188 -6.082031 7.28125 -5.957031 7.28125 -5.8125 C 7.28125 -5.613281 7.210938 -5.453125 7.078125 -5.328125 C 6.953125 -5.203125 6.78125 -5.140625 6.5625 -5.140625 L 4.484375 -5.140625 C 4.191406 -5.140625 3.960938 -5.125 3.796875 -5.09375 C 3.628906 -5.070312 3.503906 -5.003906 3.421875 -4.890625 C 3.335938 -4.785156 3.285156 -4.625 3.265625 -4.40625 C 3.242188 -4.1875 3.234375 -3.890625 3.234375 -3.515625 Z M 3.234375 -2.6875 "/></g></g></g><g fill="#000000" fill-opacity="1"><g transform="translate(178.485369, 84.53157)"><g/></g></g><g fill="#000000" fill-opacity="1"><g transform="translate(189.111845, 84.53157)"><g/></g></g><g fill="#000000" fill-opacity="1"><g transform="translate(199.742454, 84.53157)"><g><path d="M 12.03125 -0.796875 C 12.03125 -0.191406 11.800781 0.109375 11.34375 0.109375 C 10.90625 0.109375 10.6875 -0.203125 10.6875 -0.828125 L 10.6875 -7.921875 C 10.6875 -8.242188 10.671875 -8.492188 10.640625 -8.671875 C 10.617188 -8.847656 10.566406 -8.984375 10.484375 -9.078125 C 10.398438 -9.179688 10.265625 -9.242188 10.078125 -9.265625 C 9.898438 -9.285156 9.664062 -9.296875 9.375 -9.296875 L 8.59375 -9.296875 C 8.320312 -9.296875 8.109375 -9.28125 7.953125 -9.25 C 7.804688 -9.21875 7.6875 -9.148438 7.59375 -9.046875 C 7.507812 -8.953125 7.453125 -8.816406 7.421875 -8.640625 C 7.398438 -8.460938 7.390625 -8.222656 7.390625 -7.921875 L 7.390625 -0.8125 C 7.390625 -0.195312 7.164062 0.109375 6.71875 0.109375 C 6.476562 0.109375 6.304688 0.0390625 6.203125 -0.09375 C 6.097656 -0.238281 6.046875 -0.46875 6.046875 -0.78125 L 6.046875 -7.90625 C 6.046875 -8.195312 6.03125 -8.429688 6 -8.609375 C 5.96875 -8.796875 5.910156 -8.941406 5.828125 -9.046875 C 5.753906 -9.148438 5.644531 -9.21875 5.5 -9.25 C 5.351562 -9.28125 5.15625 -9.296875 4.90625 -9.296875 L 3.265625 -9.296875 C 3.035156 -9.296875 2.84375 -9.28125 2.6875 -9.25 C 2.539062 -9.21875 2.425781 -9.148438 2.34375 -9.046875 C 2.257812 -8.953125 2.203125 -8.828125 2.171875 -8.671875 C 2.140625 -8.515625 2.125 -8.304688 2.125 -8.046875 L 2.125 -7.53125 C 2.125 -7.351562 2.128906 -7.210938 2.140625 -7.109375 C 2.160156 -7.003906 2.1875 -6.910156 2.21875 -6.828125 C 2.257812 -6.753906 2.316406 -6.691406 2.390625 -6.640625 C 2.472656 -6.597656 2.578125 -6.550781 2.703125 -6.5 C 2.929688 -6.414062 3.078125 -6.300781 3.140625 -6.15625 C 3.210938 -6.019531 3.253906 -5.789062 3.265625 -5.46875 L 3.265625 -1.4375 C 3.265625 -0.894531 3.171875 -0.519531 2.984375 -0.3125 C 2.804688 -0.101562 2.484375 0 2.015625 0 C 1.535156 0 1.203125 -0.101562 1.015625 -0.3125 C 0.835938 -0.519531 0.75 -0.90625 0.75 -1.46875 L 0.75 -9.0625 C 0.75 -9.394531 0.769531 -9.660156 0.8125 -9.859375 C 0.851562 -10.066406 0.929688 -10.222656 1.046875 -10.328125 C 1.171875 -10.441406 1.335938 -10.519531 1.546875 -10.5625 C 1.753906 -10.601562 2.03125 -10.625 2.375 -10.625 L 10.453125 -10.625 C 10.785156 -10.625 11.054688 -10.601562 11.265625 -10.5625 C 11.472656 -10.53125 11.632812 -10.457031 11.75 -10.34375 C 11.863281 -10.226562 11.9375 -10.0625 11.96875 -9.84375 C 12.007812 -9.632812 12.03125 -9.351562 12.03125 -9 Z M 12.03125 -0.796875 "/></g></g></g><g fill="#000000" fill-opacity="1"><g transform="translate(219.821186, 84.53157)"><g/></g></g><g fill="#000000" fill-opacity="1"><g transform="translate(230.447662, 84.53157)"><g/></g></g><g fill="#000000" fill-opacity="1"><g transform="translate(241.078271, 84.53157)"><g><path d="M 5.4375 -1.59375 C 5.4375 -1.300781 5.425781 -1.070312 5.40625 -0.90625 C 5.382812 -0.75 5.351562 -0.625 5.3125 -0.53125 C 5.226562 -0.34375 5.097656 -0.207031 4.921875 -0.125 C 4.753906 -0.0390625 4.519531 0 4.21875 0 C 3.96875 0 3.753906 -0.0195312 3.578125 -0.0625 C 3.410156 -0.113281 3.28125 -0.195312 3.1875 -0.3125 C 3.09375 -0.4375 3.023438 -0.597656 2.984375 -0.796875 C 2.953125 -0.992188 2.9375 -1.253906 2.9375 -1.578125 L 2.9375 -3.890625 C 2.9375 -4.148438 2.921875 -4.363281 2.890625 -4.53125 C 2.867188 -4.695312 2.820312 -4.820312 2.75 -4.90625 C 2.675781 -5 2.570312 -5.0625 2.4375 -5.09375 C 2.3125 -5.132812 2.144531 -5.15625 1.9375 -5.15625 L 1.65625 -5.1875 C 1.414062 -5.1875 1.210938 -5.207031 1.046875 -5.25 C 0.890625 -5.300781 0.765625 -5.382812 0.671875 -5.5 C 0.585938 -5.613281 0.523438 -5.765625 0.484375 -5.953125 C 0.453125 -6.148438 0.4375 -6.398438 0.4375 -6.703125 L 0.4375 -9.75 C 0.4375 -10.082031 0.488281 -10.316406 0.59375 -10.453125 C 0.695312 -10.597656 0.867188 -10.671875 1.109375 -10.671875 C 1.359375 -10.671875 1.53125 -10.601562 1.625 -10.46875 C 1.726562 -10.332031 1.78125 -10.09375 1.78125 -9.75 L 1.78125 -7.703125 C 1.78125 -7.429688 1.789062 -7.21875 1.8125 -7.0625 C 1.84375 -6.90625 1.90625 -6.78125 2 -6.6875 C 2.101562 -6.601562 2.242188 -6.546875 2.421875 -6.515625 C 2.597656 -6.492188 2.84375 -6.484375 3.15625 -6.484375 L 5.25 -6.484375 C 5.539062 -6.484375 5.773438 -6.492188 5.953125 -6.515625 C 6.140625 -6.546875 6.28125 -6.601562 6.375 -6.6875 C 6.46875 -6.78125 6.523438 -6.90625 6.546875 -7.0625 C 6.578125 -7.21875 6.59375 -7.429688 6.59375 -7.703125 L 6.59375 -9.765625 C 6.59375 -10.097656 6.644531 -10.332031 6.75 -10.46875 C 6.863281 -10.601562 7.039062 -10.671875 7.28125 -10.671875 C 7.53125 -10.671875 7.703125 -10.597656 7.796875 -10.453125 C 7.898438 -10.316406 7.953125 -10.078125 7.953125 -9.734375 L 7.953125 -6.6875 C 7.953125 -6.394531 7.929688 -6.148438 7.890625 -5.953125 C 7.859375 -5.753906 7.796875 -5.597656 7.703125 -5.484375 C 7.617188 -5.378906 7.5 -5.296875 7.34375 -5.234375 C 7.1875 -5.179688 6.984375 -5.148438 6.734375 -5.140625 L 6.453125 -5.140625 C 6.242188 -5.128906 6.070312 -5.101562 5.9375 -5.0625 C 5.800781 -5.03125 5.695312 -4.96875 5.625 -4.875 C 5.550781 -4.789062 5.5 -4.664062 5.46875 -4.5 C 5.445312 -4.34375 5.4375 -4.140625 5.4375 -3.890625 Z M 5.4375 -1.59375 "/></g></g></g></svg>