<svg xmlns="http://www.w3.org/2000/svg" xmlns:xlink="http://www.w3.org/1999/xlink" width="64" zoomAndPan="magnify" viewBox="0 0 48 48" height="64" preserveAspectRatio="xMidYMid meet" version="1.0"><defs><g/><clipPath id="488ef9442f"><path d="M 0.488281 0 L 47.507812 0 L 47.507812 47.019531 L 0.488281 47.019531 Z M 0.488281 0 " clip-rule="nonzero"/></clipPath></defs><g clip-path="url(#488ef9442f)"><path fill="#ffffff" d="M 0.488281 0 L 47.511719 0 L 47.511719 47.019531 L 0.488281 47.019531 Z M 0.488281 0 " fill-opacity="1" fill-rule="nonzero"/><path fill="#ffffff" d="M 0.488281 0 L 47.511719 0 L 47.511719 47.019531 L 0.488281 47.019531 Z M 0.488281 0 " fill-opacity="1" fill-rule="nonzero"/></g><g fill="#0350b6" fill-opacity="1"><g transform="translate(1.918266, 25.960801)"><g><path d="M 6.5625 -1.234375 C 6.5625 -0.992188 6.546875 -0.789062 6.515625 -0.625 C 6.484375 -0.46875 6.421875 -0.34375 6.328125 -0.25 C 6.234375 -0.15625 6.109375 -0.0859375 5.953125 -0.046875 C 5.796875 -0.015625 5.597656 0 5.359375 0 L 1.890625 0 C 1.628906 0 1.414062 -0.0078125 1.25 -0.03125 C 1.082031 -0.0625 0.953125 -0.125 0.859375 -0.21875 C 0.773438 -0.3125 0.71875 -0.4375 0.6875 -0.59375 C 0.65625 -0.757812 0.640625 -0.972656 0.640625 -1.234375 L 0.640625 -6.34375 C 0.640625 -6.601562 0.648438 -6.816406 0.671875 -6.984375 C 0.703125 -7.148438 0.765625 -7.28125 0.859375 -7.375 C 0.953125 -7.46875 1.078125 -7.523438 1.234375 -7.546875 C 1.398438 -7.578125 1.617188 -7.59375 1.890625 -7.59375 L 4.640625 -7.59375 C 4.941406 -7.59375 5.140625 -7.644531 5.234375 -7.75 C 5.335938 -7.851562 5.390625 -8.050781 5.390625 -8.34375 L 5.390625 -9.796875 C 5.390625 -10.179688 5.429688 -10.441406 5.515625 -10.578125 C 5.597656 -10.710938 5.75 -10.78125 5.96875 -10.78125 C 6.207031 -10.78125 6.363281 -10.710938 6.4375 -10.578125 C 6.519531 -10.441406 6.5625 -10.179688 6.5625 -9.796875 Z M 2.671875 -6.4375 C 2.304688 -6.4375 2.070312 -6.382812 1.96875 -6.28125 C 1.875 -6.175781 1.828125 -5.941406 1.828125 -5.578125 L 1.828125 -5.125 C 1.828125 -4.863281 1.859375 -4.6875 1.921875 -4.59375 C 1.984375 -4.507812 2.128906 -4.441406 2.359375 -4.390625 C 2.578125 -4.328125 2.71875 -4.238281 2.78125 -4.125 C 2.851562 -4.019531 2.890625 -3.804688 2.890625 -3.484375 L 2.890625 -2.03125 C 2.890625 -1.832031 2.894531 -1.675781 2.90625 -1.5625 C 2.925781 -1.457031 2.96875 -1.375 3.03125 -1.3125 C 3.09375 -1.25 3.179688 -1.207031 3.296875 -1.1875 C 3.410156 -1.175781 3.5625 -1.171875 3.75 -1.171875 L 4.53125 -1.171875 C 4.71875 -1.171875 4.863281 -1.179688 4.96875 -1.203125 C 5.082031 -1.222656 5.171875 -1.265625 5.234375 -1.328125 C 5.304688 -1.390625 5.351562 -1.472656 5.375 -1.578125 C 5.394531 -1.691406 5.40625 -1.84375 5.40625 -2.03125 L 5.40625 -5.578125 C 5.40625 -5.941406 5.351562 -6.175781 5.25 -6.28125 C 5.144531 -6.382812 4.910156 -6.4375 4.546875 -6.4375 Z M 2.671875 -6.4375 "/></g></g></g><g fill="#0350b6" fill-opacity="1"><g transform="translate(9.124472, 25.960801)"><g><path d="M 6.5625 -1.234375 C 6.5625 -0.972656 6.546875 -0.757812 6.515625 -0.59375 C 6.484375 -0.4375 6.421875 -0.3125 6.328125 -0.21875 C 6.242188 -0.125 6.117188 -0.0625 5.953125 -0.03125 C 5.796875 -0.0078125 5.585938 0 5.328125 0 L 1.890625 0 C 1.628906 0 1.414062 -0.015625 1.25 -0.046875 C 1.082031 -0.078125 0.953125 -0.132812 0.859375 -0.21875 C 0.773438 -0.3125 0.71875 -0.441406 0.6875 -0.609375 C 0.65625 -0.773438 0.640625 -0.984375 0.640625 -1.234375 L 0.640625 -3.3125 C 0.640625 -3.582031 0.648438 -3.800781 0.671875 -3.96875 C 0.703125 -4.132812 0.765625 -4.265625 0.859375 -4.359375 C 0.953125 -4.453125 1.078125 -4.507812 1.234375 -4.53125 C 1.398438 -4.5625 1.617188 -4.578125 1.890625 -4.578125 L 4.53125 -4.578125 C 4.71875 -4.578125 4.863281 -4.585938 4.96875 -4.609375 C 5.082031 -4.628906 5.171875 -4.671875 5.234375 -4.734375 C 5.296875 -4.796875 5.335938 -4.878906 5.359375 -4.984375 C 5.378906 -5.097656 5.390625 -5.25 5.390625 -5.4375 L 5.390625 -5.578125 C 5.390625 -5.765625 5.378906 -5.910156 5.359375 -6.015625 C 5.347656 -6.128906 5.3125 -6.21875 5.25 -6.28125 C 5.1875 -6.34375 5.097656 -6.378906 4.984375 -6.390625 C 4.878906 -6.410156 4.726562 -6.421875 4.53125 -6.421875 L 2.59375 -6.421875 C 2.320312 -6.421875 2.132812 -6.390625 2.03125 -6.328125 C 1.9375 -6.273438 1.878906 -6.160156 1.859375 -5.984375 L 1.828125 -5.75 C 1.765625 -5.394531 1.566406 -5.21875 1.234375 -5.21875 C 1.015625 -5.21875 0.859375 -5.28125 0.765625 -5.40625 C 0.679688 -5.539062 0.640625 -5.78125 0.640625 -6.125 L 0.640625 -6.328125 C 0.640625 -6.597656 0.648438 -6.816406 0.671875 -6.984375 C 0.703125 -7.148438 0.765625 -7.28125 0.859375 -7.375 C 0.953125 -7.46875 1.078125 -7.523438 1.234375 -7.546875 C 1.398438 -7.578125 1.617188 -7.59375 1.890625 -7.59375 L 5.34375 -7.59375 C 5.601562 -7.59375 5.8125 -7.578125 5.96875 -7.546875 C 6.132812 -7.523438 6.257812 -7.46875 6.34375 -7.375 C 6.4375 -7.28125 6.492188 -7.148438 6.515625 -6.984375 C 6.546875 -6.816406 6.5625 -6.597656 6.5625 -6.328125 Z M 3.71875 -3.40625 C 3.351562 -3.40625 3.117188 -3.351562 3.015625 -3.25 C 2.921875 -3.144531 2.875 -2.910156 2.875 -2.546875 L 2.875 -2.03125 C 2.875 -1.832031 2.878906 -1.675781 2.890625 -1.5625 C 2.910156 -1.457031 2.953125 -1.375 3.015625 -1.3125 C 3.078125 -1.25 3.164062 -1.207031 3.28125 -1.1875 C 3.394531 -1.175781 3.546875 -1.171875 3.734375 -1.171875 L 4.53125 -1.171875 C 4.71875 -1.171875 4.863281 -1.179688 4.96875 -1.203125 C 5.082031 -1.222656 5.171875 -1.265625 5.234375 -1.328125 C 5.296875 -1.390625 5.335938 -1.472656 5.359375 -1.578125 C 5.378906 -1.679688 5.390625 -1.828125 5.390625 -2.015625 L 5.390625 -2.5 C 5.390625 -2.707031 5.378906 -2.867188 5.359375 -2.984375 C 5.347656 -3.097656 5.3125 -3.1875 5.25 -3.25 C 5.1875 -3.320312 5.097656 -3.363281 4.984375 -3.375 C 4.878906 -3.394531 4.726562 -3.40625 4.53125 -3.40625 Z M 3.71875 -3.40625 "/></g></g></g><g fill="#0350b6" fill-opacity="1"><g transform="translate(16.330679, 25.960801)"><g><path d="M 1.1875 -9.34375 C 1.1875 -9.71875 1.226562 -9.976562 1.3125 -10.125 C 1.40625 -10.269531 1.566406 -10.34375 1.796875 -10.34375 C 2.015625 -10.34375 2.164062 -10.269531 2.25 -10.125 C 2.34375 -9.988281 2.390625 -9.734375 2.390625 -9.359375 L 2.390625 -8.203125 C 2.390625 -7.953125 2.410156 -7.789062 2.453125 -7.71875 C 2.503906 -7.65625 2.632812 -7.617188 2.84375 -7.609375 C 3.332031 -7.597656 3.578125 -7.398438 3.578125 -7.015625 C 3.578125 -6.628906 3.351562 -6.429688 2.90625 -6.421875 C 2.664062 -6.410156 2.515625 -6.367188 2.453125 -6.296875 C 2.398438 -6.234375 2.375 -6.078125 2.375 -5.828125 L 2.375 -5.484375 C 2.375 -5.222656 2.40625 -5.046875 2.46875 -4.953125 C 2.53125 -4.867188 2.675781 -4.796875 2.90625 -4.734375 C 3.125 -4.671875 3.265625 -4.585938 3.328125 -4.484375 C 3.398438 -4.378906 3.4375 -4.164062 3.4375 -3.84375 L 3.4375 -1.375 C 3.4375 -1.09375 3.421875 -0.863281 3.390625 -0.6875 C 3.367188 -0.507812 3.316406 -0.367188 3.234375 -0.265625 C 3.148438 -0.160156 3.035156 -0.0859375 2.890625 -0.046875 C 2.753906 -0.015625 2.578125 0 2.359375 0 C 2.023438 0 1.78125 -0.0234375 1.625 -0.078125 C 1.476562 -0.140625 1.367188 -0.257812 1.296875 -0.4375 C 1.242188 -0.519531 1.210938 -0.625 1.203125 -0.75 C 1.191406 -0.875 1.1875 -1.082031 1.1875 -1.375 L 1.1875 -5.71875 L 1.171875 -6 C 1.171875 -6.144531 1.144531 -6.242188 1.09375 -6.296875 C 1.050781 -6.347656 0.960938 -6.382812 0.828125 -6.40625 L 0.609375 -6.421875 C 0.203125 -6.453125 0 -6.644531 0 -7 C 0 -7.394531 0.222656 -7.59375 0.671875 -7.59375 C 0.796875 -7.59375 0.890625 -7.597656 0.953125 -7.609375 C 1.023438 -7.628906 1.078125 -7.671875 1.109375 -7.734375 C 1.140625 -7.796875 1.160156 -7.878906 1.171875 -7.984375 C 1.179688 -8.097656 1.1875 -8.253906 1.1875 -8.453125 Z M 1.1875 -9.34375 "/></g></g></g><g fill="#0350b6" fill-opacity="1"><g transform="translate(20.441602, 25.960801)"><g><path d="M 6.5625 -1.234375 C 6.5625 -0.972656 6.546875 -0.757812 6.515625 -0.59375 C 6.484375 -0.4375 6.421875 -0.3125 6.328125 -0.21875 C 6.242188 -0.125 6.117188 -0.0625 5.953125 -0.03125 C 5.796875 -0.0078125 5.585938 0 5.328125 0 L 1.890625 0 C 1.628906 0 1.414062 -0.015625 1.25 -0.046875 C 1.082031 -0.078125 0.953125 -0.132812 0.859375 -0.21875 C 0.773438 -0.3125 0.71875 -0.441406 0.6875 -0.609375 C 0.65625 -0.773438 0.640625 -0.984375 0.640625 -1.234375 L 0.640625 -3.3125 C 0.640625 -3.582031 0.648438 -3.800781 0.671875 -3.96875 C 0.703125 -4.132812 0.765625 -4.265625 0.859375 -4.359375 C 0.953125 -4.453125 1.078125 -4.507812 1.234375 -4.53125 C 1.398438 -4.5625 1.617188 -4.578125 1.890625 -4.578125 L 4.53125 -4.578125 C 4.71875 -4.578125 4.863281 -4.585938 4.96875 -4.609375 C 5.082031 -4.628906 5.171875 -4.671875 5.234375 -4.734375 C 5.296875 -4.796875 5.335938 -4.878906 5.359375 -4.984375 C 5.378906 -5.097656 5.390625 -5.25 5.390625 -5.4375 L 5.390625 -5.578125 C 5.390625 -5.765625 5.378906 -5.910156 5.359375 -6.015625 C 5.347656 -6.128906 5.3125 -6.21875 5.25 -6.28125 C 5.1875 -6.34375 5.097656 -6.378906 4.984375 -6.390625 C 4.878906 -6.410156 4.726562 -6.421875 4.53125 -6.421875 L 2.59375 -6.421875 C 2.320312 -6.421875 2.132812 -6.390625 2.03125 -6.328125 C 1.9375 -6.273438 1.878906 -6.160156 1.859375 -5.984375 L 1.828125 -5.75 C 1.765625 -5.394531 1.566406 -5.21875 1.234375 -5.21875 C 1.015625 -5.21875 0.859375 -5.28125 0.765625 -5.40625 C 0.679688 -5.539062 0.640625 -5.78125 0.640625 -6.125 L 0.640625 -6.328125 C 0.640625 -6.597656 0.648438 -6.816406 0.671875 -6.984375 C 0.703125 -7.148438 0.765625 -7.28125 0.859375 -7.375 C 0.953125 -7.46875 1.078125 -7.523438 1.234375 -7.546875 C 1.398438 -7.578125 1.617188 -7.59375 1.890625 -7.59375 L 5.34375 -7.59375 C 5.601562 -7.59375 5.8125 -7.578125 5.96875 -7.546875 C 6.132812 -7.523438 6.257812 -7.46875 6.34375 -7.375 C 6.4375 -7.28125 6.492188 -7.148438 6.515625 -6.984375 C 6.546875 -6.816406 6.5625 -6.597656 6.5625 -6.328125 Z M 3.71875 -3.40625 C 3.351562 -3.40625 3.117188 -3.351562 3.015625 -3.25 C 2.921875 -3.144531 2.875 -2.910156 2.875 -2.546875 L 2.875 -2.03125 C 2.875 -1.832031 2.878906 -1.675781 2.890625 -1.5625 C 2.910156 -1.457031 2.953125 -1.375 3.015625 -1.3125 C 3.078125 -1.25 3.164062 -1.207031 3.28125 -1.1875 C 3.394531 -1.175781 3.546875 -1.171875 3.734375 -1.171875 L 4.53125 -1.171875 C 4.71875 -1.171875 4.863281 -1.179688 4.96875 -1.203125 C 5.082031 -1.222656 5.171875 -1.265625 5.234375 -1.328125 C 5.296875 -1.390625 5.335938 -1.472656 5.359375 -1.578125 C 5.378906 -1.679688 5.390625 -1.828125 5.390625 -2.015625 L 5.390625 -2.5 C 5.390625 -2.707031 5.378906 -2.867188 5.359375 -2.984375 C 5.347656 -3.097656 5.3125 -3.1875 5.25 -3.25 C 5.1875 -3.320312 5.097656 -3.363281 4.984375 -3.375 C 4.878906 -3.394531 4.726562 -3.40625 4.53125 -3.40625 Z M 3.71875 -3.40625 "/></g></g></g><g fill="#0350b6" fill-opacity="1"><g transform="translate(35.299727, 25.960801)"><g><path d="M 6.5625 -1.234375 C 6.5625 -0.972656 6.546875 -0.757812 6.515625 -0.59375 C 6.484375 -0.4375 6.421875 -0.3125 6.328125 -0.21875 C 6.242188 -0.125 6.117188 -0.0625 5.953125 -0.03125 C 5.796875 -0.0078125 5.585938 0 5.328125 0 L 1.890625 0 C 1.628906 0 1.414062 -0.015625 1.25 -0.046875 C 1.082031 -0.078125 0.953125 -0.132812 0.859375 -0.21875 C 0.773438 -0.3125 0.71875 -0.441406 0.6875 -0.609375 C 0.65625 -0.773438 0.640625 -0.984375 0.640625 -1.234375 L 0.640625 -3.3125 C 0.640625 -3.582031 0.648438 -3.800781 0.671875 -3.96875 C 0.703125 -4.132812 0.765625 -4.265625 0.859375 -4.359375 C 0.953125 -4.453125 1.078125 -4.507812 1.234375 -4.53125 C 1.398438 -4.5625 1.617188 -4.578125 1.890625 -4.578125 L 4.53125 -4.578125 C 4.71875 -4.578125 4.863281 -4.585938 4.96875 -4.609375 C 5.082031 -4.628906 5.171875 -4.671875 5.234375 -4.734375 C 5.296875 -4.796875 5.335938 -4.878906 5.359375 -4.984375 C 5.378906 -5.097656 5.390625 -5.25 5.390625 -5.4375 L 5.390625 -5.578125 C 5.390625 -5.765625 5.378906 -5.910156 5.359375 -6.015625 C 5.347656 -6.128906 5.3125 -6.21875 5.25 -6.28125 C 5.1875 -6.34375 5.097656 -6.378906 4.984375 -6.390625 C 4.878906 -6.410156 4.726562 -6.421875 4.53125 -6.421875 L 2.59375 -6.421875 C 2.320312 -6.421875 2.132812 -6.390625 2.03125 -6.328125 C 1.9375 -6.273438 1.878906 -6.160156 1.859375 -5.984375 L 1.828125 -5.75 C 1.765625 -5.394531 1.566406 -5.21875 1.234375 -5.21875 C 1.015625 -5.21875 0.859375 -5.28125 0.765625 -5.40625 C 0.679688 -5.539062 0.640625 -5.78125 0.640625 -6.125 L 0.640625 -6.328125 C 0.640625 -6.597656 0.648438 -6.816406 0.671875 -6.984375 C 0.703125 -7.148438 0.765625 -7.28125 0.859375 -7.375 C 0.953125 -7.46875 1.078125 -7.523438 1.234375 -7.546875 C 1.398438 -7.578125 1.617188 -7.59375 1.890625 -7.59375 L 5.34375 -7.59375 C 5.601562 -7.59375 5.8125 -7.578125 5.96875 -7.546875 C 6.132812 -7.523438 6.257812 -7.46875 6.34375 -7.375 C 6.4375 -7.28125 6.492188 -7.148438 6.515625 -6.984375 C 6.546875 -6.816406 6.5625 -6.597656 6.5625 -6.328125 Z M 3.71875 -3.40625 C 3.351562 -3.40625 3.117188 -3.351562 3.015625 -3.25 C 2.921875 -3.144531 2.875 -2.910156 2.875 -2.546875 L 2.875 -2.03125 C 2.875 -1.832031 2.878906 -1.675781 2.890625 -1.5625 C 2.910156 -1.457031 2.953125 -1.375 3.015625 -1.3125 C 3.078125 -1.25 3.164062 -1.207031 3.28125 -1.1875 C 3.394531 -1.175781 3.546875 -1.171875 3.734375 -1.171875 L 4.53125 -1.171875 C 4.71875 -1.171875 4.863281 -1.179688 4.96875 -1.203125 C 5.082031 -1.222656 5.171875 -1.265625 5.234375 -1.328125 C 5.296875 -1.390625 5.335938 -1.472656 5.359375 -1.578125 C 5.378906 -1.679688 5.390625 -1.828125 5.390625 -2.015625 L 5.390625 -2.5 C 5.390625 -2.707031 5.378906 -2.867188 5.359375 -2.984375 C 5.347656 -3.097656 5.3125 -3.1875 5.25 -3.25 C 5.1875 -3.320312 5.097656 -3.363281 4.984375 -3.375 C 4.878906 -3.394531 4.726562 -3.40625 4.53125 -3.40625 Z M 3.71875 -3.40625 "/></g></g></g><g fill="#0350b6" fill-opacity="1"><g transform="translate(42.505933, 25.960801)"><g><path d="M 2.890625 -9.796875 C 2.890625 -9.421875 2.8125 -9.160156 2.65625 -9.015625 C 2.5 -8.867188 2.207031 -8.796875 1.78125 -8.796875 C 1.320312 -8.796875 1.015625 -8.859375 0.859375 -8.984375 C 0.703125 -9.117188 0.625 -9.367188 0.625 -9.734375 C 0.625 -10.117188 0.707031 -10.382812 0.875 -10.53125 C 1.039062 -10.6875 1.351562 -10.765625 1.8125 -10.765625 C 2.21875 -10.765625 2.5 -10.695312 2.65625 -10.5625 C 2.8125 -10.4375 2.890625 -10.179688 2.890625 -9.796875 Z M 2.890625 -1.375 C 2.890625 -1.09375 2.875 -0.863281 2.84375 -0.6875 C 2.820312 -0.507812 2.769531 -0.367188 2.6875 -0.265625 C 2.601562 -0.160156 2.488281 -0.0859375 2.34375 -0.046875 C 2.207031 -0.015625 2.03125 0 1.8125 0 C 1.476562 0 1.238281 -0.0234375 1.09375 -0.078125 C 0.945312 -0.140625 0.828125 -0.257812 0.734375 -0.4375 C 0.691406 -0.519531 0.664062 -0.625 0.65625 -0.75 C 0.644531 -0.875 0.640625 -1.082031 0.640625 -1.375 L 0.640625 -6.640625 C 0.640625 -7.015625 0.679688 -7.269531 0.765625 -7.40625 C 0.859375 -7.550781 1.015625 -7.625 1.234375 -7.625 C 1.453125 -7.625 1.601562 -7.550781 1.6875 -7.40625 C 1.78125 -7.269531 1.828125 -7.015625 1.828125 -6.640625 L 1.828125 -5.484375 C 1.828125 -5.222656 1.859375 -5.046875 1.921875 -4.953125 C 1.984375 -4.867188 2.128906 -4.796875 2.359375 -4.734375 C 2.578125 -4.671875 2.71875 -4.585938 2.78125 -4.484375 C 2.851562 -4.378906 2.890625 -4.164062 2.890625 -3.84375 Z M 2.890625 -1.375 "/></g></g></g><g fill="#000000" fill-opacity="1"><g transform="translate(27.13907, 25.960801)"><g><path d="M 5.140625 -3.015625 L 5.140625 0 L 3.46875 0 L 3.46875 -3.015625 L 0.5 -3.015625 L 0.5 -4.5625 L 3.46875 -4.5625 L 3.46875 -7.59375 L 5.140625 -7.59375 L 5.140625 -4.5625 L 8.078125 -4.5625 L 8.078125 -3.015625 Z M 5.140625 -3.015625 "/></g></g></g><g fill="#000000" fill-opacity="1"><g transform="translate(2.504956, 30.345384)"><g><path d="M 2.171875 -1.09375 C 2.171875 -1.1875 2.164062 -1.257812 2.15625 -1.3125 C 2.144531 -1.363281 2.125 -1.40625 2.09375 -1.4375 C 2.070312 -1.46875 2.035156 -1.484375 1.984375 -1.484375 C 1.941406 -1.492188 1.878906 -1.5 1.796875 -1.5 L 1.25 -1.5 C 1.164062 -1.5 1.097656 -1.492188 1.046875 -1.484375 C 1.003906 -1.484375 0.96875 -1.46875 0.9375 -1.4375 C 0.914062 -1.40625 0.898438 -1.363281 0.890625 -1.3125 C 0.890625 -1.257812 0.890625 -1.1875 0.890625 -1.09375 L 0.890625 -0.5 C 0.890625 -0.425781 0.882812 -0.367188 0.875 -0.328125 C 0.875 -0.285156 0.867188 -0.25 0.859375 -0.21875 C 0.859375 -0.1875 0.851562 -0.160156 0.84375 -0.140625 C 0.832031 -0.117188 0.820312 -0.0976562 0.8125 -0.078125 C 0.75 -0.0234375 0.648438 0 0.515625 0 C 0.347656 0 0.242188 -0.046875 0.203125 -0.140625 C 0.191406 -0.148438 0.179688 -0.164062 0.171875 -0.1875 C 0.171875 -0.207031 0.164062 -0.226562 0.15625 -0.25 C 0.15625 -0.28125 0.15625 -0.316406 0.15625 -0.359375 C 0.15625 -0.398438 0.15625 -0.445312 0.15625 -0.5 L 0.15625 -1.546875 C 0.15625 -1.609375 0.15625 -1.65625 0.15625 -1.6875 C 0.164062 -1.726562 0.175781 -1.757812 0.1875 -1.78125 C 0.195312 -1.8125 0.210938 -1.835938 0.234375 -1.859375 C 0.265625 -1.878906 0.300781 -1.894531 0.34375 -1.90625 C 0.375 -1.914062 0.398438 -1.925781 0.421875 -1.9375 C 0.441406 -1.957031 0.457031 -1.976562 0.46875 -2 C 0.476562 -2.03125 0.484375 -2.0625 0.484375 -2.09375 C 0.492188 -2.132812 0.5 -2.191406 0.5 -2.265625 L 0.5 -2.640625 C 0.5 -2.742188 0.503906 -2.820312 0.515625 -2.875 C 0.523438 -2.9375 0.546875 -2.984375 0.578125 -3.015625 C 0.609375 -3.054688 0.65625 -3.082031 0.71875 -3.09375 C 0.78125 -3.101562 0.859375 -3.109375 0.953125 -3.109375 L 1.765625 -3.109375 C 1.890625 -3.109375 1.972656 -3.097656 2.015625 -3.078125 C 2.066406 -3.066406 2.109375 -3.046875 2.140625 -3.015625 C 2.171875 -2.972656 2.191406 -2.925781 2.203125 -2.875 C 2.210938 -2.832031 2.21875 -2.753906 2.21875 -2.640625 L 2.21875 -2.265625 C 2.21875 -2.203125 2.21875 -2.148438 2.21875 -2.109375 C 2.226562 -2.066406 2.238281 -2.03125 2.25 -2 C 2.257812 -1.976562 2.269531 -1.960938 2.28125 -1.953125 C 2.300781 -1.941406 2.320312 -1.925781 2.34375 -1.90625 L 2.421875 -1.890625 C 2.460938 -1.867188 2.492188 -1.84375 2.515625 -1.8125 C 2.535156 -1.789062 2.546875 -1.753906 2.546875 -1.703125 C 2.546875 -1.691406 2.546875 -1.675781 2.546875 -1.65625 C 2.546875 -1.644531 2.550781 -1.613281 2.5625 -1.5625 L 2.5625 -0.3125 C 2.5625 -0.21875 2.554688 -0.148438 2.546875 -0.109375 C 2.535156 -0.078125 2.523438 -0.0507812 2.515625 -0.03125 C 2.472656 0.0078125 2.421875 0.03125 2.359375 0.03125 C 2.285156 0.03125 2.234375 0.0078125 2.203125 -0.03125 C 2.179688 -0.0820312 2.171875 -0.175781 2.171875 -0.3125 Z M 1.5 -1.890625 C 1.570312 -1.890625 1.628906 -1.890625 1.671875 -1.890625 C 1.710938 -1.898438 1.742188 -1.921875 1.765625 -1.953125 C 1.796875 -1.984375 1.8125 -2.023438 1.8125 -2.078125 C 1.820312 -2.140625 1.828125 -2.21875 1.828125 -2.3125 C 1.828125 -2.394531 1.820312 -2.460938 1.8125 -2.515625 C 1.8125 -2.566406 1.796875 -2.609375 1.765625 -2.640625 C 1.742188 -2.671875 1.710938 -2.691406 1.671875 -2.703125 C 1.628906 -2.710938 1.578125 -2.71875 1.515625 -2.71875 L 1.21875 -2.71875 C 1.144531 -2.71875 1.085938 -2.710938 1.046875 -2.703125 C 1.003906 -2.691406 0.96875 -2.671875 0.9375 -2.640625 C 0.914062 -2.609375 0.898438 -2.5625 0.890625 -2.5 C 0.890625 -2.4375 0.890625 -2.351562 0.890625 -2.25 C 0.890625 -2.164062 0.890625 -2.101562 0.890625 -2.0625 C 0.898438 -2.019531 0.914062 -1.984375 0.9375 -1.953125 C 0.96875 -1.921875 1.003906 -1.898438 1.046875 -1.890625 C 1.085938 -1.890625 1.144531 -1.890625 1.21875 -1.890625 Z M 1.5 -1.890625 "/></g></g></g><g fill="#000000" fill-opacity="1"><g transform="translate(5.848863, 30.345384)"><g/></g></g><g fill="#000000" fill-opacity="1"><g transform="translate(7.441358, 30.345384)"><g/></g></g><g fill="#000000" fill-opacity="1"><g transform="translate(9.035335, 30.345384)"><g><path d="M 2.515625 -0.375 C 2.515625 -0.226562 2.476562 -0.125 2.40625 -0.0625 C 2.375 -0.0390625 2.332031 -0.0234375 2.28125 -0.015625 C 2.238281 -0.00390625 2.160156 0 2.046875 0 L 0.6875 0 C 0.582031 0 0.5 -0.00390625 0.4375 -0.015625 C 0.382812 -0.0234375 0.335938 -0.046875 0.296875 -0.078125 C 0.265625 -0.109375 0.242188 -0.148438 0.234375 -0.203125 C 0.222656 -0.265625 0.21875 -0.347656 0.21875 -0.453125 L 0.21875 -2.6875 C 0.21875 -2.769531 0.222656 -2.835938 0.234375 -2.890625 C 0.242188 -2.941406 0.265625 -2.984375 0.296875 -3.015625 C 0.328125 -3.046875 0.367188 -3.066406 0.421875 -3.078125 C 0.484375 -3.097656 0.554688 -3.109375 0.640625 -3.109375 L 2.078125 -3.109375 C 2.171875 -3.109375 2.242188 -3.097656 2.296875 -3.078125 C 2.359375 -3.066406 2.40625 -3.046875 2.4375 -3.015625 C 2.476562 -2.984375 2.503906 -2.9375 2.515625 -2.875 C 2.523438 -2.8125 2.53125 -2.726562 2.53125 -2.625 L 2.515625 -2.40625 C 2.515625 -2.3125 2.5 -2.242188 2.46875 -2.203125 C 2.4375 -2.160156 2.390625 -2.140625 2.328125 -2.140625 C 2.253906 -2.140625 2.203125 -2.160156 2.171875 -2.203125 C 2.148438 -2.242188 2.132812 -2.3125 2.125 -2.40625 C 2.125 -2.476562 2.117188 -2.53125 2.109375 -2.5625 C 2.097656 -2.601562 2.078125 -2.632812 2.046875 -2.65625 C 2.023438 -2.6875 1.984375 -2.703125 1.921875 -2.703125 C 1.867188 -2.710938 1.796875 -2.71875 1.703125 -2.71875 L 0.984375 -2.71875 C 0.898438 -2.71875 0.832031 -2.710938 0.78125 -2.703125 C 0.726562 -2.691406 0.6875 -2.671875 0.65625 -2.640625 C 0.632812 -2.609375 0.617188 -2.5625 0.609375 -2.5 C 0.609375 -2.445312 0.609375 -2.375 0.609375 -2.28125 C 0.609375 -2.207031 0.609375 -2.148438 0.609375 -2.109375 C 0.609375 -2.078125 0.613281 -2.046875 0.625 -2.015625 C 0.632812 -1.992188 0.648438 -1.972656 0.671875 -1.953125 C 0.691406 -1.941406 0.71875 -1.925781 0.75 -1.90625 C 0.789062 -1.882812 0.828125 -1.863281 0.859375 -1.84375 C 0.890625 -1.832031 0.910156 -1.8125 0.921875 -1.78125 C 0.929688 -1.757812 0.9375 -1.722656 0.9375 -1.671875 C 0.9375 -1.628906 0.9375 -1.566406 0.9375 -1.484375 L 0.9375 -0.90625 C 0.9375 -0.863281 0.9375 -0.8125 0.9375 -0.75 C 0.945312 -0.695312 0.953125 -0.65625 0.953125 -0.625 C 0.953125 -0.53125 0.984375 -0.46875 1.046875 -0.4375 C 1.109375 -0.40625 1.222656 -0.390625 1.390625 -0.390625 L 1.703125 -0.390625 C 1.804688 -0.390625 1.882812 -0.390625 1.9375 -0.390625 C 2 -0.398438 2.039062 -0.421875 2.0625 -0.453125 C 2.09375 -0.484375 2.109375 -0.53125 2.109375 -0.59375 C 2.117188 -0.664062 2.125 -0.753906 2.125 -0.859375 C 2.125 -0.960938 2.140625 -1.035156 2.171875 -1.078125 C 2.203125 -1.117188 2.253906 -1.140625 2.328125 -1.140625 C 2.398438 -1.140625 2.445312 -1.117188 2.46875 -1.078125 C 2.5 -1.035156 2.515625 -0.960938 2.515625 -0.859375 Z M 2.515625 -0.375 "/></g></g></g><g fill="#000000" fill-opacity="1"><g transform="translate(12.341457, 30.345384)"><g/></g></g><g fill="#000000" fill-opacity="1"><g transform="translate(13.933952, 30.345384)"><g/></g></g><g fill="#000000" fill-opacity="1"><g transform="translate(15.527929, 30.345384)"><g><path d="M 2.171875 -1.09375 C 2.171875 -1.1875 2.164062 -1.257812 2.15625 -1.3125 C 2.144531 -1.363281 2.125 -1.40625 2.09375 -1.4375 C 2.070312 -1.46875 2.035156 -1.484375 1.984375 -1.484375 C 1.941406 -1.492188 1.878906 -1.5 1.796875 -1.5 L 1.25 -1.5 C 1.164062 -1.5 1.097656 -1.492188 1.046875 -1.484375 C 1.003906 -1.484375 0.96875 -1.46875 0.9375 -1.4375 C 0.914062 -1.40625 0.898438 -1.363281 0.890625 -1.3125 C 0.890625 -1.257812 0.890625 -1.1875 0.890625 -1.09375 L 0.890625 -0.5 C 0.890625 -0.425781 0.882812 -0.367188 0.875 -0.328125 C 0.875 -0.285156 0.867188 -0.25 0.859375 -0.21875 C 0.859375 -0.1875 0.851562 -0.160156 0.84375 -0.140625 C 0.832031 -0.117188 0.820312 -0.0976562 0.8125 -0.078125 C 0.75 -0.0234375 0.648438 0 0.515625 0 C 0.347656 0 0.242188 -0.046875 0.203125 -0.140625 C 0.191406 -0.148438 0.179688 -0.164062 0.171875 -0.1875 C 0.171875 -0.207031 0.164062 -0.226562 0.15625 -0.25 C 0.15625 -0.28125 0.15625 -0.316406 0.15625 -0.359375 C 0.15625 -0.398438 0.15625 -0.445312 0.15625 -0.5 L 0.15625 -1.546875 C 0.15625 -1.609375 0.15625 -1.65625 0.15625 -1.6875 C 0.164062 -1.726562 0.175781 -1.757812 0.1875 -1.78125 C 0.195312 -1.8125 0.210938 -1.835938 0.234375 -1.859375 C 0.265625 -1.878906 0.300781 -1.894531 0.34375 -1.90625 C 0.375 -1.914062 0.398438 -1.925781 0.421875 -1.9375 C 0.441406 -1.957031 0.457031 -1.976562 0.46875 -2 C 0.476562 -2.03125 0.484375 -2.0625 0.484375 -2.09375 C 0.492188 -2.132812 0.5 -2.191406 0.5 -2.265625 L 0.5 -2.640625 C 0.5 -2.742188 0.503906 -2.820312 0.515625 -2.875 C 0.523438 -2.9375 0.546875 -2.984375 0.578125 -3.015625 C 0.609375 -3.054688 0.65625 -3.082031 0.71875 -3.09375 C 0.78125 -3.101562 0.859375 -3.109375 0.953125 -3.109375 L 1.765625 -3.109375 C 1.890625 -3.109375 1.972656 -3.097656 2.015625 -3.078125 C 2.066406 -3.066406 2.109375 -3.046875 2.140625 -3.015625 C 2.171875 -2.972656 2.191406 -2.925781 2.203125 -2.875 C 2.210938 -2.832031 2.21875 -2.753906 2.21875 -2.640625 L 2.21875 -2.265625 C 2.21875 -2.203125 2.21875 -2.148438 2.21875 -2.109375 C 2.226562 -2.066406 2.238281 -2.03125 2.25 -2 C 2.257812 -1.976562 2.269531 -1.960938 2.28125 -1.953125 C 2.300781 -1.941406 2.320312 -1.925781 2.34375 -1.90625 L 2.421875 -1.890625 C 2.460938 -1.867188 2.492188 -1.84375 2.515625 -1.8125 C 2.535156 -1.789062 2.546875 -1.753906 2.546875 -1.703125 C 2.546875 -1.691406 2.546875 -1.675781 2.546875 -1.65625 C 2.546875 -1.644531 2.550781 -1.613281 2.5625 -1.5625 L 2.5625 -0.3125 C 2.5625 -0.21875 2.554688 -0.148438 2.546875 -0.109375 C 2.535156 -0.078125 2.523438 -0.0507812 2.515625 -0.03125 C 2.472656 0.0078125 2.421875 0.03125 2.359375 0.03125 C 2.285156 0.03125 2.234375 0.0078125 2.203125 -0.03125 C 2.179688 -0.0820312 2.171875 -0.175781 2.171875 -0.3125 Z M 1.5 -1.890625 C 1.570312 -1.890625 1.628906 -1.890625 1.671875 -1.890625 C 1.710938 -1.898438 1.742188 -1.921875 1.765625 -1.953125 C 1.796875 -1.984375 1.8125 -2.023438 1.8125 -2.078125 C 1.820312 -2.140625 1.828125 -2.21875 1.828125 -2.3125 C 1.828125 -2.394531 1.820312 -2.460938 1.8125 -2.515625 C 1.8125 -2.566406 1.796875 -2.609375 1.765625 -2.640625 C 1.742188 -2.671875 1.710938 -2.691406 1.671875 -2.703125 C 1.628906 -2.710938 1.578125 -2.71875 1.515625 -2.71875 L 1.21875 -2.71875 C 1.144531 -2.71875 1.085938 -2.710938 1.046875 -2.703125 C 1.003906 -2.691406 0.96875 -2.671875 0.9375 -2.640625 C 0.914062 -2.609375 0.898438 -2.5625 0.890625 -2.5 C 0.890625 -2.4375 0.890625 -2.351562 0.890625 -2.25 C 0.890625 -2.164062 0.890625 -2.101562 0.890625 -2.0625 C 0.898438 -2.019531 0.914062 -1.984375 0.9375 -1.953125 C 0.96875 -1.921875 1.003906 -1.898438 1.046875 -1.890625 C 1.085938 -1.890625 1.144531 -1.890625 1.21875 -1.890625 Z M 1.5 -1.890625 "/></g></g></g><g fill="#000000" fill-opacity="1"><g transform="translate(18.871835, 30.345384)"><g/></g></g><g fill="#000000" fill-opacity="1"><g transform="translate(20.464331, 30.345384)"><g/></g></g><g fill="#000000" fill-opacity="1"><g transform="translate(22.058307, 30.345384)"><g><path d="M 2.625 -0.40625 C 2.625 -0.3125 2.613281 -0.238281 2.59375 -0.1875 C 2.582031 -0.144531 2.554688 -0.101562 2.515625 -0.0625 C 2.484375 -0.0390625 2.441406 -0.0234375 2.390625 -0.015625 C 2.347656 -0.00390625 2.269531 0 2.15625 0 L 0.609375 0 C 0.453125 0 0.347656 -0.0234375 0.296875 -0.078125 C 0.242188 -0.140625 0.21875 -0.253906 0.21875 -0.421875 L 0.21875 -2.703125 C 0.21875 -2.859375 0.242188 -2.960938 0.296875 -3.015625 C 0.359375 -3.078125 0.472656 -3.109375 0.640625 -3.109375 L 2.21875 -3.109375 C 2.300781 -3.109375 2.367188 -3.097656 2.421875 -3.078125 C 2.472656 -3.066406 2.515625 -3.046875 2.546875 -3.015625 C 2.578125 -2.984375 2.597656 -2.9375 2.609375 -2.875 C 2.617188 -2.820312 2.625 -2.742188 2.625 -2.640625 Z M 0.96875 -2.71875 C 0.882812 -2.71875 0.816406 -2.710938 0.765625 -2.703125 C 0.722656 -2.691406 0.691406 -2.671875 0.671875 -2.640625 C 0.648438 -2.617188 0.632812 -2.578125 0.625 -2.515625 C 0.613281 -2.460938 0.609375 -2.394531 0.609375 -2.3125 C 0.609375 -2.226562 0.609375 -2.164062 0.609375 -2.125 C 0.609375 -2.082031 0.613281 -2.046875 0.625 -2.015625 C 0.632812 -1.992188 0.644531 -1.972656 0.65625 -1.953125 C 0.675781 -1.941406 0.703125 -1.929688 0.734375 -1.921875 L 0.8125 -1.875 C 0.851562 -1.863281 0.878906 -1.84375 0.890625 -1.8125 C 0.910156 -1.789062 0.925781 -1.757812 0.9375 -1.71875 C 0.9375 -1.695312 0.9375 -1.675781 0.9375 -1.65625 C 0.9375 -1.632812 0.9375 -1.582031 0.9375 -1.5 L 0.9375 -0.796875 C 0.9375 -0.703125 0.941406 -0.628906 0.953125 -0.578125 C 0.960938 -0.523438 0.984375 -0.484375 1.015625 -0.453125 C 1.046875 -0.429688 1.085938 -0.414062 1.140625 -0.40625 C 1.191406 -0.394531 1.265625 -0.390625 1.359375 -0.390625 L 1.90625 -0.390625 C 1.96875 -0.390625 2.019531 -0.394531 2.0625 -0.40625 C 2.113281 -0.414062 2.148438 -0.429688 2.171875 -0.453125 C 2.191406 -0.484375 2.207031 -0.523438 2.21875 -0.578125 C 2.226562 -0.628906 2.234375 -0.695312 2.234375 -0.78125 L 2.234375 -2.234375 C 2.234375 -2.347656 2.226562 -2.4375 2.21875 -2.5 C 2.21875 -2.570312 2.203125 -2.625 2.171875 -2.65625 C 2.148438 -2.6875 2.109375 -2.703125 2.046875 -2.703125 C 1.992188 -2.710938 1.921875 -2.71875 1.828125 -2.71875 Z M 0.96875 -2.71875 "/></g></g></g><g fill="#000000" fill-opacity="1"><g transform="translate(25.523963, 30.345384)"><g/></g></g><g fill="#000000" fill-opacity="1"><g transform="translate(27.116458, 30.345384)"><g/></g></g><g fill="#000000" fill-opacity="1"><g transform="translate(28.710435, 30.345384)"><g><path d="M 0.9375 -0.78125 C 0.9375 -0.695312 0.941406 -0.628906 0.953125 -0.578125 C 0.960938 -0.523438 0.976562 -0.484375 1 -0.453125 C 1.03125 -0.429688 1.070312 -0.414062 1.125 -0.40625 C 1.175781 -0.394531 1.25 -0.390625 1.34375 -0.390625 L 1.828125 -0.390625 C 1.929688 -0.390625 2.003906 -0.375 2.046875 -0.34375 C 2.097656 -0.320312 2.125 -0.273438 2.125 -0.203125 C 2.125 -0.128906 2.097656 -0.078125 2.046875 -0.046875 C 2.003906 -0.015625 1.929688 0 1.828125 0 L 0.640625 0 C 0.554688 0 0.488281 -0.00390625 0.4375 -0.015625 C 0.382812 -0.0234375 0.335938 -0.046875 0.296875 -0.078125 C 0.265625 -0.109375 0.242188 -0.148438 0.234375 -0.203125 C 0.222656 -0.253906 0.21875 -0.316406 0.21875 -0.390625 L 0.21875 -2.65625 C 0.21875 -2.75 0.222656 -2.820312 0.234375 -2.875 C 0.242188 -2.9375 0.265625 -2.984375 0.296875 -3.015625 C 0.328125 -3.046875 0.367188 -3.066406 0.421875 -3.078125 C 0.472656 -3.097656 0.546875 -3.109375 0.640625 -3.109375 L 1.875 -3.109375 C 2.039062 -3.109375 2.125 -3.039062 2.125 -2.90625 C 2.125 -2.78125 2.039062 -2.71875 1.875 -2.71875 L 0.953125 -2.71875 C 0.878906 -2.71875 0.816406 -2.710938 0.765625 -2.703125 C 0.722656 -2.691406 0.691406 -2.671875 0.671875 -2.640625 C 0.648438 -2.609375 0.632812 -2.5625 0.625 -2.5 C 0.613281 -2.445312 0.609375 -2.367188 0.609375 -2.265625 C 0.609375 -2.191406 0.613281 -2.128906 0.625 -2.078125 C 0.632812 -2.023438 0.644531 -1.984375 0.65625 -1.953125 C 0.675781 -1.929688 0.703125 -1.914062 0.734375 -1.90625 C 0.773438 -1.894531 0.828125 -1.890625 0.890625 -1.890625 L 1.765625 -1.890625 C 1.835938 -1.890625 1.890625 -1.890625 1.921875 -1.890625 C 1.953125 -1.890625 1.984375 -1.882812 2.015625 -1.875 C 2.046875 -1.863281 2.070312 -1.84375 2.09375 -1.8125 C 2.113281 -1.78125 2.125 -1.742188 2.125 -1.703125 C 2.125 -1.640625 2.101562 -1.585938 2.0625 -1.546875 C 2.03125 -1.515625 1.984375 -1.5 1.921875 -1.5 L 1.3125 -1.5 C 1.226562 -1.5 1.160156 -1.492188 1.109375 -1.484375 C 1.054688 -1.484375 1.019531 -1.46875 1 -1.4375 C 0.976562 -1.40625 0.960938 -1.351562 0.953125 -1.28125 C 0.941406 -1.21875 0.9375 -1.132812 0.9375 -1.03125 Z M 0.9375 -0.78125 "/></g></g></g><g fill="#000000" fill-opacity="1"><g transform="translate(31.621922, 30.345384)"><g/></g></g><g fill="#000000" fill-opacity="1"><g transform="translate(33.214418, 30.345384)"><g/></g></g><g fill="#000000" fill-opacity="1"><g transform="translate(34.808394, 30.345384)"><g><path d="M 3.515625 -0.234375 C 3.515625 -0.0546875 3.445312 0.03125 3.3125 0.03125 C 3.1875 0.03125 3.125 -0.0546875 3.125 -0.234375 L 3.125 -2.3125 C 3.125 -2.40625 3.117188 -2.476562 3.109375 -2.53125 C 3.097656 -2.582031 3.082031 -2.625 3.0625 -2.65625 C 3.039062 -2.6875 3.003906 -2.703125 2.953125 -2.703125 C 2.898438 -2.710938 2.828125 -2.71875 2.734375 -2.71875 L 2.515625 -2.71875 C 2.429688 -2.71875 2.367188 -2.710938 2.328125 -2.703125 C 2.285156 -2.691406 2.25 -2.671875 2.21875 -2.640625 C 2.195312 -2.617188 2.179688 -2.578125 2.171875 -2.515625 C 2.160156 -2.460938 2.15625 -2.394531 2.15625 -2.3125 L 2.15625 -0.234375 C 2.15625 -0.0546875 2.09375 0.03125 1.96875 0.03125 C 1.894531 0.03125 1.84375 0.0078125 1.8125 -0.03125 C 1.78125 -0.0703125 1.765625 -0.140625 1.765625 -0.234375 L 1.765625 -2.3125 C 1.765625 -2.394531 1.757812 -2.460938 1.75 -2.515625 C 1.738281 -2.566406 1.722656 -2.609375 1.703125 -2.640625 C 1.679688 -2.671875 1.648438 -2.691406 1.609375 -2.703125 C 1.566406 -2.710938 1.507812 -2.71875 1.4375 -2.71875 L 0.953125 -2.71875 C 0.890625 -2.71875 0.832031 -2.710938 0.78125 -2.703125 C 0.738281 -2.691406 0.703125 -2.671875 0.671875 -2.640625 C 0.648438 -2.617188 0.632812 -2.582031 0.625 -2.53125 C 0.625 -2.488281 0.625 -2.425781 0.625 -2.34375 L 0.625 -2.203125 C 0.625 -2.148438 0.625 -2.109375 0.625 -2.078125 C 0.632812 -2.046875 0.644531 -2.019531 0.65625 -2 C 0.664062 -1.976562 0.679688 -1.957031 0.703125 -1.9375 C 0.722656 -1.925781 0.753906 -1.914062 0.796875 -1.90625 C 0.859375 -1.875 0.898438 -1.835938 0.921875 -1.796875 C 0.941406 -1.753906 0.953125 -1.6875 0.953125 -1.59375 L 0.953125 -0.421875 C 0.953125 -0.265625 0.925781 -0.15625 0.875 -0.09375 C 0.820312 -0.03125 0.726562 0 0.59375 0 C 0.445312 0 0.347656 -0.03125 0.296875 -0.09375 C 0.242188 -0.15625 0.21875 -0.265625 0.21875 -0.421875 L 0.21875 -2.65625 C 0.21875 -2.75 0.222656 -2.820312 0.234375 -2.875 C 0.242188 -2.9375 0.265625 -2.984375 0.296875 -3.015625 C 0.335938 -3.046875 0.390625 -3.066406 0.453125 -3.078125 C 0.515625 -3.097656 0.59375 -3.109375 0.6875 -3.109375 L 3.046875 -3.109375 C 3.148438 -3.109375 3.226562 -3.101562 3.28125 -3.09375 C 3.34375 -3.082031 3.390625 -3.054688 3.421875 -3.015625 C 3.460938 -2.984375 3.488281 -2.9375 3.5 -2.875 C 3.507812 -2.8125 3.515625 -2.726562 3.515625 -2.625 Z M 3.515625 -0.234375 "/></g></g></g><g fill="#000000" fill-opacity="1"><g transform="translate(39.16198, 30.345384)"><g/></g></g><g fill="#000000" fill-opacity="1"><g transform="translate(40.754475, 30.345384)"><g/></g></g><g fill="#000000" fill-opacity="1"><g transform="translate(42.348452, 30.345384)"><g><path d="M 1.59375 -0.46875 C 1.59375 -0.382812 1.585938 -0.316406 1.578125 -0.265625 C 1.566406 -0.222656 1.554688 -0.1875 1.546875 -0.15625 C 1.523438 -0.101562 1.488281 -0.0625 1.4375 -0.03125 C 1.382812 -0.0078125 1.316406 0 1.234375 0 C 1.160156 0 1.097656 -0.00390625 1.046875 -0.015625 C 0.992188 -0.0351562 0.953125 -0.0625 0.921875 -0.09375 C 0.898438 -0.125 0.882812 -0.171875 0.875 -0.234375 C 0.863281 -0.296875 0.859375 -0.375 0.859375 -0.46875 L 0.859375 -1.140625 C 0.859375 -1.210938 0.851562 -1.269531 0.84375 -1.3125 C 0.832031 -1.363281 0.816406 -1.398438 0.796875 -1.421875 C 0.773438 -1.453125 0.742188 -1.472656 0.703125 -1.484375 C 0.671875 -1.503906 0.625 -1.515625 0.5625 -1.515625 L 0.484375 -1.515625 C 0.410156 -1.515625 0.347656 -1.519531 0.296875 -1.53125 C 0.253906 -1.550781 0.21875 -1.578125 0.1875 -1.609375 C 0.164062 -1.640625 0.148438 -1.679688 0.140625 -1.734375 C 0.128906 -1.796875 0.125 -1.867188 0.125 -1.953125 L 0.125 -2.84375 C 0.125 -2.945312 0.140625 -3.019531 0.171875 -3.0625 C 0.203125 -3.101562 0.253906 -3.125 0.328125 -3.125 C 0.398438 -3.125 0.445312 -3.101562 0.46875 -3.0625 C 0.5 -3.019531 0.515625 -2.945312 0.515625 -2.84375 L 0.515625 -2.25 C 0.515625 -2.164062 0.519531 -2.101562 0.53125 -2.0625 C 0.539062 -2.019531 0.554688 -1.984375 0.578125 -1.953125 C 0.609375 -1.929688 0.648438 -1.914062 0.703125 -1.90625 C 0.753906 -1.894531 0.828125 -1.890625 0.921875 -1.890625 L 1.53125 -1.890625 C 1.613281 -1.890625 1.679688 -1.894531 1.734375 -1.90625 C 1.796875 -1.914062 1.835938 -1.929688 1.859375 -1.953125 C 1.890625 -1.984375 1.90625 -2.019531 1.90625 -2.0625 C 1.914062 -2.101562 1.921875 -2.164062 1.921875 -2.25 L 1.921875 -2.859375 C 1.921875 -2.953125 1.9375 -3.019531 1.96875 -3.0625 C 2 -3.101562 2.050781 -3.125 2.125 -3.125 C 2.195312 -3.125 2.25 -3.101562 2.28125 -3.0625 C 2.3125 -3.019531 2.328125 -2.945312 2.328125 -2.84375 L 2.328125 -1.953125 C 2.328125 -1.867188 2.320312 -1.796875 2.3125 -1.734375 C 2.300781 -1.679688 2.28125 -1.640625 2.25 -1.609375 C 2.226562 -1.578125 2.191406 -1.550781 2.140625 -1.53125 C 2.097656 -1.519531 2.039062 -1.507812 1.96875 -1.5 L 1.890625 -1.5 C 1.828125 -1.5 1.773438 -1.492188 1.734375 -1.484375 C 1.691406 -1.472656 1.660156 -1.453125 1.640625 -1.421875 C 1.617188 -1.398438 1.601562 -1.363281 1.59375 -1.3125 C 1.59375 -1.269531 1.59375 -1.210938 1.59375 -1.140625 Z M 1.59375 -0.46875 "/></g></g></g></svg>