<svg xmlns="http://www.w3.org/2000/svg" xmlns:xlink="http://www.w3.org/1999/xlink" width="64" zoomAndPan="magnify" viewBox="0 0 48 48" height="64" preserveAspectRatio="xMidYMid meet" version="1.0"><defs><g/><clipPath id="1803058df6"><path d="M 0.488281 0 L 47.507812 0 L 47.507812 47.019531 L 0.488281 47.019531 Z M 0.488281 0 " clip-rule="nonzero"/></clipPath></defs><g clip-path="url(#1803058df6)"><path fill="#ffffff" d="M 0.488281 0 L 47.511719 0 L 47.511719 47.019531 L 0.488281 47.019531 Z M 0.488281 0 " fill-opacity="1" fill-rule="nonzero"/><path fill="#ffffff" d="M 0.488281 0 L 47.511719 0 L 47.511719 47.019531 L 0.488281 47.019531 Z M 0.488281 0 " fill-opacity="1" fill-rule="nonzero"/></g><g fill="#0350b6" fill-opacity="1"><g transform="translate(1.918266, 25.960801)"><g><path d="M 6.5625 -1.234375 C 6.5625 -0.992188 6.546875 -0.789062 6.515625 -0.625 C 6.484375 -0.46875 6.421875 -0.34375 6.328125 -0.25 C 6.234375 -0.15625 6.109375 -0.0859375 5.953125 -0.046875 C 5.796875 -0.015625 5.597656 0 5.359375 0 L 1.890625 0 C 1.628906 0 1.414062 -0.0078125 1.25 -0.03125 C 1.082031 -0.0625 0.953125 -0.125 0.859375 -0.21875 C 0.773438 -0.3125 0.71875 -0.4375 0.6875 -0.59375 C 0.65625 -0.757812 0.640625 -0.972656 0.640625 -1.234375 L 0.640625 -6.34375 C 0.640625 -6.601562 0.648438 -6.816406 0.671875 -6.984375 C 0.703125 -7.148438 0.765625 -7.28125 0.859375 -7.375 C 0.953125 -7.46875 1.078125 -7.523438 1.234375 -7.546875 C 1.398438 -7.578125 1.617188 -7.59375 1.890625 -7.59375 L 4.640625 -7.59375 C 4.941406 -7.59375 5.140625 -7.644531 5.234375 -7.75 C 5.335938 -7.851562 5.390625 -8.050781 5.390625 -8.34375 L 5.390625 -9.796875 C 5.390625 -10.179688 5.429688 -10.441406 5.515625 -10.578125 C 5.597656 -10.710938 5.75 -10.78125 5.96875 -10.78125 C 6.207031 -10.78125 6.363281 -10.710938 6.4375 -10.578125 C 6.519531 -10.441406 6.5625 -10.179688 6.5625 -9.796875 Z M 2.671875 -6.4375 C 2.304688 -6.4375 2.070312 -6.382812 1.96875 -6.28125 C 1.875 -6.175781 1.828125 -5.941406 1.828125 -5.578125 L 1.828125 -5.125 C 1.828125 -4.863281 1.859375 -4.6875 1.921875 -4.59375 C 1.984375 -4.507812 2.128906 -4.441406 2.359375 -4.390625 C 2.578125 -4.328125 2.71875 -4.238281 2.78125 -4.125 C 2.851562 -4.019531 2.890625 -3.804688 2.890625 -3.484375 L 2.890625 -2.03125 C 2.890625 -1.832031 2.894531 -1.675781 2.90625 -1.5625 C 2.925781 -1.457031 2.96875 -1.375 3.03125 -1.3125 C 3.09375 -1.25 3.179688 -1.207031 3.296875 -1.1875 C 3.410156 -1.175781 3.5625 -1.171875 3.75 -1.171875 L 4.53125 -1.171875 C 4.71875 -1.171875 4.863281 -1.179688 4.96875 -1.203125 C 5.082031 -1.222656 5.171875 -1.265625 5.234375 -1.328125 C 5.304688 -1.390625 5.351562 -1.472656 5.375 -1.578125 C 5.394531 -1.691406 5.40625 -1.84375 5.40625 -2.03125 L 5.40625 -5.578125 C 5.40625 -5.941406 5.351562 -6.175781 5.25 -6.28125 C 5.144531 -6.382812 4.910156 -6.4375 4.546875 -6.4375 Z M 2.671875 -6.4375 "/></g></g></g><g fill="#0350b6" fill-opacity="1"><g transform="translate(9.124472, 25.960801)"><g><path d="M 6.5625 -1.234375 C 6.5625 -0.972656 6.546875 -0.757812 6.515625 -0.59375 C 6.484375 -0.4375 6.421875 -0.3125 6.328125 -0.21875 C 6.242188 -0.125 6.117188 -0.0625 5.953125 -0.03125 C 5.796875 -0.0078125 5.585938 0 5.328125 0 L 1.890625 0 C 1.628906 0 1.414062 -0.015625 1.25 -0.046875 C 1.082031 -0.078125 0.953125 -0.132812 0.859375 -0.21875 C 0.773438 -0.3125 0.71875 -0.441406 0.6875 -0.609375 C 0.65625 -0.773438 0.640625 -0.984375 0.640625 -1.234375 L 0.640625 -3.3125 C 0.640625 -3.582031 0.648438 -3.800781 0.671875 -3.96875 C 0.703125 -4.132812 0.765625 -4.265625 0.859375 -4.359375 C 0.953125 -4.453125 1.078125 -4.507812 1.234375 -4.53125 C 1.398438 -4.5625 1.617188 -4.578125 1.890625 -4.578125 L 4.53125 -4.578125 C 4.71875 -4.578125 4.863281 -4.585938 4.96875 -4.609375 C 5.082031 -4.628906 5.171875 -4.671875 5.234375 -4.734375 C 5.296875 -4.796875 5.335938 -4.878906 5.359375 -4.984375 C 5.378906 -5.097656 5.390625 -5.25 5.390625 -5.4375 L 5.390625 -5.578125 C 5.390625 -5.765625 5.378906 -5.910156 5.359375 -6.015625 C 5.347656 -6.128906 5.3125 -6.21875 5.25 -6.28125 C 5.1875 -6.34375 5.097656 -6.378906 4.984375 -6.390625 C 4.878906 -6.410156 4.726562 -6.421875 4.53125 -6.421875 L 2.59375 -6.421875 C 2.320312 -6.421875 2.132812 -6.390625 2.03125 -6.328125 C 1.9375 -6.273438 1.878906 -6.160156 1.859375 -5.984375 L 1.828125 -5.75 C 1.765625 -5.394531 1.566406 -5.21875 1.234375 -5.21875 C 1.015625 -5.21875 0.859375 -5.28125 0.765625 -5.40625 C 0.679688 -5.539062 0.640625 -5.78125 0.640625 -6.125 L 0.640625 -6.328125 C 0.640625 -6.597656 0.648438 -6.816406 0.671875 -6.984375 C 0.703125 -7.148438 0.765625 -7.28125 0.859375 -7.375 C 0.953125 -7.46875 1.078125 -7.523438 1.234375 -7.546875 C 1.398438 -7.578125 1.617188 -7.59375 1.890625 -7.59375 L 5.34375 -7.59375 C 5.601562 -7.59375 5.8125 -7.578125 5.96875 -7.546875 C 6.132812 -7.523438 6.257812 -7.46875 6.34375 -7.375 C 6.4375 -7.28125 6.492188 -7.148438 6.515625 -6.984375 C 6.546875 -6.816406 6.5625 -6.597656 6.5625 -6.328125 Z M 3.71875 -3.40625 C 3.351562 -3.40625 3.117188 -3.351562 3.015625 -3.25 C 2.921875 -3.144531 2.875 -2.910156 2.875 -2.546875 L 2.875 -2.03125 C 2.875 -1.832031 2.878906 -1.675781 2.890625 -1.5625 C 2.910156 -1.457031 2.953125 -1.375 3.015625 -1.3125 C 3.078125 -1.25 3.164062 -1.207031 3.28125 -1.1875 C 3.394531 -1.175781 3.546875 -1.171875 3.734375 -1.171875 L 4.53125 -1.171875 C 4.71875 -1.171875 4.863281 -1.179688 4.96875 -1.203125 C 5.082031 -1.222656 5.171875 -1.265625 5.234375 -1.328125 C 5.296875 -1.390625 5.335938 -1.472656 5.359375 -1.578125 C 5.378906 -1.679688 5.390625 -1.828125 5.390625 -2.015625 L 5.390625 -2.5 C 5.390625 -2.707031 5.378906 -2.867188 5.359375 -2.984375 C 5.347656 -3.097656 5.3125 -3.1875 5.25 -3.25 C 5.1875 -3.320312 5.097656 -3.363281 4.984375 -3.375 C 4.878906 -3.394531 4.726562 -3.40625 4.53125 -3.40625 Z M 3.71875 -3.40625 "/></g></g></g><g fill="#0350b6" fill-opacity="1"><g transform="translate(16.330679, 25.960801)"><g><path d="M 1.1875 -9.34375 C 1.1875 -9.71875 1.226562 -9.976562 1.3125 -10.125 C 1.40625 -10.269531 1.566406 -10.34375 1.796875 -10.34375 C 2.015625 -10.34375 2.164062 -10.269531 2.25 -10.125 C 2.34375 -9.988281 2.390625 -9.734375 2.390625 -9.359375 L 2.390625 -8.203125 C 2.390625 -7.953125 2.410156 -7.789062 2.453125 -7.71875 C 2.503906 -7.65625 2.632812 -7.617188 2.84375 -7.609375 C 3.332031 -7.597656 3.578125 -7.398438 3.578125 -7.015625 C 3.578125 -6.628906 3.351562 -6.429688 2.90625 -6.421875 C 2.664062 -6.410156 2.515625 -6.367188 2.453125 -6.296875 C 2.398438 -6.234375 2.375 -6.078125 2.375 -5.828125 L 2.375 -5.484375 C 2.375 -5.222656 2.40625 -5.046875 2.46875 -4.953125 C 2.53125 -4.867188 2.675781 -4.796875 2.90625 -4.734375 C 3.125 -4.671875 3.265625 -4.585938 3.328125 -4.484375 C 3.398438 -4.378906 3.4375 -4.164062 3.4375 -3.84375 L 3.4375 -1.375 C 3.4375 -1.09375 3.421875 -0.863281 3.390625 -0.6875 C 3.367188 -0.507812 3.316406 -0.367188 3.234375 -0.265625 C 3.148438 -0.160156 3.035156 -0.0859375 2.890625 -0.046875 C 2.753906 -0.015625 2.578125 0 2.359375 0 C 2.023438 0 1.78125 -0.0234375 1.625 -0.078125 C 1.476562 -0.140625 1.367188 -0.257812 1.296875 -0.4375 C 1.242188 -0.519531 1.210938 -0.625 1.203125 -0.75 C 1.191406 -0.875 1.1875 -1.082031 1.1875 -1.375 L 1.1875 -5.71875 L 1.171875 -6 C 1.171875 -6.144531 1.144531 -6.242188 1.09375 -6.296875 C 1.050781 -6.347656 0.960938 -6.382812 0.828125 -6.40625 L 0.609375 -6.421875 C 0.203125 -6.453125 0 -6.644531 0 -7 C 0 -7.394531 0.222656 -7.59375 0.671875 -7.59375 C 0.796875 -7.59375 0.890625 -7.597656 0.953125 -7.609375 C 1.023438 -7.628906 1.078125 -7.671875 1.109375 -7.734375 C 1.140625 -7.796875 1.160156 -7.878906 1.171875 -7.984375 C 1.179688 -8.097656 1.1875 -8.253906 1.1875 -8.453125 Z M 1.1875 -9.34375 "/></g></g></g><g fill="#0350b6" fill-opacity="1"><g transform="translate(20.441602, 25.960801)"><g><path d="M 6.5625 -1.234375 C 6.5625 -0.972656 6.546875 -0.757812 6.515625 -0.59375 C 6.484375 -0.4375 6.421875 -0.3125 6.328125 -0.21875 C 6.242188 -0.125 6.117188 -0.0625 5.953125 -0.03125 C 5.796875 -0.0078125 5.585938 0 5.328125 0 L 1.890625 0 C 1.628906 0 1.414062 -0.015625 1.25 -0.046875 C 1.082031 -0.078125 0.953125 -0.132812 0.859375 -0.21875 C 0.773438 -0.3125 0.71875 -0.441406 0.6875 -0.609375 C 0.65625 -0.773438 0.640625 -0.984375 0.640625 -1.234375 L 0.640625 -3.3125 C 0.640625 -3.582031 0.648438 -3.800781 0.671875 -3.96875 C 0.703125 -4.132812 0.765625 -4.265625 0.859375 -4.359375 C 0.953125 -4.453125 1.078125 -4.507812 1.234375 -4.53125 C 1.398438 -4.5625 1.617188 -4.578125 1.890625 -4.578125 L 4.53125 -4.578125 C 4.71875 -4.578125 4.863281 -4.585938 4.96875 -4.609375 C 5.082031 -4.628906 5.171875 -4.671875 5.234375 -4.734375 C 5.296875 -4.796875 5.335938 -4.878906 5.359375 -4.984375 C 5.378906 -5.097656 5.390625 -5.25 5.390625 -5.4375 L 5.390625 -5.578125 C 5.390625 -5.765625 5.378906 -5.910156 5.359375 -6.015625 C 5.347656 -6.128906 5.3125 -6.21875 5.25 -6.28125 C 5.1875 -6.34375 5.097656 -6.378906 4.984375 -6.390625 C 4.878906 -6.410156 4.726562 -6.421875 4.53125 -6.421875 L 2.59375 -6.421875 C 2.320312 -6.421875 2.132812 -6.390625 2.03125 -6.328125 C 1.9375 -6.273438 1.878906 -6.160156 1.859375 -5.984375 L 1.828125 -5.75 C 1.765625 -5.394531 1.566406 -5.21875 1.234375 -5.21875 C 1.015625 -5.21875 0.859375 -5.28125 0.765625 -5.40625 C 0.679688 -5.539062 0.640625 -5.78125 0.640625 -6.125 L 0.640625 -6.328125 C 0.640625 -6.597656 0.648438 -6.816406 0.671875 -6.984375 C 0.703125 -7.148438 0.765625 -7.28125 0.859375 -7.375 C 0.953125 -7.46875 1.078125 -7.523438 1.234375 -7.546875 C 1.398438 -7.578125 1.617188 -7.59375 1.890625 -7.59375 L 5.34375 -7.59375 C 5.601562 -7.59375 5.8125 -7.578125 5.96875 -7.546875 C 6.132812 -7.523438 6.257812 -7.46875 6.34375 -7.375 C 6.4375 -7.28125 6.492188 -7.148438 6.515625 -6.984375 C 6.546875 -6.816406 6.5625 -6.597656 6.5625 -6.328125 Z M 3.71875 -3.40625 C 3.351562 -3.40625 3.117188 -3.351562 3.015625 -3.25 C 2.921875 -3.144531 2.875 -2.910156 2.875 -2.546875 L 2.875 -2.03125 C 2.875 -1.832031 2.878906 -1.675781 2.890625 -1.5625 C 2.910156 -1.457031 2.953125 -1.375 3.015625 -1.3125 C 3.078125 -1.25 3.164062 -1.207031 3.28125 -1.1875 C 3.394531 -1.175781 3.546875 -1.171875 3.734375 -1.171875 L 4.53125 -1.171875 C 4.71875 -1.171875 4.863281 -1.179688 4.96875 -1.203125 C 5.082031 -1.222656 5.171875 -1.265625 5.234375 -1.328125 C 5.296875 -1.390625 5.335938 -1.472656 5.359375 -1.578125 C 5.378906 -1.679688 5.390625 -1.828125 5.390625 -2.015625 L 5.390625 -2.5 C 5.390625 -2.707031 5.378906 -2.867188 5.359375 -2.984375 C 5.347656 -3.097656 5.3125 -3.1875 5.25 -3.25 C 5.1875 -3.320312 5.097656 -3.363281 4.984375 -3.375 C 4.878906 -3.394531 4.726562 -3.40625 4.53125 -3.40625 Z M 3.71875 -3.40625 "/></g></g></g><g fill="#0350b6" fill-opacity="1"><g transform="translate(35.299727, 25.960801)"><g><path d="M 6.5625 -1.234375 C 6.5625 -0.972656 6.546875 -0.757812 6.515625 -0.59375 C 6.484375 -0.4375 6.421875 -0.3125 6.328125 -0.21875 C 6.242188 -0.125 6.117188 -0.0625 5.953125 -0.03125 C 5.796875 -0.0078125 5.585938 0 5.328125 0 L 1.890625 0 C 1.628906 0 1.414062 -0.015625 1.25 -0.046875 C 1.082031 -0.078125 0.953125 -0.132812 0.859375 -0.21875 C 0.773438 -0.3125 0.71875 -0.441406 0.6875 -0.609375 C 0.65625 -0.773438 0.640625 -0.984375 0.640625 -1.234375 L 0.640625 -3.3125 C 0.640625 -3.582031 0.648438 -3.800781 0.671875 -3.96875 C 0.703125 -4.132812 0.765625 -4.265625 0.859375 -4.359375 C 0.953125 -4.453125 1.078125 -4.507812 1.234375 -4.53125 C 1.398438 -4.5625 1.617188 -4.578125 1.890625 -4.578125 L 4.53125 -4.578125 C 4.71875 -4.578125 4.863281 -4.585938 4.96875 -4.609375 C 5.082031 -4.628906 5.171875 -4.671875 5.234375 -4.734375 C 5.296875 -4.796875 5.335938 -4.878906 5.359375 -4.984375 C 5.378906 -5.097656 5.390625 -5.25 5.390625 -5.4375 L 5.390625 -5.578125 C 5.390625 -5.765625 5.378906 -5.910156 5.359375 -6.015625 C 5.347656 -6.128906 5.3125 -6.21875 5.25 -6.28125 C 5.1875 -6.34375 5.097656 -6.378906 4.984375 -6.390625 C 4.878906 -6.410156 4.726562 -6.421875 4.53125 -6.421875 L 2.59375 -6.421875 C 2.320312 -6.421875 2.132812 -6.390625 2.03125 -6.328125 C 1.9375 -6.273438 1.878906 -6.160156 1.859375 -5.984375 L 1.828125 -5.75 C 1.765625 -5.394531 1.566406 -5.21875 1.234375 -5.21875 C 1.015625 -5.21875 0.859375 -5.28125 0.765625 -5.40625 C 0.679688 -5.539062 0.640625 -5.78125 0.640625 -6.125 L 0.640625 -6.328125 C 0.640625 -6.597656 0.648438 -6.816406 0.671875 -6.984375 C 0.703125 -7.148438 0.765625 -7.28125 0.859375 -7.375 C 0.953125 -7.46875 1.078125 -7.523438 1.234375 -7.546875 C 1.398438 -7.578125 1.617188 -7.59375 1.890625 -7.59375 L 5.34375 -7.59375 C 5.601562 -7.59375 5.8125 -7.578125 5.96875 -7.546875 C 6.132812 -7.523438 6.257812 -7.46875 6.34375 -7.375 C 6.4375 -7.28125 6.492188 -7.148438 6.515625 -6.984375 C 6.546875 -6.816406 6.5625 -6.597656 6.5625 -6.328125 Z M 3.71875 -3.40625 C 3.351562 -3.40625 3.117188 -3.351562 3.015625 -3.25 C 2.921875 -3.144531 2.875 -2.910156 2.875 -2.546875 L 2.875 -2.03125 C 2.875 -1.832031 2.878906 -1.675781 2.890625 -1.5625 C 2.910156 -1.457031 2.953125 -1.375 3.015625 -1.3125 C 3.078125 -1.25 3.164062 -1.207031 3.28125 -1.1875 C 3.394531 -1.175781 3.546875 -1.171875 3.734375 -1.171875 L 4.53125 -1.171875 C 4.71875 -1.171875 4.863281 -1.179688 4.96875 -1.203125 C 5.082031 -1.222656 5.171875 -1.265625 5.234375 -1.328125 C 5.296875 -1.390625 5.335938 -1.472656 5.359375 -1.578125 C 5.378906 -1.679688 5.390625 -1.828125 5.390625 -2.015625 L 5.390625 -2.5 C 5.390625 -2.707031 5.378906 -2.867188 5.359375 -2.984375 C 5.347656 -3.097656 5.3125 -3.1875 5.25 -3.25 C 5.1875 -3.320312 5.097656 -3.363281 4.984375 -3.375 C 4.878906 -3.394531 4.726562 -3.40625 4.53125 -3.40625 Z M 3.71875 -3.40625 "/></g></g></g><g fill="#0350b6" fill-opacity="1"><g transform="translate(42.505933, 25.960801)"><g><path d="M 2.890625 -9.796875 C 2.890625 -9.421875 2.8125 -9.160156 2.65625 -9.015625 C 2.5 -8.867188 2.207031 -8.796875 1.78125 -8.796875 C 1.320312 -8.796875 1.015625 -8.859375 0.859375 -8.984375 C 0.703125 -9.117188 0.625 -9.367188 0.625 -9.734375 C 0.625 -10.117188 0.707031 -10.382812 0.875 -10.53125 C 1.039062 -10.6875 1.351562 -10.765625 1.8125 -10.765625 C 2.21875 -10.765625 2.5 -10.695312 2.65625 -10.5625 C 2.8125 -10.4375 2.890625 -10.179688 2.890625 -9.796875 Z M 2.890625 -1.375 C 2.890625 -1.09375 2.875 -0.863281 2.84375 -0.6875 C 2.820312 -0.507812 2.769531 -0.367188 2.6875 -0.265625 C 2.601562 -0.160156 2.488281 -0.0859375 2.34375 -0.046875 C 2.207031 -0.015625 2.03125 0 1.8125 0 C 1.476562 0 1.238281 -0.0234375 1.09375 -0.078125 C 0.945312 -0.140625 0.828125 -0.257812 0.734375 -0.4375 C 0.691406 -0.519531 0.664062 -0.625 0.65625 -0.75 C 0.644531 -0.875 0.640625 -1.082031 0.640625 -1.375 L 0.640625 -6.640625 C 0.640625 -7.015625 0.679688 -7.269531 0.765625 -7.40625 C 0.859375 -7.550781 1.015625 -7.625 1.234375 -7.625 C 1.453125 -7.625 1.601562 -7.550781 1.6875 -7.40625 C 1.78125 -7.269531 1.828125 -7.015625 1.828125 -6.640625 L 1.828125 -5.484375 C 1.828125 -5.222656 1.859375 -5.046875 1.921875 -4.953125 C 1.984375 -4.867188 2.128906 -4.796875 2.359375 -4.734375 C 2.578125 -4.671875 2.71875 -4.585938 2.78125 -4.484375 C 2.851562 -4.378906 2.890625 -4.164062 2.890625 -3.84375 Z M 2.890625 -1.375 "/></g></g></g><g fill="#000000" fill-opacity="1"><g transform="translate(27.13907, 25.960801)"><g><path d="M 5.140625 -3.015625 L 5.140625 0 L 3.46875 0 L 3.46875 -3.015625 L 0.5 -3.015625 L 0.5 -4.5625 L 3.46875 -4.5625 L 3.46875 -7.59375 L 5.140625 -7.59375 L 5.140625 -4.5625 L 8.078125 -4.5625 L 8.078125 -3.015625 Z M 5.140625 -3.015625 "/></g></g></g><g fill="#000000" fill-opacity="1"><g transform="translate(2.504956, 31.212589)"><g><path d="M 0.15625 0 L 0.15625 -1.515625 L 0.6875 -1.515625 C 0.789062 -1.515625 0.878906 -1.492188 0.953125 -1.453125 C 1.023438 -1.421875 1.078125 -1.375 1.109375 -1.3125 C 1.140625 -1.257812 1.15625 -1.195312 1.15625 -1.125 C 1.15625 -1.03125 1.128906 -0.953125 1.078125 -0.890625 C 1.023438 -0.835938 0.960938 -0.800781 0.890625 -0.78125 C 0.953125 -0.769531 1.003906 -0.742188 1.046875 -0.703125 C 1.085938 -0.671875 1.125 -0.628906 1.15625 -0.578125 C 1.1875 -0.523438 1.203125 -0.46875 1.203125 -0.40625 C 1.203125 -0.332031 1.179688 -0.265625 1.140625 -0.203125 C 1.097656 -0.140625 1.039062 -0.0859375 0.96875 -0.046875 C 0.894531 -0.015625 0.804688 0 0.703125 0 Z M 0.34375 -0.84375 L 0.671875 -0.84375 C 0.773438 -0.84375 0.851562 -0.863281 0.90625 -0.90625 C 0.957031 -0.957031 0.984375 -1.023438 0.984375 -1.109375 C 0.984375 -1.179688 0.957031 -1.238281 0.90625 -1.28125 C 0.851562 -1.332031 0.773438 -1.359375 0.671875 -1.359375 L 0.34375 -1.359375 Z M 0.34375 -0.15625 L 0.6875 -0.15625 C 0.789062 -0.15625 0.867188 -0.175781 0.921875 -0.21875 C 0.984375 -0.269531 1.015625 -0.335938 1.015625 -0.421875 C 1.015625 -0.503906 0.984375 -0.570312 0.921875 -0.625 C 0.859375 -0.675781 0.78125 -0.703125 0.6875 -0.703125 L 0.34375 -0.703125 Z M 0.34375 -0.15625 "/></g></g></g><g fill="#000000" fill-opacity="1"><g transform="translate(4.304097, 31.212589)"><g><path d="M 0.546875 0.03125 C 0.410156 0.03125 0.304688 -0.00390625 0.234375 -0.078125 C 0.160156 -0.160156 0.125 -0.28125 0.125 -0.4375 L 0.125 -1.0625 L 0.3125 -1.0625 L 0.3125 -0.46875 C 0.3125 -0.238281 0.398438 -0.125 0.578125 -0.125 C 0.671875 -0.125 0.75 -0.15625 0.8125 -0.21875 C 0.875 -0.289062 0.90625 -0.390625 0.90625 -0.515625 L 0.90625 -1.0625 L 1.078125 -1.0625 L 1.078125 0 L 0.921875 0 L 0.90625 -0.1875 C 0.875 -0.125 0.820312 -0.0703125 0.75 -0.03125 C 0.6875 0.0078125 0.617188 0.03125 0.546875 0.03125 Z M 0.546875 0.03125 "/></g></g></g><g fill="#000000" fill-opacity="1"><g transform="translate(6.038753, 31.212589)"><g><path d="M 0.265625 -1.3125 C 0.222656 -1.3125 0.191406 -1.320312 0.171875 -1.34375 C 0.148438 -1.363281 0.140625 -1.394531 0.140625 -1.4375 C 0.140625 -1.46875 0.148438 -1.492188 0.171875 -1.515625 C 0.191406 -1.535156 0.222656 -1.546875 0.265625 -1.546875 C 0.296875 -1.546875 0.320312 -1.535156 0.34375 -1.515625 C 0.375 -1.492188 0.390625 -1.46875 0.390625 -1.4375 C 0.390625 -1.394531 0.375 -1.363281 0.34375 -1.34375 C 0.320312 -1.320312 0.296875 -1.3125 0.265625 -1.3125 Z M 0.171875 0 L 0.171875 -1.0625 L 0.34375 -1.0625 L 0.34375 0 Z M 0.171875 0 "/></g></g></g><g fill="#000000" fill-opacity="1"><g transform="translate(7.057621, 31.212589)"><g><path d="M 0.15625 0 L 0.15625 -1.546875 L 0.328125 -1.546875 L 0.328125 0 Z M 0.15625 0 "/></g></g></g><g fill="#000000" fill-opacity="1"><g transform="translate(8.039949, 31.212589)"><g><path d="M 0.640625 0.03125 C 0.523438 0.03125 0.425781 0.00390625 0.34375 -0.046875 C 0.269531 -0.0976562 0.210938 -0.164062 0.171875 -0.25 C 0.128906 -0.332031 0.109375 -0.425781 0.109375 -0.53125 C 0.109375 -0.644531 0.128906 -0.742188 0.171875 -0.828125 C 0.210938 -0.910156 0.269531 -0.972656 0.34375 -1.015625 C 0.425781 -1.066406 0.523438 -1.09375 0.640625 -1.09375 C 0.722656 -1.09375 0.796875 -1.070312 0.859375 -1.03125 C 0.929688 -1 0.988281 -0.953125 1.03125 -0.890625 L 1.03125 -1.546875 L 1.203125 -1.546875 L 1.203125 0 L 1.046875 0 L 1.03125 -0.171875 C 0.988281 -0.117188 0.9375 -0.0703125 0.875 -0.03125 C 0.8125 0.0078125 0.734375 0.03125 0.640625 0.03125 Z M 0.65625 -0.125 C 0.726562 -0.125 0.789062 -0.140625 0.84375 -0.171875 C 0.894531 -0.210938 0.9375 -0.257812 0.96875 -0.3125 C 1 -0.375 1.015625 -0.445312 1.015625 -0.53125 C 1.015625 -0.613281 1 -0.6875 0.96875 -0.75 C 0.9375 -0.8125 0.894531 -0.859375 0.84375 -0.890625 C 0.789062 -0.921875 0.726562 -0.9375 0.65625 -0.9375 C 0.582031 -0.9375 0.515625 -0.921875 0.453125 -0.890625 C 0.398438 -0.859375 0.359375 -0.8125 0.328125 -0.75 C 0.296875 -0.6875 0.28125 -0.613281 0.28125 -0.53125 C 0.28125 -0.445312 0.296875 -0.375 0.328125 -0.3125 C 0.359375 -0.257812 0.398438 -0.210938 0.453125 -0.171875 C 0.515625 -0.140625 0.582031 -0.125 0.65625 -0.125 Z M 0.65625 -0.125 "/></g></g></g><g fill="#000000" fill-opacity="1"><g transform="translate(9.894977, 31.212589)"><g/></g></g><g fill="#000000" fill-opacity="1"><g transform="translate(10.969733, 31.212589)"><g><path d="M 0.578125 0 C 0.472656 0 0.390625 -0.0195312 0.328125 -0.0625 C 0.273438 -0.113281 0.25 -0.203125 0.25 -0.328125 L 0.25 -0.921875 L 0.078125 -0.921875 L 0.078125 -1.0625 L 0.25 -1.0625 L 0.28125 -1.328125 L 0.4375 -1.328125 L 0.4375 -1.0625 L 0.75 -1.0625 L 0.75 -0.921875 L 0.4375 -0.921875 L 0.4375 -0.328125 C 0.4375 -0.253906 0.445312 -0.207031 0.46875 -0.1875 C 0.5 -0.164062 0.550781 -0.15625 0.625 -0.15625 L 0.734375 -0.15625 L 0.734375 0 Z M 0.578125 0 "/></g></g></g><g fill="#000000" fill-opacity="1"><g transform="translate(12.30673, 31.212589)"><g><path d="M 0.640625 0.03125 C 0.535156 0.03125 0.441406 0.0078125 0.359375 -0.03125 C 0.285156 -0.0820312 0.222656 -0.148438 0.171875 -0.234375 C 0.128906 -0.316406 0.109375 -0.414062 0.109375 -0.53125 C 0.109375 -0.644531 0.128906 -0.742188 0.171875 -0.828125 C 0.222656 -0.910156 0.285156 -0.972656 0.359375 -1.015625 C 0.441406 -1.066406 0.535156 -1.09375 0.640625 -1.09375 C 0.742188 -1.09375 0.832031 -1.066406 0.90625 -1.015625 C 0.988281 -0.972656 1.050781 -0.910156 1.09375 -0.828125 C 1.144531 -0.742188 1.171875 -0.644531 1.171875 -0.53125 C 1.171875 -0.414062 1.144531 -0.316406 1.09375 -0.234375 C 1.050781 -0.148438 0.988281 -0.0820312 0.90625 -0.03125 C 0.820312 0.0078125 0.734375 0.03125 0.640625 0.03125 Z M 0.640625 -0.125 C 0.703125 -0.125 0.757812 -0.140625 0.8125 -0.171875 C 0.863281 -0.203125 0.90625 -0.25 0.9375 -0.3125 C 0.96875 -0.375 0.984375 -0.445312 0.984375 -0.53125 C 0.984375 -0.625 0.96875 -0.695312 0.9375 -0.75 C 0.90625 -0.8125 0.863281 -0.859375 0.8125 -0.890625 C 0.757812 -0.921875 0.703125 -0.9375 0.640625 -0.9375 C 0.578125 -0.9375 0.519531 -0.921875 0.46875 -0.890625 C 0.414062 -0.859375 0.367188 -0.8125 0.328125 -0.75 C 0.296875 -0.695312 0.28125 -0.625 0.28125 -0.53125 C 0.28125 -0.445312 0.296875 -0.375 0.328125 -0.3125 C 0.367188 -0.25 0.414062 -0.203125 0.46875 -0.171875 C 0.519531 -0.140625 0.578125 -0.125 0.640625 -0.125 Z M 0.640625 -0.125 "/></g></g></g><g fill="#000000" fill-opacity="1"><g transform="translate(14.084375, 31.212589)"><g/></g></g><g fill="#000000" fill-opacity="1"><g transform="translate(15.159132, 31.212589)"><g><path d="M 0.15625 0 L 0.15625 -1.515625 L 0.34375 -1.515625 L 0.34375 -0.140625 L 1.046875 -0.140625 L 1.046875 0 Z M 0.15625 0 "/></g></g></g><g fill="#000000" fill-opacity="1"><g transform="translate(16.792761, 31.212589)"><g><path d="M 0.625 0.03125 C 0.519531 0.03125 0.425781 0.0078125 0.34375 -0.03125 C 0.269531 -0.0820312 0.210938 -0.148438 0.171875 -0.234375 C 0.128906 -0.316406 0.109375 -0.414062 0.109375 -0.53125 C 0.109375 -0.644531 0.128906 -0.742188 0.171875 -0.828125 C 0.210938 -0.910156 0.269531 -0.972656 0.34375 -1.015625 C 0.425781 -1.066406 0.523438 -1.09375 0.640625 -1.09375 C 0.742188 -1.09375 0.832031 -1.066406 0.90625 -1.015625 C 0.976562 -0.972656 1.035156 -0.914062 1.078125 -0.84375 C 1.117188 -0.769531 1.140625 -0.6875 1.140625 -0.59375 C 1.140625 -0.582031 1.140625 -0.566406 1.140625 -0.546875 C 1.140625 -0.535156 1.140625 -0.519531 1.140625 -0.5 L 0.28125 -0.5 C 0.28125 -0.414062 0.296875 -0.34375 0.328125 -0.28125 C 0.367188 -0.226562 0.414062 -0.1875 0.46875 -0.15625 C 0.519531 -0.132812 0.570312 -0.125 0.625 -0.125 C 0.695312 -0.125 0.757812 -0.140625 0.8125 -0.171875 C 0.863281 -0.210938 0.898438 -0.257812 0.921875 -0.3125 L 1.109375 -0.3125 C 1.078125 -0.21875 1.019531 -0.132812 0.9375 -0.0625 C 0.851562 0 0.75 0.03125 0.625 0.03125 Z M 0.625 -0.9375 C 0.539062 -0.9375 0.460938 -0.910156 0.390625 -0.859375 C 0.328125 -0.804688 0.289062 -0.734375 0.28125 -0.640625 L 0.953125 -0.640625 C 0.953125 -0.734375 0.921875 -0.804688 0.859375 -0.859375 C 0.796875 -0.910156 0.71875 -0.9375 0.625 -0.9375 Z M 0.625 -0.9375 "/></g></g></g><g fill="#000000" fill-opacity="1"><g transform="translate(18.520969, 31.212589)"><g><path d="M 0.5 0.03125 C 0.414062 0.03125 0.34375 0.015625 0.28125 -0.015625 C 0.21875 -0.046875 0.171875 -0.0859375 0.140625 -0.140625 C 0.117188 -0.191406 0.109375 -0.242188 0.109375 -0.296875 C 0.109375 -0.410156 0.148438 -0.492188 0.234375 -0.546875 C 0.316406 -0.609375 0.429688 -0.640625 0.578125 -0.640625 L 0.859375 -0.640625 L 0.859375 -0.65625 C 0.859375 -0.75 0.832031 -0.816406 0.78125 -0.859375 C 0.738281 -0.910156 0.675781 -0.9375 0.59375 -0.9375 C 0.519531 -0.9375 0.457031 -0.921875 0.40625 -0.890625 C 0.351562 -0.859375 0.320312 -0.804688 0.3125 -0.734375 L 0.125 -0.734375 C 0.132812 -0.816406 0.160156 -0.882812 0.203125 -0.9375 C 0.253906 -0.988281 0.3125 -1.023438 0.375 -1.046875 C 0.445312 -1.078125 0.519531 -1.09375 0.59375 -1.09375 C 0.738281 -1.09375 0.847656 -1.050781 0.921875 -0.96875 C 1.003906 -0.894531 1.046875 -0.789062 1.046875 -0.65625 L 1.046875 0 L 0.875 0 L 0.875 -0.1875 C 0.84375 -0.125 0.796875 -0.0703125 0.734375 -0.03125 C 0.679688 0.0078125 0.601562 0.03125 0.5 0.03125 Z M 0.53125 -0.125 C 0.601562 -0.125 0.660156 -0.140625 0.703125 -0.171875 C 0.753906 -0.210938 0.789062 -0.257812 0.8125 -0.3125 C 0.84375 -0.375 0.859375 -0.4375 0.859375 -0.5 L 0.59375 -0.5 C 0.476562 -0.5 0.398438 -0.476562 0.359375 -0.4375 C 0.316406 -0.40625 0.296875 -0.363281 0.296875 -0.3125 C 0.296875 -0.257812 0.316406 -0.210938 0.359375 -0.171875 C 0.398438 -0.140625 0.457031 -0.125 0.53125 -0.125 Z M 0.53125 -0.125 "/></g></g></g><g fill="#000000" fill-opacity="1"><g transform="translate(20.188989, 31.212589)"><g><path d="M 0.15625 0 L 0.15625 -1.0625 L 0.3125 -1.0625 L 0.328125 -0.859375 C 0.359375 -0.929688 0.40625 -0.988281 0.46875 -1.03125 C 0.539062 -1.070312 0.628906 -1.09375 0.734375 -1.09375 L 0.734375 -0.90625 L 0.671875 -0.90625 C 0.609375 -0.90625 0.550781 -0.894531 0.5 -0.875 C 0.445312 -0.851562 0.40625 -0.8125 0.375 -0.75 C 0.34375 -0.695312 0.328125 -0.628906 0.328125 -0.546875 L 0.328125 0 Z M 0.15625 0 "/></g></g></g><g fill="#000000" fill-opacity="1"><g transform="translate(21.474398, 31.212589)"><g><path d="M 0.15625 0 L 0.15625 -1.0625 L 0.3125 -1.0625 L 0.328125 -0.875 C 0.359375 -0.945312 0.40625 -1 0.46875 -1.03125 C 0.53125 -1.070312 0.601562 -1.09375 0.6875 -1.09375 C 0.8125 -1.09375 0.910156 -1.050781 0.984375 -0.96875 C 1.066406 -0.894531 1.109375 -0.78125 1.109375 -0.625 L 1.109375 0 L 0.921875 0 L 0.921875 -0.609375 C 0.921875 -0.828125 0.832031 -0.9375 0.65625 -0.9375 C 0.5625 -0.9375 0.484375 -0.898438 0.421875 -0.828125 C 0.359375 -0.765625 0.328125 -0.671875 0.328125 -0.546875 L 0.328125 0 Z M 0.15625 0 "/></g></g></g><g fill="#000000" fill-opacity="1"><g transform="translate(23.209054, 31.212589)"><g><path d="M 0.21875 0.015625 C 0.175781 0.015625 0.144531 0.00390625 0.125 -0.015625 C 0.101562 -0.046875 0.09375 -0.078125 0.09375 -0.109375 C 0.09375 -0.140625 0.101562 -0.164062 0.125 -0.1875 C 0.144531 -0.21875 0.175781 -0.234375 0.21875 -0.234375 C 0.25 -0.234375 0.273438 -0.21875 0.296875 -0.1875 C 0.316406 -0.164062 0.328125 -0.140625 0.328125 -0.109375 C 0.328125 -0.078125 0.316406 -0.046875 0.296875 -0.015625 C 0.273438 0.00390625 0.25 0.015625 0.21875 0.015625 Z M 0.21875 0.015625 "/></g></g></g><g fill="#000000" fill-opacity="1"><g transform="translate(24.133346, 31.212589)"><g><path d="M 0.15625 0 L 0.15625 -1.515625 L 0.34375 -1.515625 L 0.34375 -0.140625 L 1.046875 -0.140625 L 1.046875 0 Z M 0.15625 0 "/></g></g></g><g fill="#000000" fill-opacity="1"><g transform="translate(25.766976, 31.212589)"><g><path d="M 0.625 0.03125 C 0.519531 0.03125 0.425781 0.0078125 0.34375 -0.03125 C 0.269531 -0.0820312 0.210938 -0.148438 0.171875 -0.234375 C 0.128906 -0.316406 0.109375 -0.414062 0.109375 -0.53125 C 0.109375 -0.644531 0.128906 -0.742188 0.171875 -0.828125 C 0.210938 -0.910156 0.269531 -0.972656 0.34375 -1.015625 C 0.425781 -1.066406 0.523438 -1.09375 0.640625 -1.09375 C 0.742188 -1.09375 0.832031 -1.066406 0.90625 -1.015625 C 0.976562 -0.972656 1.035156 -0.914062 1.078125 -0.84375 C 1.117188 -0.769531 1.140625 -0.6875 1.140625 -0.59375 C 1.140625 -0.582031 1.140625 -0.566406 1.140625 -0.546875 C 1.140625 -0.535156 1.140625 -0.519531 1.140625 -0.5 L 0.28125 -0.5 C 0.28125 -0.414062 0.296875 -0.34375 0.328125 -0.28125 C 0.367188 -0.226562 0.414062 -0.1875 0.46875 -0.15625 C 0.519531 -0.132812 0.570312 -0.125 0.625 -0.125 C 0.695312 -0.125 0.757812 -0.140625 0.8125 -0.171875 C 0.863281 -0.210938 0.898438 -0.257812 0.921875 -0.3125 L 1.109375 -0.3125 C 1.078125 -0.21875 1.019531 -0.132812 0.9375 -0.0625 C 0.851562 0 0.75 0.03125 0.625 0.03125 Z M 0.625 -0.9375 C 0.539062 -0.9375 0.460938 -0.910156 0.390625 -0.859375 C 0.328125 -0.804688 0.289062 -0.734375 0.28125 -0.640625 L 0.953125 -0.640625 C 0.953125 -0.734375 0.921875 -0.804688 0.859375 -0.859375 C 0.796875 -0.910156 0.71875 -0.9375 0.625 -0.9375 Z M 0.625 -0.9375 "/></g></g></g><g fill="#000000" fill-opacity="1"><g transform="translate(27.495183, 31.212589)"><g><path d="M 0.5 0.03125 C 0.414062 0.03125 0.34375 0.015625 0.28125 -0.015625 C 0.21875 -0.046875 0.171875 -0.0859375 0.140625 -0.140625 C 0.117188 -0.191406 0.109375 -0.242188 0.109375 -0.296875 C 0.109375 -0.410156 0.148438 -0.492188 0.234375 -0.546875 C 0.316406 -0.609375 0.429688 -0.640625 0.578125 -0.640625 L 0.859375 -0.640625 L 0.859375 -0.65625 C 0.859375 -0.75 0.832031 -0.816406 0.78125 -0.859375 C 0.738281 -0.910156 0.675781 -0.9375 0.59375 -0.9375 C 0.519531 -0.9375 0.457031 -0.921875 0.40625 -0.890625 C 0.351562 -0.859375 0.320312 -0.804688 0.3125 -0.734375 L 0.125 -0.734375 C 0.132812 -0.816406 0.160156 -0.882812 0.203125 -0.9375 C 0.253906 -0.988281 0.3125 -1.023438 0.375 -1.046875 C 0.445312 -1.078125 0.519531 -1.09375 0.59375 -1.09375 C 0.738281 -1.09375 0.847656 -1.050781 0.921875 -0.96875 C 1.003906 -0.894531 1.046875 -0.789062 1.046875 -0.65625 L 1.046875 0 L 0.875 0 L 0.875 -0.1875 C 0.84375 -0.125 0.796875 -0.0703125 0.734375 -0.03125 C 0.679688 0.0078125 0.601562 0.03125 0.5 0.03125 Z M 0.53125 -0.125 C 0.601562 -0.125 0.660156 -0.140625 0.703125 -0.171875 C 0.753906 -0.210938 0.789062 -0.257812 0.8125 -0.3125 C 0.84375 -0.375 0.859375 -0.4375 0.859375 -0.5 L 0.59375 -0.5 C 0.476562 -0.5 0.398438 -0.476562 0.359375 -0.4375 C 0.316406 -0.40625 0.296875 -0.363281 0.296875 -0.3125 C 0.296875 -0.257812 0.316406 -0.210938 0.359375 -0.171875 C 0.398438 -0.140625 0.457031 -0.125 0.53125 -0.125 Z M 0.53125 -0.125 "/></g></g></g><g fill="#000000" fill-opacity="1"><g transform="translate(29.163204, 31.212589)"><g><path d="M 0.15625 0 L 0.15625 -1.0625 L 0.3125 -1.0625 L 0.328125 -0.859375 C 0.359375 -0.929688 0.40625 -0.988281 0.46875 -1.03125 C 0.539062 -1.070312 0.628906 -1.09375 0.734375 -1.09375 L 0.734375 -0.90625 L 0.671875 -0.90625 C 0.609375 -0.90625 0.550781 -0.894531 0.5 -0.875 C 0.445312 -0.851562 0.40625 -0.8125 0.375 -0.75 C 0.34375 -0.695312 0.328125 -0.628906 0.328125 -0.546875 L 0.328125 0 Z M 0.15625 0 "/></g></g></g><g fill="#000000" fill-opacity="1"><g transform="translate(30.448613, 31.212589)"><g><path d="M 0.15625 0 L 0.15625 -1.0625 L 0.3125 -1.0625 L 0.328125 -0.875 C 0.359375 -0.945312 0.40625 -1 0.46875 -1.03125 C 0.53125 -1.070312 0.601562 -1.09375 0.6875 -1.09375 C 0.8125 -1.09375 0.910156 -1.050781 0.984375 -0.96875 C 1.066406 -0.894531 1.109375 -0.78125 1.109375 -0.625 L 1.109375 0 L 0.921875 0 L 0.921875 -0.609375 C 0.921875 -0.828125 0.832031 -0.9375 0.65625 -0.9375 C 0.5625 -0.9375 0.484375 -0.898438 0.421875 -0.828125 C 0.359375 -0.765625 0.328125 -0.671875 0.328125 -0.546875 L 0.328125 0 Z M 0.15625 0 "/></g></g></g><g fill="#000000" fill-opacity="1"><g transform="translate(32.183269, 31.212589)"><g/></g></g><g fill="#000000" fill-opacity="1"><g transform="translate(33.258026, 31.212589)"><g><path d="M 0.578125 0 C 0.472656 0 0.390625 -0.0195312 0.328125 -0.0625 C 0.273438 -0.113281 0.25 -0.203125 0.25 -0.328125 L 0.25 -0.921875 L 0.078125 -0.921875 L 0.078125 -1.0625 L 0.25 -1.0625 L 0.28125 -1.328125 L 0.4375 -1.328125 L 0.4375 -1.0625 L 0.75 -1.0625 L 0.75 -0.921875 L 0.4375 -0.921875 L 0.4375 -0.328125 C 0.4375 -0.253906 0.445312 -0.207031 0.46875 -0.1875 C 0.5 -0.164062 0.550781 -0.15625 0.625 -0.15625 L 0.734375 -0.15625 L 0.734375 0 Z M 0.578125 0 "/></g></g></g><g fill="#000000" fill-opacity="1"><g transform="translate(34.595023, 31.212589)"><g><path d="M 0.640625 0.03125 C 0.535156 0.03125 0.441406 0.0078125 0.359375 -0.03125 C 0.285156 -0.0820312 0.222656 -0.148438 0.171875 -0.234375 C 0.128906 -0.316406 0.109375 -0.414062 0.109375 -0.53125 C 0.109375 -0.644531 0.128906 -0.742188 0.171875 -0.828125 C 0.222656 -0.910156 0.285156 -0.972656 0.359375 -1.015625 C 0.441406 -1.066406 0.535156 -1.09375 0.640625 -1.09375 C 0.742188 -1.09375 0.832031 -1.066406 0.90625 -1.015625 C 0.988281 -0.972656 1.050781 -0.910156 1.09375 -0.828125 C 1.144531 -0.742188 1.171875 -0.644531 1.171875 -0.53125 C 1.171875 -0.414062 1.144531 -0.316406 1.09375 -0.234375 C 1.050781 -0.148438 0.988281 -0.0820312 0.90625 -0.03125 C 0.820312 0.0078125 0.734375 0.03125 0.640625 0.03125 Z M 0.640625 -0.125 C 0.703125 -0.125 0.757812 -0.140625 0.8125 -0.171875 C 0.863281 -0.203125 0.90625 -0.25 0.9375 -0.3125 C 0.96875 -0.375 0.984375 -0.445312 0.984375 -0.53125 C 0.984375 -0.625 0.96875 -0.695312 0.9375 -0.75 C 0.90625 -0.8125 0.863281 -0.859375 0.8125 -0.890625 C 0.757812 -0.921875 0.703125 -0.9375 0.640625 -0.9375 C 0.578125 -0.9375 0.519531 -0.921875 0.46875 -0.890625 C 0.414062 -0.859375 0.367188 -0.8125 0.328125 -0.75 C 0.296875 -0.695312 0.28125 -0.625 0.28125 -0.53125 C 0.28125 -0.445312 0.296875 -0.375 0.328125 -0.3125 C 0.367188 -0.25 0.414062 -0.203125 0.46875 -0.171875 C 0.519531 -0.140625 0.578125 -0.125 0.640625 -0.125 Z M 0.640625 -0.125 "/></g></g></g><g fill="#000000" fill-opacity="1"><g transform="translate(36.372668, 31.212589)"><g/></g></g><g fill="#000000" fill-opacity="1"><g transform="translate(37.447424, 31.212589)"><g><path d="M 0.15625 0 L 0.15625 -1.515625 L 0.6875 -1.515625 C 0.789062 -1.515625 0.878906 -1.492188 0.953125 -1.453125 C 1.023438 -1.421875 1.078125 -1.375 1.109375 -1.3125 C 1.140625 -1.257812 1.15625 -1.195312 1.15625 -1.125 C 1.15625 -1.03125 1.128906 -0.953125 1.078125 -0.890625 C 1.023438 -0.835938 0.960938 -0.800781 0.890625 -0.78125 C 0.953125 -0.769531 1.003906 -0.742188 1.046875 -0.703125 C 1.085938 -0.671875 1.125 -0.628906 1.15625 -0.578125 C 1.1875 -0.523438 1.203125 -0.46875 1.203125 -0.40625 C 1.203125 -0.332031 1.179688 -0.265625 1.140625 -0.203125 C 1.097656 -0.140625 1.039062 -0.0859375 0.96875 -0.046875 C 0.894531 -0.015625 0.804688 0 0.703125 0 Z M 0.34375 -0.84375 L 0.671875 -0.84375 C 0.773438 -0.84375 0.851562 -0.863281 0.90625 -0.90625 C 0.957031 -0.957031 0.984375 -1.023438 0.984375 -1.109375 C 0.984375 -1.179688 0.957031 -1.238281 0.90625 -1.28125 C 0.851562 -1.332031 0.773438 -1.359375 0.671875 -1.359375 L 0.34375 -1.359375 Z M 0.34375 -0.15625 L 0.6875 -0.15625 C 0.789062 -0.15625 0.867188 -0.175781 0.921875 -0.21875 C 0.984375 -0.269531 1.015625 -0.335938 1.015625 -0.421875 C 1.015625 -0.503906 0.984375 -0.570312 0.921875 -0.625 C 0.859375 -0.675781 0.78125 -0.703125 0.6875 -0.703125 L 0.34375 -0.703125 Z M 0.34375 -0.15625 "/></g></g></g><g fill="#000000" fill-opacity="1"><g transform="translate(39.246563, 31.212589)"><g><path d="M 0.546875 0.03125 C 0.410156 0.03125 0.304688 -0.00390625 0.234375 -0.078125 C 0.160156 -0.160156 0.125 -0.28125 0.125 -0.4375 L 0.125 -1.0625 L 0.3125 -1.0625 L 0.3125 -0.46875 C 0.3125 -0.238281 0.398438 -0.125 0.578125 -0.125 C 0.671875 -0.125 0.75 -0.15625 0.8125 -0.21875 C 0.875 -0.289062 0.90625 -0.390625 0.90625 -0.515625 L 0.90625 -1.0625 L 1.078125 -1.0625 L 1.078125 0 L 0.921875 0 L 0.90625 -0.1875 C 0.875 -0.125 0.820312 -0.0703125 0.75 -0.03125 C 0.6875 0.0078125 0.617188 0.03125 0.546875 0.03125 Z M 0.546875 0.03125 "/></g></g></g><g fill="#000000" fill-opacity="1"><g transform="translate(40.98122, 31.212589)"><g><path d="M 0.265625 -1.3125 C 0.222656 -1.3125 0.191406 -1.320312 0.171875 -1.34375 C 0.148438 -1.363281 0.140625 -1.394531 0.140625 -1.4375 C 0.140625 -1.46875 0.148438 -1.492188 0.171875 -1.515625 C 0.191406 -1.535156 0.222656 -1.546875 0.265625 -1.546875 C 0.296875 -1.546875 0.320312 -1.535156 0.34375 -1.515625 C 0.375 -1.492188 0.390625 -1.46875 0.390625 -1.4375 C 0.390625 -1.394531 0.375 -1.363281 0.34375 -1.34375 C 0.320312 -1.320312 0.296875 -1.3125 0.265625 -1.3125 Z M 0.171875 0 L 0.171875 -1.0625 L 0.34375 -1.0625 L 0.34375 0 Z M 0.171875 0 "/></g></g></g><g fill="#000000" fill-opacity="1"><g transform="translate(42.000087, 31.212589)"><g><path d="M 0.15625 0 L 0.15625 -1.546875 L 0.328125 -1.546875 L 0.328125 0 Z M 0.15625 0 "/></g></g></g><g fill="#000000" fill-opacity="1"><g transform="translate(42.982412, 31.212589)"><g><path d="M 0.640625 0.03125 C 0.523438 0.03125 0.425781 0.00390625 0.34375 -0.046875 C 0.269531 -0.0976562 0.210938 -0.164062 0.171875 -0.25 C 0.128906 -0.332031 0.109375 -0.425781 0.109375 -0.53125 C 0.109375 -0.644531 0.128906 -0.742188 0.171875 -0.828125 C 0.210938 -0.910156 0.269531 -0.972656 0.34375 -1.015625 C 0.425781 -1.066406 0.523438 -1.09375 0.640625 -1.09375 C 0.722656 -1.09375 0.796875 -1.070312 0.859375 -1.03125 C 0.929688 -1 0.988281 -0.953125 1.03125 -0.890625 L 1.03125 -1.546875 L 1.203125 -1.546875 L 1.203125 0 L 1.046875 0 L 1.03125 -0.171875 C 0.988281 -0.117188 0.9375 -0.0703125 0.875 -0.03125 C 0.8125 0.0078125 0.734375 0.03125 0.640625 0.03125 Z M 0.65625 -0.125 C 0.726562 -0.125 0.789062 -0.140625 0.84375 -0.171875 C 0.894531 -0.210938 0.9375 -0.257812 0.96875 -0.3125 C 1 -0.375 1.015625 -0.445312 1.015625 -0.53125 C 1.015625 -0.613281 1 -0.6875 0.96875 -0.75 C 0.9375 -0.8125 0.894531 -0.859375 0.84375 -0.890625 C 0.789062 -0.921875 0.726562 -0.9375 0.65625 -0.9375 C 0.582031 -0.9375 0.515625 -0.921875 0.453125 -0.890625 C 0.398438 -0.859375 0.359375 -0.8125 0.328125 -0.75 C 0.296875 -0.6875 0.28125 -0.613281 0.28125 -0.53125 C 0.28125 -0.445312 0.296875 -0.375 0.328125 -0.3125 C 0.359375 -0.257812 0.398438 -0.210938 0.453125 -0.171875 C 0.515625 -0.140625 0.582031 -0.125 0.65625 -0.125 Z M 0.65625 -0.125 "/></g></g></g><g fill="#000000" fill-opacity="1"><g transform="translate(44.83744, 31.212589)"><g><path d="M 0.21875 0.015625 C 0.175781 0.015625 0.144531 0.00390625 0.125 -0.015625 C 0.101562 -0.046875 0.09375 -0.078125 0.09375 -0.109375 C 0.09375 -0.140625 0.101562 -0.164062 0.125 -0.1875 C 0.144531 -0.21875 0.175781 -0.234375 0.21875 -0.234375 C 0.25 -0.234375 0.273438 -0.21875 0.296875 -0.1875 C 0.316406 -0.164062 0.328125 -0.140625 0.328125 -0.109375 C 0.328125 -0.078125 0.316406 -0.046875 0.296875 -0.015625 C 0.273438 0.00390625 0.25 0.015625 0.21875 0.015625 Z M 0.21875 0.015625 "/></g></g></g><g fill="#000000" fill-opacity="1"><g transform="translate(2.504956, 28.643449)"><g><path d="M 1.328125 -0.671875 C 1.328125 -0.722656 1.320312 -0.765625 1.3125 -0.796875 C 1.3125 -0.835938 1.300781 -0.863281 1.28125 -0.875 C 1.269531 -0.894531 1.25 -0.90625 1.21875 -0.90625 C 1.195312 -0.914062 1.160156 -0.921875 1.109375 -0.921875 L 0.765625 -0.921875 C 0.710938 -0.921875 0.671875 -0.914062 0.640625 -0.90625 C 0.617188 -0.90625 0.597656 -0.894531 0.578125 -0.875 C 0.566406 -0.863281 0.554688 -0.835938 0.546875 -0.796875 C 0.546875 -0.765625 0.546875 -0.722656 0.546875 -0.671875 L 0.546875 -0.296875 C 0.546875 -0.265625 0.546875 -0.234375 0.546875 -0.203125 C 0.546875 -0.171875 0.539062 -0.144531 0.53125 -0.125 C 0.53125 -0.113281 0.523438 -0.0976562 0.515625 -0.078125 C 0.515625 -0.0664062 0.507812 -0.0546875 0.5 -0.046875 C 0.457031 -0.015625 0.394531 0 0.3125 0 C 0.21875 0 0.15625 -0.0234375 0.125 -0.078125 C 0.113281 -0.0859375 0.109375 -0.0976562 0.109375 -0.109375 C 0.109375 -0.128906 0.101562 -0.144531 0.09375 -0.15625 C 0.09375 -0.175781 0.09375 -0.195312 0.09375 -0.21875 C 0.09375 -0.238281 0.09375 -0.269531 0.09375 -0.3125 L 0.09375 -0.953125 C 0.09375 -0.984375 0.09375 -1.007812 0.09375 -1.03125 C 0.101562 -1.0625 0.109375 -1.082031 0.109375 -1.09375 C 0.117188 -1.113281 0.128906 -1.128906 0.140625 -1.140625 C 0.160156 -1.148438 0.179688 -1.160156 0.203125 -1.171875 C 0.234375 -1.179688 0.253906 -1.1875 0.265625 -1.1875 C 0.273438 -1.195312 0.28125 -1.207031 0.28125 -1.21875 C 0.289062 -1.238281 0.296875 -1.257812 0.296875 -1.28125 C 0.296875 -1.3125 0.296875 -1.347656 0.296875 -1.390625 L 0.296875 -1.625 C 0.296875 -1.6875 0.300781 -1.734375 0.3125 -1.765625 C 0.320312 -1.804688 0.335938 -1.835938 0.359375 -1.859375 C 0.378906 -1.878906 0.40625 -1.890625 0.4375 -1.890625 C 0.476562 -1.898438 0.523438 -1.90625 0.578125 -1.90625 L 1.09375 -1.90625 C 1.15625 -1.90625 1.203125 -1.898438 1.234375 -1.890625 C 1.265625 -1.890625 1.289062 -1.875 1.3125 -1.84375 C 1.332031 -1.820312 1.34375 -1.796875 1.34375 -1.765625 C 1.351562 -1.734375 1.359375 -1.6875 1.359375 -1.625 L 1.359375 -1.390625 C 1.359375 -1.347656 1.359375 -1.3125 1.359375 -1.28125 C 1.367188 -1.257812 1.375 -1.238281 1.375 -1.21875 C 1.382812 -1.207031 1.394531 -1.195312 1.40625 -1.1875 C 1.414062 -1.1875 1.425781 -1.179688 1.4375 -1.171875 L 1.484375 -1.15625 C 1.515625 -1.144531 1.535156 -1.128906 1.546875 -1.109375 C 1.554688 -1.097656 1.5625 -1.078125 1.5625 -1.046875 C 1.5625 -1.035156 1.5625 -1.023438 1.5625 -1.015625 C 1.5625 -1.003906 1.5625 -0.984375 1.5625 -0.953125 L 1.5625 -0.1875 C 1.5625 -0.132812 1.5625 -0.0976562 1.5625 -0.078125 C 1.5625 -0.0546875 1.554688 -0.0351562 1.546875 -0.015625 C 1.523438 0.00390625 1.492188 0.015625 1.453125 0.015625 C 1.398438 0.015625 1.363281 0.00390625 1.34375 -0.015625 C 1.332031 -0.046875 1.328125 -0.101562 1.328125 -0.1875 Z M 0.921875 -1.15625 C 0.960938 -1.15625 0.992188 -1.15625 1.015625 -1.15625 C 1.046875 -1.164062 1.066406 -1.179688 1.078125 -1.203125 C 1.097656 -1.222656 1.109375 -1.25 1.109375 -1.28125 C 1.117188 -1.3125 1.125 -1.359375 1.125 -1.421875 C 1.125 -1.472656 1.117188 -1.515625 1.109375 -1.546875 C 1.109375 -1.578125 1.097656 -1.601562 1.078125 -1.625 C 1.066406 -1.644531 1.050781 -1.65625 1.03125 -1.65625 C 1.007812 -1.664062 0.972656 -1.671875 0.921875 -1.671875 L 0.75 -1.671875 C 0.707031 -1.671875 0.671875 -1.664062 0.640625 -1.65625 C 0.609375 -1.65625 0.585938 -1.644531 0.578125 -1.625 C 0.566406 -1.601562 0.554688 -1.570312 0.546875 -1.53125 C 0.546875 -1.5 0.546875 -1.453125 0.546875 -1.390625 C 0.546875 -1.335938 0.546875 -1.296875 0.546875 -1.265625 C 0.554688 -1.234375 0.566406 -1.207031 0.578125 -1.1875 C 0.597656 -1.175781 0.617188 -1.164062 0.640625 -1.15625 C 0.671875 -1.15625 0.707031 -1.15625 0.75 -1.15625 Z M 0.921875 -1.15625 "/></g></g></g><g fill="#000000" fill-opacity="1"><g transform="translate(5.49621, 28.643449)"><g/></g></g><g fill="#000000" fill-opacity="1"><g transform="translate(7.408141, 28.643449)"><g/></g></g><g fill="#000000" fill-opacity="1"><g transform="translate(9.320816, 28.643449)"><g><path d="M 1.546875 -0.21875 C 1.546875 -0.132812 1.523438 -0.078125 1.484375 -0.046875 C 1.460938 -0.0234375 1.4375 -0.0078125 1.40625 0 C 1.375 0 1.328125 0 1.265625 0 L 0.421875 0 C 0.359375 0 0.304688 0 0.265625 0 C 0.234375 -0.0078125 0.207031 -0.0234375 0.1875 -0.046875 C 0.164062 -0.0664062 0.148438 -0.09375 0.140625 -0.125 C 0.140625 -0.164062 0.140625 -0.21875 0.140625 -0.28125 L 0.140625 -1.65625 C 0.140625 -1.707031 0.140625 -1.75 0.140625 -1.78125 C 0.148438 -1.8125 0.164062 -1.835938 0.1875 -1.859375 C 0.207031 -1.878906 0.234375 -1.890625 0.265625 -1.890625 C 0.296875 -1.898438 0.335938 -1.90625 0.390625 -1.90625 L 1.28125 -1.90625 C 1.332031 -1.90625 1.375 -1.898438 1.40625 -1.890625 C 1.445312 -1.890625 1.476562 -1.878906 1.5 -1.859375 C 1.519531 -1.835938 1.53125 -1.804688 1.53125 -1.765625 C 1.539062 -1.722656 1.546875 -1.671875 1.546875 -1.609375 L 1.546875 -1.484375 C 1.546875 -1.421875 1.535156 -1.375 1.515625 -1.34375 C 1.492188 -1.320312 1.460938 -1.3125 1.421875 -1.3125 C 1.378906 -1.3125 1.347656 -1.320312 1.328125 -1.34375 C 1.316406 -1.375 1.3125 -1.421875 1.3125 -1.484375 C 1.3125 -1.523438 1.304688 -1.554688 1.296875 -1.578125 C 1.296875 -1.597656 1.285156 -1.613281 1.265625 -1.625 C 1.242188 -1.644531 1.210938 -1.65625 1.171875 -1.65625 C 1.140625 -1.664062 1.097656 -1.671875 1.046875 -1.671875 L 0.609375 -1.671875 C 0.554688 -1.671875 0.515625 -1.664062 0.484375 -1.65625 C 0.453125 -1.65625 0.425781 -1.644531 0.40625 -1.625 C 0.394531 -1.601562 0.382812 -1.570312 0.375 -1.53125 C 0.375 -1.5 0.375 -1.453125 0.375 -1.390625 C 0.375 -1.359375 0.375 -1.328125 0.375 -1.296875 C 0.375 -1.273438 0.375 -1.253906 0.375 -1.234375 C 0.382812 -1.222656 0.394531 -1.210938 0.40625 -1.203125 C 0.414062 -1.191406 0.429688 -1.179688 0.453125 -1.171875 C 0.484375 -1.160156 0.507812 -1.148438 0.53125 -1.140625 C 0.550781 -1.128906 0.5625 -1.113281 0.5625 -1.09375 C 0.570312 -1.082031 0.578125 -1.0625 0.578125 -1.03125 C 0.578125 -1.007812 0.578125 -0.972656 0.578125 -0.921875 L 0.578125 -0.5625 C 0.578125 -0.53125 0.578125 -0.492188 0.578125 -0.453125 C 0.578125 -0.421875 0.582031 -0.398438 0.59375 -0.390625 C 0.59375 -0.328125 0.609375 -0.285156 0.640625 -0.265625 C 0.679688 -0.242188 0.75 -0.234375 0.84375 -0.234375 L 1.046875 -0.234375 C 1.109375 -0.234375 1.15625 -0.234375 1.1875 -0.234375 C 1.226562 -0.242188 1.253906 -0.257812 1.265625 -0.28125 C 1.285156 -0.300781 1.296875 -0.328125 1.296875 -0.359375 C 1.304688 -0.398438 1.3125 -0.457031 1.3125 -0.53125 C 1.3125 -0.59375 1.316406 -0.632812 1.328125 -0.65625 C 1.347656 -0.6875 1.378906 -0.703125 1.421875 -0.703125 C 1.472656 -0.703125 1.503906 -0.6875 1.515625 -0.65625 C 1.535156 -0.632812 1.546875 -0.59375 1.546875 -0.53125 Z M 1.546875 -0.21875 "/></g></g></g><g fill="#000000" fill-opacity="1"><g transform="translate(12.288979, 28.643449)"><g/></g></g><g fill="#000000" fill-opacity="1"><g transform="translate(14.20091, 28.643449)"><g/></g></g><g fill="#000000" fill-opacity="1"><g transform="translate(16.113585, 28.643449)"><g><path d="M 1.328125 -0.671875 C 1.328125 -0.722656 1.320312 -0.765625 1.3125 -0.796875 C 1.3125 -0.835938 1.300781 -0.863281 1.28125 -0.875 C 1.269531 -0.894531 1.25 -0.90625 1.21875 -0.90625 C 1.195312 -0.914062 1.160156 -0.921875 1.109375 -0.921875 L 0.765625 -0.921875 C 0.710938 -0.921875 0.671875 -0.914062 0.640625 -0.90625 C 0.617188 -0.90625 0.597656 -0.894531 0.578125 -0.875 C 0.566406 -0.863281 0.554688 -0.835938 0.546875 -0.796875 C 0.546875 -0.765625 0.546875 -0.722656 0.546875 -0.671875 L 0.546875 -0.296875 C 0.546875 -0.265625 0.546875 -0.234375 0.546875 -0.203125 C 0.546875 -0.171875 0.539062 -0.144531 0.53125 -0.125 C 0.53125 -0.113281 0.523438 -0.0976562 0.515625 -0.078125 C 0.515625 -0.0664062 0.507812 -0.0546875 0.5 -0.046875 C 0.457031 -0.015625 0.394531 0 0.3125 0 C 0.21875 0 0.15625 -0.0234375 0.125 -0.078125 C 0.113281 -0.0859375 0.109375 -0.0976562 0.109375 -0.109375 C 0.109375 -0.128906 0.101562 -0.144531 0.09375 -0.15625 C 0.09375 -0.175781 0.09375 -0.195312 0.09375 -0.21875 C 0.09375 -0.238281 0.09375 -0.269531 0.09375 -0.3125 L 0.09375 -0.953125 C 0.09375 -0.984375 0.09375 -1.007812 0.09375 -1.03125 C 0.101562 -1.0625 0.109375 -1.082031 0.109375 -1.09375 C 0.117188 -1.113281 0.128906 -1.128906 0.140625 -1.140625 C 0.160156 -1.148438 0.179688 -1.160156 0.203125 -1.171875 C 0.234375 -1.179688 0.253906 -1.1875 0.265625 -1.1875 C 0.273438 -1.195312 0.28125 -1.207031 0.28125 -1.21875 C 0.289062 -1.238281 0.296875 -1.257812 0.296875 -1.28125 C 0.296875 -1.3125 0.296875 -1.347656 0.296875 -1.390625 L 0.296875 -1.625 C 0.296875 -1.6875 0.300781 -1.734375 0.3125 -1.765625 C 0.320312 -1.804688 0.335938 -1.835938 0.359375 -1.859375 C 0.378906 -1.878906 0.40625 -1.890625 0.4375 -1.890625 C 0.476562 -1.898438 0.523438 -1.90625 0.578125 -1.90625 L 1.09375 -1.90625 C 1.15625 -1.90625 1.203125 -1.898438 1.234375 -1.890625 C 1.265625 -1.890625 1.289062 -1.875 1.3125 -1.84375 C 1.332031 -1.820312 1.34375 -1.796875 1.34375 -1.765625 C 1.351562 -1.734375 1.359375 -1.6875 1.359375 -1.625 L 1.359375 -1.390625 C 1.359375 -1.347656 1.359375 -1.3125 1.359375 -1.28125 C 1.367188 -1.257812 1.375 -1.238281 1.375 -1.21875 C 1.382812 -1.207031 1.394531 -1.195312 1.40625 -1.1875 C 1.414062 -1.1875 1.425781 -1.179688 1.4375 -1.171875 L 1.484375 -1.15625 C 1.515625 -1.144531 1.535156 -1.128906 1.546875 -1.109375 C 1.554688 -1.097656 1.5625 -1.078125 1.5625 -1.046875 C 1.5625 -1.035156 1.5625 -1.023438 1.5625 -1.015625 C 1.5625 -1.003906 1.5625 -0.984375 1.5625 -0.953125 L 1.5625 -0.1875 C 1.5625 -0.132812 1.5625 -0.0976562 1.5625 -0.078125 C 1.5625 -0.0546875 1.554688 -0.0351562 1.546875 -0.015625 C 1.523438 0.00390625 1.492188 0.015625 1.453125 0.015625 C 1.398438 0.015625 1.363281 0.00390625 1.34375 -0.015625 C 1.332031 -0.046875 1.328125 -0.101562 1.328125 -0.1875 Z M 0.921875 -1.15625 C 0.960938 -1.15625 0.992188 -1.15625 1.015625 -1.15625 C 1.046875 -1.164062 1.066406 -1.179688 1.078125 -1.203125 C 1.097656 -1.222656 1.109375 -1.25 1.109375 -1.28125 C 1.117188 -1.3125 1.125 -1.359375 1.125 -1.421875 C 1.125 -1.472656 1.117188 -1.515625 1.109375 -1.546875 C 1.109375 -1.578125 1.097656 -1.601562 1.078125 -1.625 C 1.066406 -1.644531 1.050781 -1.65625 1.03125 -1.65625 C 1.007812 -1.664062 0.972656 -1.671875 0.921875 -1.671875 L 0.75 -1.671875 C 0.707031 -1.671875 0.671875 -1.664062 0.640625 -1.65625 C 0.609375 -1.65625 0.585938 -1.644531 0.578125 -1.625 C 0.566406 -1.601562 0.554688 -1.570312 0.546875 -1.53125 C 0.546875 -1.5 0.546875 -1.453125 0.546875 -1.390625 C 0.546875 -1.335938 0.546875 -1.296875 0.546875 -1.265625 C 0.554688 -1.234375 0.566406 -1.207031 0.578125 -1.1875 C 0.597656 -1.175781 0.617188 -1.164062 0.640625 -1.15625 C 0.671875 -1.15625 0.707031 -1.15625 0.75 -1.15625 Z M 0.921875 -1.15625 "/></g></g></g><g fill="#000000" fill-opacity="1"><g transform="translate(19.104838, 28.643449)"><g/></g></g><g fill="#000000" fill-opacity="1"><g transform="translate(21.016769, 28.643449)"><g/></g></g><g fill="#000000" fill-opacity="1"><g transform="translate(22.929444, 28.643449)"><g><path d="M 1.609375 -0.25 C 1.609375 -0.1875 1.601562 -0.140625 1.59375 -0.109375 C 1.582031 -0.0859375 1.566406 -0.0664062 1.546875 -0.046875 C 1.523438 -0.0234375 1.5 -0.0078125 1.46875 0 C 1.4375 0 1.390625 0 1.328125 0 L 0.375 0 C 0.28125 0 0.21875 -0.015625 0.1875 -0.046875 C 0.15625 -0.0859375 0.140625 -0.15625 0.140625 -0.25 L 0.140625 -1.671875 C 0.140625 -1.753906 0.15625 -1.8125 0.1875 -1.84375 C 0.226562 -1.882812 0.296875 -1.90625 0.390625 -1.90625 L 1.359375 -1.90625 C 1.410156 -1.90625 1.453125 -1.898438 1.484375 -1.890625 C 1.515625 -1.890625 1.539062 -1.878906 1.5625 -1.859375 C 1.582031 -1.835938 1.59375 -1.804688 1.59375 -1.765625 C 1.601562 -1.734375 1.609375 -1.6875 1.609375 -1.625 Z M 0.59375 -1.671875 C 0.539062 -1.671875 0.5 -1.664062 0.46875 -1.65625 C 0.445312 -1.65625 0.425781 -1.644531 0.40625 -1.625 C 0.394531 -1.601562 0.382812 -1.578125 0.375 -1.546875 C 0.375 -1.515625 0.375 -1.472656 0.375 -1.421875 C 0.375 -1.367188 0.375 -1.328125 0.375 -1.296875 C 0.375 -1.273438 0.375 -1.253906 0.375 -1.234375 C 0.382812 -1.222656 0.394531 -1.210938 0.40625 -1.203125 C 0.414062 -1.191406 0.429688 -1.179688 0.453125 -1.171875 L 0.5 -1.15625 C 0.519531 -1.144531 0.535156 -1.128906 0.546875 -1.109375 C 0.554688 -1.097656 0.566406 -1.082031 0.578125 -1.0625 C 0.578125 -1.050781 0.578125 -1.035156 0.578125 -1.015625 C 0.578125 -1.003906 0.578125 -0.972656 0.578125 -0.921875 L 0.578125 -0.484375 C 0.578125 -0.429688 0.578125 -0.390625 0.578125 -0.359375 C 0.585938 -0.328125 0.601562 -0.300781 0.625 -0.28125 C 0.644531 -0.257812 0.671875 -0.25 0.703125 -0.25 C 0.734375 -0.25 0.773438 -0.25 0.828125 -0.25 L 1.171875 -0.25 C 1.210938 -0.25 1.242188 -0.25 1.265625 -0.25 C 1.296875 -0.257812 1.316406 -0.269531 1.328125 -0.28125 C 1.347656 -0.300781 1.359375 -0.328125 1.359375 -0.359375 C 1.367188 -0.390625 1.375 -0.429688 1.375 -0.484375 L 1.375 -1.375 C 1.375 -1.445312 1.367188 -1.5 1.359375 -1.53125 C 1.359375 -1.570312 1.347656 -1.601562 1.328125 -1.625 C 1.316406 -1.644531 1.296875 -1.65625 1.265625 -1.65625 C 1.234375 -1.664062 1.1875 -1.671875 1.125 -1.671875 Z M 0.59375 -1.671875 "/></g></g></g><g fill="#000000" fill-opacity="1"><g transform="translate(25.994167, 28.643449)"><g/></g></g><g fill="#000000" fill-opacity="1"><g transform="translate(27.906098, 28.643449)"><g/></g></g><g fill="#000000" fill-opacity="1"><g transform="translate(29.818773, 28.643449)"><g><path d="M 0.578125 -0.484375 C 0.578125 -0.429688 0.578125 -0.390625 0.578125 -0.359375 C 0.585938 -0.328125 0.597656 -0.300781 0.609375 -0.28125 C 0.628906 -0.257812 0.65625 -0.25 0.6875 -0.25 C 0.71875 -0.25 0.765625 -0.25 0.828125 -0.25 L 1.125 -0.25 C 1.1875 -0.25 1.234375 -0.238281 1.265625 -0.21875 C 1.296875 -0.195312 1.3125 -0.164062 1.3125 -0.125 C 1.3125 -0.0820312 1.296875 -0.0507812 1.265625 -0.03125 C 1.234375 -0.0078125 1.1875 0 1.125 0 L 0.390625 0 C 0.335938 0 0.296875 0 0.265625 0 C 0.234375 -0.0078125 0.207031 -0.0234375 0.1875 -0.046875 C 0.164062 -0.0664062 0.148438 -0.09375 0.140625 -0.125 C 0.140625 -0.15625 0.140625 -0.191406 0.140625 -0.234375 L 0.140625 -1.625 C 0.140625 -1.6875 0.140625 -1.734375 0.140625 -1.765625 C 0.148438 -1.804688 0.164062 -1.835938 0.1875 -1.859375 C 0.207031 -1.878906 0.234375 -1.890625 0.265625 -1.890625 C 0.296875 -1.898438 0.335938 -1.90625 0.390625 -1.90625 L 1.15625 -1.90625 C 1.25 -1.90625 1.296875 -1.863281 1.296875 -1.78125 C 1.296875 -1.707031 1.25 -1.671875 1.15625 -1.671875 L 0.578125 -1.671875 C 0.535156 -1.671875 0.5 -1.664062 0.46875 -1.65625 C 0.445312 -1.65625 0.425781 -1.644531 0.40625 -1.625 C 0.394531 -1.601562 0.382812 -1.570312 0.375 -1.53125 C 0.375 -1.5 0.375 -1.453125 0.375 -1.390625 C 0.375 -1.347656 0.375 -1.3125 0.375 -1.28125 C 0.382812 -1.25 0.394531 -1.222656 0.40625 -1.203125 C 0.414062 -1.191406 0.429688 -1.179688 0.453125 -1.171875 C 0.472656 -1.160156 0.503906 -1.15625 0.546875 -1.15625 L 1.078125 -1.15625 C 1.128906 -1.15625 1.164062 -1.15625 1.1875 -1.15625 C 1.207031 -1.15625 1.222656 -1.15625 1.234375 -1.15625 C 1.253906 -1.144531 1.269531 -1.128906 1.28125 -1.109375 C 1.300781 -1.085938 1.3125 -1.066406 1.3125 -1.046875 C 1.3125 -1.003906 1.296875 -0.972656 1.265625 -0.953125 C 1.242188 -0.929688 1.210938 -0.921875 1.171875 -0.921875 L 0.796875 -0.921875 C 0.742188 -0.921875 0.703125 -0.914062 0.671875 -0.90625 C 0.648438 -0.90625 0.628906 -0.894531 0.609375 -0.875 C 0.597656 -0.851562 0.585938 -0.820312 0.578125 -0.78125 C 0.578125 -0.75 0.578125 -0.695312 0.578125 -0.625 Z M 0.578125 -0.484375 "/></g></g></g><g fill="#000000" fill-opacity="1"><g transform="translate(32.543437, 28.643449)"><g/></g></g><g fill="#000000" fill-opacity="1"><g transform="translate(34.455369, 28.643449)"><g/></g></g><g fill="#000000" fill-opacity="1"><g transform="translate(36.368044, 28.643449)"><g><path d="M 2.15625 -0.140625 C 2.15625 -0.0351562 2.113281 0.015625 2.03125 0.015625 C 1.957031 0.015625 1.921875 -0.0390625 1.921875 -0.15625 L 1.921875 -1.421875 C 1.921875 -1.472656 1.914062 -1.515625 1.90625 -1.546875 C 1.90625 -1.585938 1.894531 -1.613281 1.875 -1.625 C 1.863281 -1.644531 1.84375 -1.65625 1.8125 -1.65625 C 1.78125 -1.664062 1.738281 -1.671875 1.6875 -1.671875 L 1.546875 -1.671875 C 1.492188 -1.671875 1.453125 -1.664062 1.421875 -1.65625 C 1.398438 -1.65625 1.378906 -1.644531 1.359375 -1.625 C 1.347656 -1.601562 1.335938 -1.578125 1.328125 -1.546875 C 1.328125 -1.515625 1.328125 -1.472656 1.328125 -1.421875 L 1.328125 -0.140625 C 1.328125 -0.0351562 1.285156 0.015625 1.203125 0.015625 C 1.160156 0.015625 1.128906 0.00390625 1.109375 -0.015625 C 1.085938 -0.046875 1.078125 -0.0859375 1.078125 -0.140625 L 1.078125 -1.421875 C 1.078125 -1.472656 1.070312 -1.515625 1.0625 -1.546875 C 1.0625 -1.578125 1.054688 -1.601562 1.046875 -1.625 C 1.035156 -1.644531 1.015625 -1.65625 0.984375 -1.65625 C 0.960938 -1.664062 0.925781 -1.671875 0.875 -1.671875 L 0.59375 -1.671875 C 0.539062 -1.671875 0.5 -1.664062 0.46875 -1.65625 C 0.445312 -1.65625 0.425781 -1.644531 0.40625 -1.625 C 0.394531 -1.601562 0.382812 -1.578125 0.375 -1.546875 C 0.375 -1.523438 0.375 -1.488281 0.375 -1.4375 L 0.375 -1.359375 C 0.375 -1.316406 0.375 -1.285156 0.375 -1.265625 C 0.382812 -1.253906 0.390625 -1.238281 0.390625 -1.21875 C 0.398438 -1.207031 0.410156 -1.195312 0.421875 -1.1875 C 0.441406 -1.1875 0.460938 -1.179688 0.484375 -1.171875 C 0.523438 -1.148438 0.550781 -1.125 0.5625 -1.09375 C 0.570312 -1.070312 0.582031 -1.035156 0.59375 -0.984375 L 0.59375 -0.25 C 0.59375 -0.15625 0.570312 -0.0859375 0.53125 -0.046875 C 0.5 -0.015625 0.441406 0 0.359375 0 C 0.273438 0 0.21875 -0.015625 0.1875 -0.046875 C 0.15625 -0.0859375 0.140625 -0.160156 0.140625 -0.265625 L 0.140625 -1.625 C 0.140625 -1.6875 0.140625 -1.734375 0.140625 -1.765625 C 0.148438 -1.804688 0.164062 -1.835938 0.1875 -1.859375 C 0.207031 -1.878906 0.234375 -1.890625 0.265625 -1.890625 C 0.304688 -1.898438 0.359375 -1.90625 0.421875 -1.90625 L 1.875 -1.90625 C 1.9375 -1.90625 1.984375 -1.898438 2.015625 -1.890625 C 2.054688 -1.890625 2.085938 -1.878906 2.109375 -1.859375 C 2.128906 -1.835938 2.140625 -1.804688 2.140625 -1.765625 C 2.148438 -1.722656 2.15625 -1.671875 2.15625 -1.609375 Z M 2.15625 -0.140625 "/></g></g></g><g fill="#000000" fill-opacity="1"><g transform="translate(39.980639, 28.643449)"><g/></g></g><g fill="#000000" fill-opacity="1"><g transform="translate(41.89257, 28.643449)"><g/></g></g><g fill="#000000" fill-opacity="1"><g transform="translate(43.805245, 28.643449)"><g><path d="M 0.96875 -0.28125 C 0.96875 -0.226562 0.96875 -0.1875 0.96875 -0.15625 C 0.96875 -0.132812 0.960938 -0.113281 0.953125 -0.09375 C 0.929688 -0.0625 0.90625 -0.0351562 0.875 -0.015625 C 0.851562 -0.00390625 0.8125 0 0.75 0 C 0.707031 0 0.671875 -0.00390625 0.640625 -0.015625 C 0.609375 -0.0234375 0.582031 -0.0390625 0.5625 -0.0625 C 0.550781 -0.0820312 0.539062 -0.109375 0.53125 -0.140625 C 0.53125 -0.179688 0.53125 -0.226562 0.53125 -0.28125 L 0.53125 -0.703125 C 0.53125 -0.742188 0.523438 -0.78125 0.515625 -0.8125 C 0.515625 -0.84375 0.503906 -0.863281 0.484375 -0.875 C 0.472656 -0.894531 0.457031 -0.90625 0.4375 -0.90625 C 0.414062 -0.914062 0.382812 -0.921875 0.34375 -0.921875 L 0.296875 -0.921875 C 0.253906 -0.921875 0.21875 -0.925781 0.1875 -0.9375 C 0.15625 -0.945312 0.128906 -0.960938 0.109375 -0.984375 C 0.0976562 -1.003906 0.0859375 -1.03125 0.078125 -1.0625 C 0.078125 -1.101562 0.078125 -1.148438 0.078125 -1.203125 L 0.078125 -1.75 C 0.078125 -1.8125 0.0859375 -1.851562 0.109375 -1.875 C 0.128906 -1.90625 0.160156 -1.921875 0.203125 -1.921875 C 0.242188 -1.921875 0.269531 -1.90625 0.28125 -1.875 C 0.300781 -1.851562 0.3125 -1.8125 0.3125 -1.75 L 0.3125 -1.375 C 0.3125 -1.332031 0.3125 -1.296875 0.3125 -1.265625 C 0.320312 -1.234375 0.335938 -1.207031 0.359375 -1.1875 C 0.378906 -1.175781 0.40625 -1.164062 0.4375 -1.15625 C 0.46875 -1.15625 0.507812 -1.15625 0.5625 -1.15625 L 0.9375 -1.15625 C 0.988281 -1.15625 1.03125 -1.15625 1.0625 -1.15625 C 1.101562 -1.164062 1.128906 -1.175781 1.140625 -1.1875 C 1.160156 -1.207031 1.171875 -1.234375 1.171875 -1.265625 C 1.179688 -1.296875 1.1875 -1.332031 1.1875 -1.375 L 1.1875 -1.75 C 1.1875 -1.8125 1.191406 -1.851562 1.203125 -1.875 C 1.222656 -1.90625 1.257812 -1.921875 1.3125 -1.921875 C 1.351562 -1.921875 1.378906 -1.90625 1.390625 -1.875 C 1.410156 -1.851562 1.421875 -1.8125 1.421875 -1.75 L 1.421875 -1.203125 C 1.421875 -1.148438 1.414062 -1.101562 1.40625 -1.0625 C 1.40625 -1.03125 1.394531 -1.003906 1.375 -0.984375 C 1.363281 -0.960938 1.34375 -0.945312 1.3125 -0.9375 C 1.289062 -0.925781 1.253906 -0.921875 1.203125 -0.921875 L 1.15625 -0.921875 C 1.113281 -0.921875 1.082031 -0.914062 1.0625 -0.90625 C 1.039062 -0.90625 1.019531 -0.894531 1 -0.875 C 0.988281 -0.863281 0.976562 -0.84375 0.96875 -0.8125 C 0.96875 -0.78125 0.96875 -0.742188 0.96875 -0.703125 Z M 0.96875 -0.28125 "/></g></g></g></svg>